<svg id="Layer_1" data-name="Layer 1" xmlns="http://www.w3.org/2000/svg" viewBox="0 0 480 260"><defs><style>.cls-1,.cls-10,.cls-2,.cls-3,.cls-4,.cls-5,.cls-6,.cls-7,.cls-8,.cls-9{fill:none;stroke-linecap:round;stroke-linejoin:round;stroke-width:4px;}.cls-1,.cls-2,.cls-3,.cls-4{stroke:#7fb942;}.cls-2{stroke-dasharray:9.44 12.27;}.cls-3{stroke-dasharray:8.07 10.49;}.cls-4{stroke-dasharray:10.31 13.4;}.cls-5,.cls-6,.cls-7{stroke:#e6212f;}.cls-6{stroke-dasharray:10.09 13.12;}.cls-7{stroke-dasharray:9.18 11.94;}.cls-10,.cls-8,.cls-9{stroke:#179acd;}.cls-9{stroke-dasharray:9.93 12.9;}.cls-10{stroke-dasharray:10.63 13.82;}.cls-11{fill:#e6212f;}.cls-11,.cls-13,.cls-17{opacity:0.25;}.cls-12{fill:#212221;}.cls-13{fill:#7eba42;}.cls-14{fill:#fff;}.cls-15{fill:#ed2c24;}.cls-16{fill:#83b74e;}.cls-17{fill:#0096cd;}.cls-18{fill:#179acd;}</style></defs><title>graphic-try-convert</title><line class="cls-1" x1="196.13" y1="177.47" x2="201.13" y2="177.47"/><line class="cls-2" x1="213.41" y1="177.47" x2="359.25" y2="177.47"/><polyline class="cls-1" points="365.39 177.47 370.39 177.47 370.39 182.47"/><line class="cls-3" x1="370.39" y1="192.96" x2="370.39" y2="224.84"/><polyline class="cls-1" points="370.39 230.09 370.39 235.09 375.39 235.09"/><line class="cls-4" x1="388.79" y1="235.09" x2="429.5" y2="235.09"/><polyline class="cls-1" points="436.2 235.09 441.2 235.09 441.2 230.09"/><line class="cls-1" x1="441.2" y1="221.65" x2="441.2" y2="216.65"/><line class="cls-5" x1="196.13" y1="153.75" x2="201.13" y2="153.75"/><line class="cls-6" x1="214.26" y1="153.75" x2="347" y2="153.75"/><polyline class="cls-5" points="353.56 153.75 358.56 153.75 358.56 148.75"/><line class="cls-7" x1="358.56" y1="136.81" x2="358.56" y2="79.42"/><polyline class="cls-5" points="358.56 73.45 358.56 68.45 363.56 68.45"/><line class="cls-5" x1="374.99" y1="68.45" x2="379.99" y2="68.45"/><line class="cls-8" x1="196.13" y1="132.32" x2="201.13" y2="132.32"/><line class="cls-9" x1="214.04" y1="132.32" x2="230.41" y2="132.32"/><polyline class="cls-8" points="236.86 132.32 241.86 132.32 241.86 127.32"/><line class="cls-10" x1="241.86" y1="113.5" x2="241.86" y2="95.95"/><polyline class="cls-8" points="241.86 89.04 241.86 84.04 246.86 84.04"/><line class="cls-8" x1="264.03" y1="84.04" x2="269.03" y2="84.04"/><path class="cls-11" d="M444.77,31.68c0,2.68.14,5.37.23,8.05l-.06,28.68c.27,7.43.46,14.85.67,22.28,0,.38,0,.77,0,1.15-.06,2.14-.44,2.74-2.54,2.86-4.59.27-9.19.46-13.79.53-4.93.08-9.87,0-14.8,0-8.2-.09-16.4-.19-24.59-.36-2.52-.05-2.83-.48-3-3,0-.38-.07-.76-.1-1.14,0-1.44,0-2.88,0-4.31-.18-10.07-.42-20.14-.53-30.21-.14-11.7-.18-23.41-.23-35.11,0-1.87.21-3.73.24-5.6,0-1.49.75-2,2.16-2,9.49-.21,19-.52,28.47-.71,3.55-.07,8.07.56,11.37.11l1.75.78A18.84,18.84,0,0,0,431.42,15c3.15,3.46,6.27,7,9.41,10.43.74.82,1.51,1.6,2.24,2.42a14.79,14.79,0,0,1,.89,1.24Z"/><path class="cls-12" d="M439.19,96.87l1,0h0Zm5.7-65.07c0,2.68.14,5.37.23,8.05L445,68.52c.27,7.43.46,14.85.67,22.28,0,.38,0,.77,0,1.15-.06,2.14-.44,2.74-2.54,2.86-4.59.27-9.19.46-13.79.53-4.93.08-9.87,0-14.8,0-8.2-.09-16.4-.19-24.59-.36-2.52-.05-2.83-.48-3-3,0-.38-.07-.76-.1-1.14,0-1.44,0-2.88,0-4.31-.18-10.07-.42-20.14-.53-30.21-.14-11.7-.18-23.41-.23-35.11,0-1.87.21-3.73.24-5.6,0-1.49.75-2,2.16-2,9.49-.21,19-.52,28.47-.71,3.55-.07,8.07.56,11.37.11l1.75.78a18.84,18.84,0,0,0,1.46,1.32c3.15,3.46,6.27,7,9.41,10.43.74.82,1.51,1.6,2.24,2.42a14.79,14.79,0,0,1,.89,1.24ZM447.1,39c.19-2.87.35-5.74.45-8.62a7.71,7.71,0,0,0-.39-1.85,11.05,11.05,0,0,0-.78-1c-3.31-3.46-6.67-6.88-9.93-10.39-1.2-1.29-2.1-2.85-3.25-4.18s-1.82-2.87-3.91-2.74c-3.64.23-7.28.42-10.92.49-6.33.11-12.66.15-19,.16-4.5,0-9,0-13.5-.09-1.78,0-2.2.27-2.37,2a12.11,12.11,0,0,0,0,1.86c.1,1.77.3,3.54.3,5.31.05,14.53.05,29.07.1,43.6q0,16.11.2,32.22c0,.55.5,1.09.77,1.63.1-.07.19-.16.29-.24-.1.08-.19.17-.29.24a12.36,12.36,0,0,0,2.2.37c4.84,0,9.69-.33,14.53-.17,12.86.41,25.71.15,38.56-.44,1.24.06,2.48.15,3.73.16,3.46,0,4.26-.8,4.12-4.23,0-.1,0-.19,0-.29-.31-7.47-.49-11.54-.77-19,0-.5,0-4.41.14-4.91h0L447.66,53Z"/><path class="cls-12" d="M428.92,12.74c-1.32,0-.94-.47-.9.94.12,3.65.28,7.3.4,10.94,0,1.16,0,2.33,0,3.49,0,1.42.15,1.67,1.58,1.7,3.17.05,6.35,0,9.52.14,1.89.07,3.78.34,5.66.53l-.82-1.55a4.33,4.33,0,0,1-1,.25c-1,0-2,0-3-.08-.63,0-1.26-.09-1.9-.14V29c-2.42-.14-4.85-.26-7.27-.44-1.36-.1-1.51-.27-1.59-1.64q-.34-6-.63-12a8.56,8.56,0,0,1,.14-1.36Z"/><path class="cls-13" d="M465.4,147.17c0,2.68.14,5.37.23,8.05l-.06,28.68c.27,7.43.46,14.85.67,22.28,0,.38,0,.77,0,1.15-.06,2.14-.44,2.74-2.54,2.86-4.59.27-9.19.46-13.79.53-4.93.08-9.87,0-14.8,0-8.2-.09-16.4-.19-24.59-.36-2.52-.05-2.83-.48-3-3,0-.38-.07-.76-.1-1.14,0-1.44,0-2.88,0-4.31-.18-10.07-.42-20.14-.53-30.21-.14-11.7-.18-23.41-.23-35.11,0-1.87.21-3.73.24-5.6,0-1.49.75-2,2.16-2,9.49-.21,19-.52,28.47-.71,3.55-.07,8.07.56,11.37.11l1.75.78a18.84,18.84,0,0,0,1.46,1.32c3.15,3.46,6.27,7,9.41,10.43.74.82,1.51,1.6,2.24,2.42a14.79,14.79,0,0,1,.89,1.24Z"/><path class="cls-12" d="M459.81,212.35l1,0h0Zm5.7-65.07c0,2.68.14,5.37.23,8.05L465.68,184c.27,7.43.46,14.85.67,22.28,0,.38,0,.77,0,1.15-.06,2.14-.44,2.74-2.54,2.86-4.59.27-9.19.46-13.79.53-4.93.08-9.87,0-14.8,0-8.2-.09-16.4-.19-24.59-.36-2.52-.05-2.83-.48-3-3,0-.38-.07-.76-.1-1.14,0-1.44,0-2.88,0-4.31-.18-10.07-.42-20.14-.53-30.21-.14-11.7-.18-23.41-.23-35.11,0-1.87.21-3.73.24-5.6,0-1.49.75-2,2.16-2,9.49-.21,19-.52,28.47-.71,3.55-.07,8.07.56,11.37.11l1.75.78a18.84,18.84,0,0,0,1.46,1.32c3.15,3.46,6.27,7,9.41,10.43.74.82,1.51,1.6,2.24,2.42a14.79,14.79,0,0,1,.89,1.24Zm2.22,7.22c.19-2.87.35-5.74.45-8.62a7.71,7.71,0,0,0-.39-1.85,11.05,11.05,0,0,0-.78-1c-3.31-3.46-6.67-6.88-9.93-10.39-1.2-1.29-2.1-2.85-3.25-4.18s-1.82-2.87-3.91-2.74c-3.64.23-7.28.42-10.92.49-6.33.11-12.66.15-19,.16-4.5,0-9,0-13.5-.09-1.78,0-2.2.27-2.37,2a12.11,12.11,0,0,0,0,1.86c.1,1.77.3,3.54.3,5.31.05,14.53.05,29.07.1,43.6q0,16.11.2,32.22c0,.55.5,1.09.77,1.63.1-.07.19-.16.29-.24-.1.08-.19.17-.29.24a12.36,12.36,0,0,0,2.2.37c4.84,0,9.69-.33,14.53-.17,12.86.41,25.71.15,38.56-.44,1.24.06,2.48.15,3.73.16,3.46,0,4.26-.8,4.12-4.23,0-.1,0-.19,0-.29-.31-7.47-.49-11.54-.77-19,0-.5,0-4.41.14-4.91h0l.23-15.91Z"/><path class="cls-12" d="M449.55,128.23c-1.32,0-.94-.47-.9.94.12,3.65.28,7.3.4,10.94,0,1.16,0,2.33,0,3.49,0,1.42.15,1.67,1.58,1.7,3.17.05,6.35,0,9.52.14,1.89.07,3.78.34,5.66.53l-.82-1.55a4.33,4.33,0,0,1-1,.25c-1,0-2,0-3-.08-.63,0-1.26-.09-1.9-.14v.07c-2.42-.14-4.85-.26-7.27-.44-1.36-.1-1.51-.27-1.59-1.64q-.34-6-.63-12a8.56,8.56,0,0,1,.14-1.36Z"/><rect class="cls-14" x="371.28" y="32.26" width="55.44" height="26.35"/><rect class="cls-14" x="371.28" y="32.26" width="55.44" height="26.35"/><rect class="cls-15" x="371.28" y="32.26" width="55.44" height="26.35"/><path class="cls-14" d="M383.91,40.71a1,1,0,0,1,1-1h3.48c2.66,0,4.32,1.51,4.32,3.8v0c0,2.55-2,3.88-4.55,3.88h-2.26v2.74a1,1,0,0,1-2,0Zm4.32,4.9c1.51,0,2.45-.84,2.45-2v0c0-1.33-1-2-2.45-2h-2.32v4.09Z"/><path class="cls-14" d="M408.39,41.56h-2.76a.93.93,0,0,1,0-1.85h7.55a.93.93,0,0,1,0,1.85h-2.78v8.61a1,1,0,0,1-2,0Z"/><path class="cls-14" d="M394.56,40.71a1,1,0,0,1,1-1H399c2.66,0,4.32,1.51,4.32,3.8v0c0,2.55-2,3.88-4.55,3.88h-2.26v2.74a1,1,0,0,1-2,0Zm4.32,4.9c1.51,0,2.45-.84,2.45-2v0c0-1.33-1-2-2.45-2h-2.32v4.09Z"/><rect class="cls-14" x="391.79" y="146.86" width="55.44" height="26.35"/><rect class="cls-14" x="391.79" y="146.86" width="55.44" height="26.35"/><rect class="cls-16" x="391.79" y="146.86" width="55.44" height="26.35"/><path class="cls-14" d="M404.43,164.2l3.43-4.26-3.24-4a1.3,1.3,0,0,1-.31-.76,1,1,0,0,1,1-1,1,1,0,0,1,.92.5l2.92,3.85,2.89-3.78a1.14,1.14,0,0,1,1-.56.93.93,0,0,1,.92.92,1.19,1.19,0,0,1-.31.78l-3.24,4,3.4,4.24a1.26,1.26,0,0,1,.31.76,1,1,0,0,1-1,1,1,1,0,0,1-.92-.5l-3.1-4-3.05,4a1.16,1.16,0,0,1-1,.56.93.93,0,0,1-.92-.94A1.26,1.26,0,0,1,404.43,164.2Z"/><path class="cls-14" d="M416.51,155.18a1,1,0,0,1,2,0V164h5.23a.92.92,0,0,1,0,1.85h-6.24a1,1,0,0,1-1-1Z"/><path class="cls-14" d="M426.43,164.53a1,1,0,0,1-.4-.78,1,1,0,0,1,1.55-.76,5,5,0,0,0,3.24,1.19c1.25,0,2-.59,2-1.45v0c0-.83-.46-1.27-2.61-1.77-2.46-.59-3.85-1.32-3.85-3.45v0c0-2,1.65-3.35,3.95-3.35a6.36,6.36,0,0,1,3.66,1.07.92.92,0,0,1,.45.81.94.94,0,0,1-1,.94,1,1,0,0,1-.53-.15,4.8,4.8,0,0,0-2.66-.87c-1.19,0-1.88.61-1.88,1.37v0c0,.89.53,1.29,2.76,1.82,2.44.59,3.7,1.47,3.7,3.38v0c0,2.16-1.7,3.45-4.13,3.45A7.2,7.2,0,0,1,426.43,164.53Z"/><path class="cls-17" d="M328.34,60.42c0,2.68.14,5.37.23,8.05l-.06,28.68c.27,7.43.46,14.85.67,22.28,0,.38,0,.77,0,1.15-.06,2.14-.44,2.74-2.54,2.86-4.59.27-9.19.46-13.79.53-4.93.08-9.87,0-14.8,0-8.2-.09-16.4-.19-24.59-.36-2.52-.05-2.83-.48-3-3,0-.38-.07-.76-.1-1.14,0-1.44,0-2.88,0-4.31-.18-10.07-.42-20.14-.53-30.21-.14-11.7-.18-23.41-.23-35.11,0-1.87.21-3.73.24-5.6,0-1.49.75-2,2.16-2,9.49-.21,19-.52,28.47-.71,3.55-.07,8.07.56,11.37.11l1.75.78A18.84,18.84,0,0,0,315,43.74c3.15,3.46,6.27,7,9.41,10.43.74.82,1.51,1.6,2.24,2.42a14.79,14.79,0,0,1,.89,1.24Z"/><path class="cls-12" d="M322.76,125.61l1,0h0Zm5.7-65.07c0,2.68.14,5.37.23,8.05l-.06,28.68c.27,7.43.46,14.85.67,22.28,0,.38,0,.77,0,1.15-.06,2.14-.44,2.74-2.54,2.86-4.59.27-9.19.46-13.79.53-4.93.08-9.87,0-14.8,0-8.2-.09-16.4-.19-24.59-.36-2.52-.05-2.83-.48-3-3,0-.38-.07-.76-.1-1.14,0-1.44,0-2.88,0-4.31-.18-10.07-.42-20.14-.53-30.21-.14-11.7-.18-23.41-.23-35.11,0-1.87.21-3.73.24-5.6,0-1.49.75-2,2.16-2,9.49-.21,19-.52,28.47-.71,3.55-.07,8.07.56,11.37.11l1.75.78a18.84,18.84,0,0,0,1.46,1.32c3.15,3.46,6.27,7,9.41,10.43.74.82,1.51,1.6,2.24,2.42a14.79,14.79,0,0,1,.89,1.24Zm2.22,7.22c.19-2.87.35-5.74.45-8.62a7.71,7.71,0,0,0-.39-1.85,11.05,11.05,0,0,0-.78-1c-3.31-3.46-6.67-6.88-9.93-10.39-1.2-1.29-2.1-2.85-3.25-4.18S315,38.84,312.87,39c-3.64.23-7.28.42-10.92.49-6.33.11-12.66.15-19,.16-4.5,0-9,0-13.5-.09-1.78,0-2.2.27-2.37,2a12.11,12.11,0,0,0,0,1.86c.1,1.77.3,3.54.3,5.31.05,14.53.05,29.07.1,43.6q0,16.11.2,32.22c0,.55.5,1.09.77,1.63.1-.07.19-.16.29-.24-.1.08-.19.17-.29.24a12.36,12.36,0,0,0,2.2.37c4.84,0,9.69-.33,14.53-.17,12.86.41,25.71.15,38.56-.44,1.24.06,2.48.15,3.73.16,3.46,0,4.26-.8,4.12-4.23,0-.1,0-.19,0-.29-.31-7.47-.49-11.54-.77-19,0-.5,0-4.41.14-4.91h0l.23-15.91Z"/><path class="cls-12" d="M312.49,41.48c-1.32,0-.94-.47-.9.94.12,3.65.28,7.3.4,10.94,0,1.16,0,2.33,0,3.49,0,1.42.15,1.67,1.58,1.7,3.17.05,6.35,0,9.52.14,1.89.07,3.78.34,5.66.53l-.82-1.55a4.33,4.33,0,0,1-1,.25c-1,0-2,0-3-.08-.63,0-1.26-.09-1.9-.14v.07c-2.42-.14-4.85-.26-7.27-.44-1.36-.1-1.51-.27-1.59-1.64q-.34-6-.63-12a8.56,8.56,0,0,1,.14-1.36Z"/><rect class="cls-14" x="254.01" y="61.12" width="55.44" height="26.35"/><rect class="cls-18" x="254.01" y="61.12" width="55.44" height="26.35"/><path class="cls-14" d="M263,69.47a1,1,0,0,1,1-1h3.34c3.69,0,6.24,2.53,6.24,5.83v0a5.87,5.87,0,0,1-6.24,5.87h-3.34a1,1,0,0,1-1-1Zm4.38,8.82a3.82,3.82,0,0,0,4.07-4v0a3.85,3.85,0,0,0-4.07-4H265.1v8Z"/><path class="cls-14" d="M275.62,74.33v0a6.14,6.14,0,0,1,12.27,0v0a6.14,6.14,0,0,1-12.27,0Zm10.11,0v0a4,4,0,0,0-4-4.17,4,4,0,0,0-4,4.14v0a4,4,0,0,0,4,4.16A4,4,0,0,0,285.73,74.33Z"/><path class="cls-14" d="M289.87,74.33v0a5.94,5.94,0,0,1,6.05-6.07,6.16,6.16,0,0,1,4,1.32,1,1,0,0,1,.4.82,1,1,0,0,1-1.64.8,4.26,4.26,0,0,0-2.8-1.06A4,4,0,0,0,292,74.26v0a4,4,0,0,0,3.87,4.16,4.21,4.21,0,0,0,2.93-1.12.94.94,0,0,1,.62-.23,1,1,0,0,1,.64,1.69,6,6,0,0,1-4.26,1.58A5.9,5.9,0,0,1,289.87,74.33Z"/><path class="cls-14" d="M208.83,61.39c0,8.22.44,16.45.71,24.67l-.2,87.87c.84,22.75,1.43,45.51,2.08,68.27,0,1.17,0,2.35,0,3.53-.17,6.57-1.38,8.39-7.89,8.77-14.24.83-28.5,1.4-42.76,1.63-15.3.25-30.61.08-45.91-.08-25.42-.27-50.85-.57-76.27-1.09-7.8-.16-8.77-1.46-9.41-9.14-.1-1.17-.21-2.34-.32-3.51,0-4.41,0-8.81-.09-13.22-.55-30.86-1.29-61.71-1.65-92.57-.42-35.86-.55-71.72-.71-107.58,0-5.72.66-11.44.74-17.16.06-4.58,2.31-6,6.69-6.08C63.31,5,92.74,4.1,122.18,3.52c11-.22,25,1.72,35.27.34l5.42,2.38c2,2.27,3.52,2.94,4.53,4,9.77,10.61,19.46,21.31,29.19,32,2.29,2.5,4.7,4.89,7,7.42a45.34,45.34,0,0,1,2.77,3.79Z"/><path class="cls-12" d="M213.48,244.25c0-.28,0-.56-.05-.84-.9-21.83-1.43-33.7-2.26-55.53-.06-1.45.14-12.88.42-14.34l0,0,.67-46.48-1.64-40.94c.56-8.38,1-16.78,1.32-25.17.06-1.78-.74-3.6-1.14-5.4a32.31,32.31,0,0,0-2.27-3c-9.67-10.12-19.49-20.1-29-30.35-3.49-3.76-6.12-8.31-9.5-12.2-3.09-3.55-5.3-8.4-11.43-8-10.62.66-21.26,1.23-31.89,1.42-18.49.33-37,.43-55.47.48C58.11,4,45,3.81,31.81,3.64c-5.19-.07-6.42.78-6.94,6A35.37,35.37,0,0,0,25,15c.29,5.17.87,10.34.88,15.51.15,42.46.15,84.92.28,127.38.1,31.38.58,62.75.58,94.13,0,5.54,6.55,5.87,8.69,5.86,14.15-.12,28.32-1,42.44-.51,37.58,1.2,75.12.44,112.66-1.28,3.63.16,7.26.43,10.89.47C211.55,256.71,213.9,254.25,213.48,244.25ZM163.86,8.07c6.82,8.83,24.23,26.9,31.93,35.39,1.63,1.8,8,8.17,10.94,11.53a7.41,7.41,0,0,1,.91,1.3,7.64,7.64,0,0,1-2.25.51c-3.18,0-6.37-.11-9.55-.24-2-.09-21.43-1-29.12-1.61-4.31-.31-4.79-.85-5-5.21q-1.09-19.08-2-38.16a27.19,27.19,0,0,1,.46-4.31l-.33-1.63A6.53,6.53,0,0,1,163.86,8.07ZM210.37,245c-.17,6.5-1.39,7.52-7.79,7.9-14,.82-27.15,1.39-41.16,1.62-15,.24-30.88.86-45.92.7-25-.27-50-.57-74.93-1.08-7.66-.16-8.76-.47-9.39-8.07-.1-1.16-.06-3.29-.16-4.45,0-4.36,0-8.73-.08-13.09-.54-30.55-1.27-61.11-1.62-91.66-.41-35.51-.54-71-.69-106.53,0-5.66.65-11.33.73-17,.06-4.53,2.27-5.93,6.57-6,28.92-.64,57.87-1,86.8-1.57,9.32-.18,24.22.45,33.86-.08.06.47.13,1.11.15,2,.37,11.58.9,23.16,1.28,34.74.12,3.69.06,7.39-.05,11.08-.14,4.52.48,5.31,5,5.38,10.08.16,20.16.09,30.23.46,5.14.19,10.26.85,15.38,1.4,0,20.68-.26,113.2-.26,113.2.83,22.53,1.4,45.07,2,67.6C210.39,242.65,210.4,243.81,210.37,245Z"/><path class="cls-12" d="M95.52,43c0,3.31-1.47,5-4.84,5-11.15.08-22.31.14-33.46,0-5.08-.07-9.72-5.4-9.52-10.4a5.93,5.93,0,0,1,6.08-5.34c3.28.29,6.57.62,9.86.67,7.16.12,14.32,0,21.47.13C91,33.21,95.58,37.74,95.52,43Zm-33-8.09c-3,.35-6-.42-8.91.08-2.6.44-3.35,1.71-2.93,4.23A7.58,7.58,0,0,0,58.16,46c3,.13,6-.05,9-.05,7.51,0,15,.07,22.53,0,3.27,0,4.19-1.31,3.53-4.39-.88-4.12-3.43-6.21-8.34-6.46C77.44,34.7,62.5,35,62.49,34.94Z"/><path class="cls-12" d="M102,89.18c-4.31-.09-8.64.59-13,.65-10.68.16-21.36.25-32,.19-6,0-8.12-3-6.87-9.17,1.1-5.42,1.1-5.49,6.76-6.08a65.85,65.85,0,0,1,6.91-.09c1.83,0,3.67.12,5.5.1,17.33-.24,34.67-.67,52-.71,10.5,0,21,.56,31.49.83,3.87.1,7.25,1.26,9.54,4.53a6,6,0,0,1-2.51,9.19,19.46,19.46,0,0,1-6.8,1.29c-7.51.15-15,.06-22.53.06C130.45,90.07,111.46,89.38,102,89.18ZM52.49,81.71c-.14,5.3.63,6.29,5.89,6.19,6.5-.12,13-.82,19.48-.87,19.7-.13,39.41-.1,59.11,0,3.32,0,6.64.67,10,.64a54,54,0,0,0,10.86-.95c3.67-.8,4.58-4.36,1.67-6.74a13.09,13.09,0,0,0-7.16-2.87c-13.33-.59-26.68-.74-40-1.15-18.5-.56-37,1-55.49.08-.17,0-.33,0-.5,0-3.4.08-3.55.21-3.8,3.72C52.45,80.37,52.49,81,52.49,81.71Z"/><path class="cls-14" d="M52.49,81.71c0-.67,0-1.34,0-2,.26-3.51.4-3.64,3.8-3.72.17,0,.33,0,.5,0,18.5.93,37-.65,55.49-.08,13.34.41,26.69.55,40,1.15a13.09,13.09,0,0,1,7.16,2.87c2.91,2.37,2,5.93-1.67,6.74a54,54,0,0,1-10.86.95c-3.32,0-6.64-.63-10-.64-19.7-.06-39.41-.09-59.11,0-6.49,0-13,.75-19.48.87C53.11,88,52.35,87,52.49,81.71Z"/><path class="cls-12" d="M102,221.5c-4.31-.09-8.64.59-13,.65-10.68.16-21.36.25-32,.19-6,0-8.12-3-6.87-9.17,1.1-5.42,1.1-5.49,6.76-6.08a65.85,65.85,0,0,1,6.91-.09c1.83,0,3.67.12,5.5.1,17.33-.24,34.67-.67,52-.71,10.5,0,21,.56,31.49.83,3.87.1,7.25,1.26,9.54,4.53a6,6,0,0,1-2.51,9.19,19.46,19.46,0,0,1-6.8,1.29c-7.51.15-15,.06-22.53.06C130.45,222.39,111.46,221.7,102,221.5ZM52.49,214c-.14,5.3.63,6.29,5.89,6.19,6.5-.12,13-.82,19.48-.87,19.7-.13,39.41-.1,59.11,0,3.32,0,6.64.67,10,.64a54,54,0,0,0,10.86-.95c3.67-.8,4.58-4.36,1.67-6.74a13.09,13.09,0,0,0-7.16-2.87c-13.33-.59-26.68-.74-40-1.15-18.5-.56-37,1-55.49.08-.17,0-.33,0-.5,0-3.4.08-3.55.21-3.8,3.72C52.45,212.69,52.49,213.36,52.49,214Z"/><path class="cls-14" d="M52.49,214c0-.67,0-1.34,0-2,.26-3.51.4-3.64,3.8-3.72.17,0,.33,0,.5,0,18.5.93,37-.65,55.49-.08,13.34.41,26.69.55,40,1.15a13.09,13.09,0,0,1,7.16,2.87c2.91,2.37,2,5.93-1.67,6.74a54,54,0,0,1-10.86.95c-3.32,0-6.64-.63-10-.64-19.7-.06-39.41-.09-59.11,0-6.49,0-13,.75-19.48.87C53.11,220.32,52.35,219.33,52.49,214Z"/><path class="cls-14" d="M62.49,34.94c-3,.35-6-.42-8.91.08-2.6.44-3.35,1.71-2.93,4.23A7.58,7.58,0,0,0,58.16,46c3,.13,6-.05,9-.05,7.51,0,15,.07,22.53,0,3.27,0,4.19-1.31,3.53-4.39-.88-4.12-3.43-6.21-8.34-6.46C77.44,34.7,62.5,35,62.49,34.94Z"/><path class="cls-12" d="M150.68,122.55c-20.16-.36-40.32-.68-60.47-1.11-5.82-.13-11.63-.71-17.45-.84a75.67,75.67,0,0,0-9.46.63c-5.56.58-10.26-.87-13.52-5.63-1.68-2.44-2.47-5.16-1-8s4-3.31,6.83-3.16c4,.21,7.89.74,11.84.78,5.48.05,11-.26,16.45-.36,3.32-.06,6.65-.15,10,.05,5.64.35,11.26,1.11,16.91,1.35,3.47.14,7-.58,10.46-.55,5.32.05,10.65.67,16,.61,10.49-.11,21-.63,31.46-.74a13.1,13.1,0,0,1,6.59,1.61c4.74,2.84,3.65,11.67,1,13.88a7.76,7.76,0,0,1-4.55,1.4C164.69,122.63,157.68,122.55,150.68,122.55Zm-67-3.87c0-.22,31.65,1.16,47.47,1.64,13.52.41,27.05.19,40.58.17,1.09,0,2.58-.21,3.19-.92,2.05-2.36,1.83-5.38,1-8.09a5.3,5.3,0,0,0-5.26-3.91c-1.17,0-2.34,0-3.51,0-10.67.26-21.34.74-32,.73-11,0-22-.5-33-.78-1.33,0-2.66-.2-4-.2-6.3,0-12.6,0-18.9-.08-2.49,0-5-.19-7.46-.26-5.83-.15-11.67-.47-17.5-.33-3.43.08-4.8,2.78-3.54,6a8.93,8.93,0,0,0,8.86,6C67.61,118.72,75.63,118.68,83.64,118.68Z"/><path class="cls-14" d="M83.64,118.68c0-.22,31.65,1.16,47.47,1.64,13.52.41,27.05.19,40.58.17,1.09,0,2.58-.21,3.19-.92,2.05-2.36,1.83-5.38,1-8.09a5.3,5.3,0,0,0-5.26-3.91c-1.17,0-2.34,0-3.51,0-10.67.26-21.34.74-32,.73-11,0-22-.5-33-.78-1.33,0-2.66-.2-4-.2-6.3,0-12.6,0-18.9-.08-2.49,0-5-.19-7.46-.26-5.83-.15-11.67-.47-17.5-.33-3.43.08-4.8,2.78-3.54,6a8.93,8.93,0,0,0,8.86,6C67.61,118.72,75.63,118.68,83.64,118.68Z"/><path class="cls-12" d="M151.06,190.91c-20.16-.36-40.32-.68-60.47-1.11-5.82-.13-11.63-.71-17.45-.84a75.67,75.67,0,0,0-9.46.63c-5.56.58-10.26-.87-13.52-5.63-1.68-2.44-2.47-5.16-1-8s4-3.31,6.83-3.16c4,.21,7.89.74,11.84.78,5.48.05,11-.26,16.45-.36,3.32-.06,6.65-.15,10,.05,5.64.35,11.26,1.11,16.91,1.35,3.47.14,7-.58,10.46-.55,5.32.05,10.65.67,16,.61,10.49-.11,21-.63,31.46-.74a13.1,13.1,0,0,1,6.59,1.61c4.74,2.84,3.65,11.67,1,13.88a7.76,7.76,0,0,1-4.55,1.4C165.07,191,158.06,190.91,151.06,190.91ZM84,187c0-.22,31.65,1.16,47.47,1.64,13.52.41,27.05.19,40.58.17,1.09,0,2.58-.21,3.19-.92,2.05-2.36,1.83-5.38,1-8.09a5.3,5.3,0,0,0-5.26-3.91c-1.17,0-2.34,0-3.51,0-10.67.26-21.34.74-32,.73-11,0-22-.5-33-.78-1.33,0-2.66-.2-4-.2-6.3,0-12.6,0-18.9-.08-2.49,0-5-.19-7.46-.26-5.83-.15-11.67-.47-17.5-.33-3.43.08-4.8,2.78-3.54,6A8.93,8.93,0,0,0,60,187C68,187.08,76,187,84,187Z"/><path class="cls-14" d="M84,187c0-.22,31.65,1.16,47.47,1.64,13.52.41,27.05.19,40.58.17,1.09,0,2.58-.21,3.19-.92,2.05-2.36,1.83-5.38,1-8.09a5.3,5.3,0,0,0-5.26-3.91c-1.17,0-2.34,0-3.51,0-10.67.26-21.34.74-32,.73-11,0-22-.5-33-.78-1.33,0-2.66-.2-4-.2-6.3,0-12.6,0-18.9-.08-2.49,0-5-.19-7.46-.26-5.83-.15-11.67-.47-17.5-.33-3.43.08-4.8,2.78-3.54,6A8.93,8.93,0,0,0,60,187C68,187.08,76,187,84,187Z"/><path class="cls-12" d="M89.63,152.47c0,3.25-1.48,4.87-4.87,4.9-11.23.08-22.47.14-33.71,0-5.11-.07-4-11.7-3.8-16.62.12-2.91,1.3-4.09,4.08-4.41a78.4,78.4,0,0,1,10.08-.09c7.21.11,14.42,0,21.63.13C89,136.51,89.68,147.27,89.63,152.47ZM60.23,138.21c-3,.34-6-.41-9,.08-2.62.43-3.4,16.91.74,17.09,3,.13,6.05-.05,9.08-.05,7.57,0,15.13.07,22.7,0,3.3,0,4.22-1.29,3.56-4.31-.89-4,.43-12.4-4.52-12.65C75.29,138,60.24,138.3,60.23,138.21Z"/><path class="cls-14" d="M60.23,138.21c-3,.34-6-.41-9,.08-2.62.43-3.4,16.91.74,17.09,3,.13,6.05-.05,9.08-.05,7.57,0,15.13.07,22.7,0,3.3,0,4.22-1.29,3.56-4.31-.89-4,.43-12.4-4.52-12.65C75.29,138,60.24,138.3,60.23,138.21Z"/><path class="cls-12" d="M140.65,152.47c0,3.25-1.48,4.87-4.87,4.9-11.23.08-22.47.14-33.71,0-5.11-.07-4-11.7-3.8-16.62.12-2.91,1.3-4.09,4.08-4.41a78.4,78.4,0,0,1,10.08-.09c7.21.11,14.42,0,21.63.13C140,136.51,140.7,147.27,140.65,152.47Zm-29.39-14.26c-3,.34-6-.41-9,.08-2.62.43-3.4,16.91.74,17.09,3,.13,6.05-.05,9.08-.05,7.57,0,15.13.07,22.7,0,3.3,0,4.22-1.29,3.56-4.31-.89-4,.43-12.4-4.52-12.65C126.31,138,111.26,138.3,111.25,138.21Z"/><path class="cls-14" d="M111.25,138.21c-3,.34-6-.41-9,.08-2.62.43-3.4,16.91.74,17.09,3,.13,6.05-.05,9.08-.05,7.57,0,15.13.07,22.7,0,3.3,0,4.22-1.29,3.56-4.31-.89-4,.43-12.4-4.52-12.65C126.31,138,111.26,138.3,111.25,138.21Z"/><path class="cls-12" d="M192.5,152.47c0,3.25-1.48,4.87-4.87,4.9-11.23.08-22.47.14-33.71,0-5.11-.07-4-11.7-3.8-16.62.12-2.91,1.3-4.09,4.08-4.41a78.4,78.4,0,0,1,10.08-.09c7.21.11,14.42,0,21.63.13C191.84,136.51,192.55,147.27,192.5,152.47ZM163.1,138.21c-3,.34-6-.41-9,.08-2.62.43-3.4,16.91.74,17.09,3,.13,6.05-.05,9.08-.05,7.57,0,15.13.07,22.7,0,3.3,0,4.22-1.29,3.56-4.31-.89-4,.43-12.4-4.52-12.65C178.16,138,163.11,138.3,163.1,138.21Z"/><path class="cls-14" d="M163.1,138.21c-3,.34-6-.41-9,.08-2.62.43-3.4,16.91.74,17.09,3,.13,6.05-.05,9.08-.05,7.57,0,15.13.07,22.7,0,3.3,0,4.22-1.29,3.56-4.31-.89-4,.43-12.4-4.52-12.65C178.16,138,163.11,138.3,163.1,138.21Z"/></svg>