<svg id="Layer_1" data-name="Layer 1" xmlns="http://www.w3.org/2000/svg" viewBox="0 0 480 260"><defs><style>.cls-1{fill:#fff;}.cls-2{fill:#1499cd;}.cls-3{fill:#212221;}.cls-4{fill:#fefefe;}.cls-5,.cls-6{fill:#7eba42;}.cls-6,.cls-7{opacity:0.25;}.cls-7{fill:#0096cd;}</style></defs><title>graphic-try-edit</title><path class="cls-1" d="M122.33,208.5c-3.59.19-7.2.1-10.81.08q-11.84-.06-23.68-.19c-.85,0-3.72.1-5.18,0v-.05H82c-12.48.07-25,.17-37.45.18-8.24,0-16.47-.11-24.71-.21-1.8,0-3.59-.2-5.39-.31a1.67,1.67,0,0,1-1.81-1.93c0-.58,0-1.17,0-1.76q.08-21.58.18-43.16c0-1.09,0-2.18.13-3.26.27-2.77.66-3.17,3.45-3.25,1.88-.05,3.77,0,5.66.1,1.63.06,3.25.24,4.88.26,14.05.19,28.11.38,42.16.5,3.17,0,6.34-.31,9.51-.42,2.57-.09,5.17.45,5.77-.24,12.17.13,26.94.29,39,.49,2.5,0,2.71.28,2.87,2.84.22,3.42.39,6.84.41,10.27q.08,17.82,0,35.63C126.63,208.17,126.58,208.28,122.33,208.5Z"/><path class="cls-2" d="M127.8,204.88h0c0-.26-.1-.51-.16-.77a13.83,13.83,0,0,1-.35-2.39c-.11-4.08-.18-8.33-.21-13-.07-11.41-.14-21.69-.13-32C127,154,124.82,154,124,154l-4.37,0c-4.22,0-8.44-.07-12.67-.07-6.89,0-16.49,0-23.51.07h-.6a9.72,9.72,0,0,0-2.46.09,12,12,0,0,1-1.37.11l-1,0-.58,0c-3.45.09-5.35.07-7.75,0l-4.2,0c-2.21,0-7.73-.19-9.76-.46h-.52l-.82,0c-1.38,0-2.26,0-3.11,0s-1.45.05-2.45,0q-8.84-.05-17.68-.14l-6.53-.06-2.43,0c-2.06,0-4.2-.09-6.3-.07a8.5,8.5,0,0,0-2.14.39c-.28.08-.57.15-.85.22l-.21,0-.87.86,0,13.26q0,16.84-.09,33.68c0,1.08,0,2.16-.06,3.24l0,1.52v0c.2,1.77,1.26,2.67,3.17,2.68h.08c5.6-.06,11.48-.06,17.48,0,3.19,0,6.43.09,9.57.15l5.73.11,6.35-.22c1.15-.07,2.42,0,3.35,0,.46,0,.83,0,1,0,6.3-.15,12.71-.25,18.91-.35l5.53-.09h4.06c7.57,0,15.26.05,22.7.1H111c.42,0,.84,0,1.26.06s.82.06,1.24.06l2.66.05c2.58.05,5.25.11,7.89.07a4,4,0,0,0,3.2-1.23A4.07,4.07,0,0,0,127.8,204.88ZM84.43,155.6c12.58.13,27,.3,38.6.49,2,0,2,0,2.11,2.11.18,2.81.39,6.52.4,10.27,0,10.58.06,22,0,35.8,0,1.59,0,2.74-.34,3.09s-1.69.45-3.23.53c-2.87.15-5.81.12-8.66.1l-2.08,0c-8.83,0-16.56-.11-23.63-.2h-5.8l-10.55.06c-8.79.06-17.88.11-26.82.12-7.16,0-14.43-.08-21.47-.17l-3.18,0c-1.22,0-2.46-.1-3.67-.19l-1.67-.11c-1-.06-1.12-.44-1.09-1.12,0-.36,0-.72,0-1.08s0-.47,0-.71v-3.09q.08-20.14.17-40.28c0-1.2,0-2.2.12-3.2.23-2.39.33-2.48,2.7-2.55l1.32,0c1.22,0,2.44,0,3.64.09l.64,0c.7,0,1.4.07,2.09.12.91.06,1.85.13,2.79.14l4.34.06c12.37.17,25.16.34,37.74.44,2,0,4-.11,5.94-.23,1.19-.07,2.38-.15,3.58-.19.89,0,1.81,0,2.62.06C82.58,156,83.73,156,84.43,155.6Z"/><path class="cls-1" d="M344.66,61.54c-.06,8.23.4,16.45.65,24.68l-.41,87.9c.79,22.76,1.32,45.54,1.91,68.31,0,1.18,0,2.35,0,3.53-.19,6.57-1.4,8.39-7.92,8.75-14.25.79-28.52,1.33-42.78,1.53-15.31.21-30.62,0-45.93-.2-25.43-.33-50.87-.7-76.3-1.28-7.8-.18-8.77-1.48-9.39-9.16-.09-1.17-.21-2.34-.31-3.51,0-4.41,0-8.82-.05-13.22-.48-30.87-1.14-61.74-1.43-92.62-.33-35.87-.38-71.75-.44-107.63,0-5.72.69-11.44.78-17.17.07-4.58,2.33-6,6.71-6.07,29.45-.58,58.9-1.45,88.35-2,11-.19,25,1.78,35.29.42l5.42,2.39c2,2.28,3.52,2.95,4.53,4,9.75,10.64,19.42,21.36,29.12,32,2.28,2.51,4.69,4.91,6.94,7.44a45.36,45.36,0,0,1,2.77,3.8Z"/><path class="cls-3" d="M348.86,244.48c0-.28,0-.56-.05-.84-.85-21.84-1.35-33.72-2.13-55.56-.05-1.45.17-12.88.45-14.35l0,0,.79-46.5-1.54-41c.58-8.39,1.06-16.78,1.38-25.18.07-1.78-.73-3.6-1.12-5.4a32.31,32.31,0,0,0-2.26-3C334.76,42.59,325,32.58,315.46,22.3,312,18.52,309.35,14,306,10.07c-3.08-3.56-5.29-8.41-11.41-8-10.63.63-21.27,1.18-31.91,1.34-18.5.29-37,.33-55.5.34-13.15,0-26.31-.17-39.46-.37-5.19-.08-6.42.77-7,5.94a35.39,35.39,0,0,0,.12,5.45c.28,5.18.84,10.35.85,15.52,0,42.48-.06,85,0,127.43,0,31.39.43,62.78.35,94.17,0,5.54,6.54,5.89,8.68,5.88,14.16-.08,28.33-.89,42.46-.4,37.6,1.3,75.15.62,112.71-1,3.63.17,7.26.45,10.89.5C346.9,256.94,349.25,254.49,348.86,244.48ZM299.8,8.09c6.8,8.85,24.18,27,31.86,35.48,1.63,1.81,8,8.19,10.92,11.56a7.42,7.42,0,0,1,.9,1.3,7.65,7.65,0,0,1-2.25.5c-3.18,0-6.37-.12-9.55-.26-2-.09-4-.3-6-.45v.22c-7.7-.47-15.41-.87-23.1-1.45-4.31-.33-4.79-.86-5-5.22q-1-19.09-1.92-38.18a27.2,27.2,0,0,1,.47-4.31l-.33-1.64A6.54,6.54,0,0,1,299.8,8.09ZM345.75,245.2c-.19,6.51-1.41,7.52-7.81,7.88-14,.79-27.17,1.33-41.18,1.52-15,.21-30.9.78-45.94.58-25-.33-50-.69-75-1.27-7.67-.18-8.77-.49-9.38-8.1-.09-1.16,0-3.29-.15-4.45,0-4.36,0-8.73-.05-13.09-.47-30.57-1.12-61.14-1.4-91.71-.32-35.52-.37-71-.43-106.57,0-5.67.68-11.33.77-17,.07-4.54,2.29-5.92,6.59-6,28.93-.57,57.9-.85,86.84-1.35,9.32-.16,24.23.51,33.87,0,.06.47.12,1.11.15,2,.35,11.59.84,23.17,1.19,34.76.11,3.69,0,7.39-.08,11.08-.15,4.52.47,5.31,5,5.4,10.08.19,20.17.14,30.24.53,5.14.2,10.26.88,15.39,1.44,0,20.68-.54,113.24-.54,113.24.77,22.54,1.29,45.09,1.88,67.64C345.77,242.87,345.78,244,345.75,245.2Z"/><path class="cls-3" d="M231.35,42.89c0,3.31-1.48,5-4.85,5-11.16.06-22.32.09-33.48-.09-5.08-.08-9.71-5.43-9.5-10.43a5.93,5.93,0,0,1,6.1-5.33c3.28.3,6.57.63,9.87.69,7.16.13,14.32,0,21.48.18C226.87,33.05,231.42,37.6,231.35,42.89Zm-33-8.18c-3,.34-6-.44-8.92.06-2.6.43-3.36,1.7-2.94,4.23a7.58,7.58,0,0,0,7.5,6.76c3,.14,6,0,9,0,7.51,0,15,.11,22.54.05,3.27,0,4.2-1.3,3.54-4.38-.87-4.12-3.41-6.22-8.33-6.48C213.28,34.51,198.33,34.8,198.33,34.71Z"/><path class="cls-3" d="M237.51,158.42c-4.31-.1-8.64.57-13,.62-10.68.13-21.37.19-32.06.11-6,0-8.12-3.06-6.86-9.19,1.12-5.42,1.11-5.49,6.77-6.07a65.87,65.87,0,0,1,6.91-.07c1.84,0,3.67.13,5.5.11,17.34-.2,34.68-.58,52-.58,10.5,0,21,.61,31.5.91,3.87.11,7.25,1.28,9.54,4.55a6,6,0,0,1-2.53,9.19,19.47,19.47,0,0,1-6.81,1.27c-7.51.14-15,0-22.54,0C266,159.38,247,158.64,237.51,158.42ZM188,150.83c-.15,5.3.61,6.29,5.88,6.21,6.5-.1,13-.79,19.49-.82,19.71-.08,39.42,0,59.13.1,3.32,0,6.65.69,10,.66a54,54,0,0,0,10.87-.92c3.68-.79,4.6-4.35,1.69-6.73a13.1,13.1,0,0,0-7.16-2.89c-13.33-.63-26.69-.81-40-1.25-18.5-.61-37,.92-55.51-.06-.17,0-.33,0-.5,0-3.41.07-3.55.2-3.81,3.71C188,149.49,188,150.16,188,150.83Z"/><path class="cls-4" d="M188,150.83c0-.67,0-1.34,0-2,.26-3.51.41-3.64,3.81-3.71.17,0,.33,0,.5,0,18.5,1,37-.55,55.51.06,13.34.44,26.7.62,40,1.25a13.1,13.1,0,0,1,7.16,2.89c2.91,2.38,2,5.94-1.69,6.73a54,54,0,0,1-10.87.92c-3.32,0-6.64-.64-10-.66-19.71-.1-39.42-.18-59.13-.1-6.5,0-13,.72-19.49.82C188.64,157.12,187.88,156.13,188,150.83Z"/><path class="cls-3" d="M237.36,221.45c-4.31-.1-8.64.57-13,.62-10.68.13-21.37.19-32.06.11-6,0-8.12-3.06-6.86-9.19,1.12-5.42,1.11-5.49,6.77-6.07a65.87,65.87,0,0,1,6.91-.07c1.84,0,3.67.13,5.5.11,17.34-.2,34.68-.58,52-.58,10.5,0,21,.61,31.5.91,3.87.11,7.25,1.28,9.54,4.55A6,6,0,0,1,295.2,221a19.47,19.47,0,0,1-6.81,1.27c-7.51.14-15,0-22.54,0C265.85,222.41,246.85,221.67,237.36,221.45Zm-49.48-7.59c-.15,5.3.61,6.29,5.88,6.21,6.5-.1,13-.79,19.49-.82,19.71-.08,39.42,0,59.13.1,3.32,0,6.65.69,10,.66a54,54,0,0,0,10.87-.92c3.68-.79,4.6-4.35,1.69-6.73a13.1,13.1,0,0,0-7.16-2.89c-13.33-.63-26.69-.81-40-1.25-18.5-.61-37,.92-55.51-.06-.17,0-.33,0-.5,0-3.41.07-3.55.2-3.81,3.71C187.84,212.52,187.88,213.19,187.88,213.86Z"/><path class="cls-4" d="M187.88,213.86c0-.67,0-1.34,0-2,.26-3.51.41-3.64,3.81-3.71.17,0,.33,0,.5,0,18.5,1,37-.55,55.51.06,13.34.44,26.7.62,40,1.25a13.1,13.1,0,0,1,7.16,2.89c2.91,2.38,2,5.94-1.69,6.73a54,54,0,0,1-10.87.92c-3.32,0-6.64-.64-10-.66-19.71-.1-39.42-.18-59.13-.1-6.5,0-13,.72-19.49.82C188.49,220.15,187.73,219.16,187.88,213.86Z"/><path class="cls-1" d="M198.33,34.71c-3,.34-6-.44-8.92.06-2.6.43-3.36,1.7-2.94,4.23a7.58,7.58,0,0,0,7.5,6.76c3,.14,6,0,9,0,7.51,0,15,.11,22.54.05,3.27,0,4.2-1.3,3.54-4.38-.87-4.12-3.41-6.22-8.33-6.48C213.28,34.51,198.33,34.8,198.33,34.71Z"/><path class="cls-5" d="M207.69,94.24c-6,0-12,.15-18-.06-8.65-.3-5.94-24.07-6.3-29.38A7.48,7.48,0,0,1,189,56.94a13.33,13.33,0,0,1,3-.29c14.5-.29,20.81-.86,35.3-.75,9,.07,8.27.11,11.43.31,2.14.14,3.76,2,5.76,2.7,4.56,1.64,6.64,27.62,4.78,32-1,2.39-3.1,3-5.26,3.2C229,95.25,207.69,94.3,207.69,94.24Zm34.82-2c2.09-.11,4.1-.47,4.87-2.73S246,64.87,244.61,62.91c-1.79-2.46.78-4.87-11.89-4.92-15.12-.27-22.06.12-37.18.26-1.66,0-3.31.32-5,.48-2.7.26-4.18,1.89-4.78,4.39-1,4.07-1.12,28.73,3.09,29,3,.19,6-.07,9,0C215.17,92.44,234.71,92.72,242.51,92.29Z"/><path class="cls-6" d="M242.51,92.29c2.09-.11,4.1-.47,4.87-2.73S246,64.87,244.61,62.91c-1.79-2.46.78-4.79-11.89-4.92-15.12-.27-22.06.12-37.18.26-1.66,0-3.31.32-5,.48-2.7.26-4.18,1.89-4.78,4.39-1,4.07-1.12,28.73,3.09,29,3,.19,6-.07,9,0C215.17,92.44,234.71,92.72,242.51,92.29Z"/><path class="cls-2" d="M286.69,129.8c-20.17-.41-40.33-.78-60.5-1.26-5.82-.14-11.63-.74-17.46-.88a75.7,75.7,0,0,0-9.46.6c-5.56.57-10.26-.89-13.51-5.66-1.67-2.45-2.45-5.17-1-8s4-3.3,6.84-3.14c4,.22,7.9.76,11.85.81,5.48.06,11-.24,16.46-.32,3.32,0,6.65-.14,10,.08,5.64.37,11.26,1.14,16.91,1.39,3.47.15,7-.57,10.47-.52,5.33.07,10.65.7,16,.65,10.49-.09,21-.58,31.48-.66a13.11,13.11,0,0,1,6.59,1.63c4.74,2.86,3.63,11.68,1,13.89a7.76,7.76,0,0,1-4.56,1.39C300.71,129.91,293.7,129.82,286.69,129.8Zm-67.05-4c0-.22,31.66,1.24,47.49,1.76,13.52.44,27.06.25,40.59.27,1.09,0,2.58-.21,3.2-.92,2.06-2.36,1.84-5.37,1.07-8.1a5.3,5.3,0,0,0-5.25-3.93c-1.17,0-2.34,0-3.51,0-10.67.23-21.35.69-32,.65-11,0-22-.55-33-.87-1.33,0-2.66-.2-4-.21-6.3-.06-12.61-.06-18.91-.13-2.49,0-5-.21-7.47-.28-5.84-.16-11.68-.49-17.51-.38-3.43.07-4.81,2.77-3.56,6a8.93,8.93,0,0,0,8.85,6C203.6,125.76,211.62,125.74,219.64,125.76Z"/><path class="cls-7" d="M219.64,125.76c0-.22,31.66,1.24,47.49,1.76,13.52.44,27.06.25,40.59.27,1.09,0,2.58-.21,3.2-.92,2.06-2.36,1.84-5.37,1.07-8.1a5.3,5.3,0,0,0-5.25-3.93c-1.17,0-2.34,0-3.51,0-10.67.23-21.35.69-32,.65-11,0-22-.55-33-.87-1.33,0-2.66-.2-4-.21-6.3-.06-12.61-.06-18.91-.13-2.49,0-5-.21-7.47-.28-5.84-.16-11.68-.49-17.51-.38-3.43.07-4.81,2.77-3.56,6a8.93,8.93,0,0,0,8.85,6C203.6,125.76,211.62,125.74,219.64,125.76Z"/><path class="cls-3" d="M286.54,191c-20.17-.41-40.33-.78-60.5-1.26-5.82-.14-11.63-.74-17.46-.88a75.7,75.7,0,0,0-9.46.6c-5.56.57-10.26-.89-13.51-5.66-1.67-2.45-2.45-5.17-1-8s4-3.3,6.84-3.14c4,.22,7.9.76,11.85.81,5.48.06,11-.24,16.46-.32,3.32,0,6.65-.14,10,.08,5.64.37,11.26,1.14,16.91,1.39,3.47.15,7-.57,10.47-.52,5.33.07,10.65.7,16,.65,10.49-.09,21-.58,31.48-.66a13.11,13.11,0,0,1,6.59,1.63c4.74,2.86,3.63,11.68,1,13.89a7.76,7.76,0,0,1-4.56,1.39C300.56,191.08,293.55,191,286.54,191Zm-67.05-4c0-.22,31.66,1.24,47.49,1.76,13.52.44,27.06.25,40.59.27,1.09,0,2.58-.21,3.2-.92,2.06-2.36,1.84-5.37,1.07-8.1a5.3,5.3,0,0,0-5.25-3.93c-1.17,0-2.34,0-3.51,0-10.67.23-21.35.69-32,.65-11,0-22-.55-33-.87-1.33,0-2.66-.2-4-.21-6.3-.06-12.61-.06-18.91-.13-2.49,0-5-.21-7.47-.28-5.84-.16-11.68-.49-17.51-.38-3.43.07-4.81,2.77-3.56,6a8.93,8.93,0,0,0,8.85,6C203.45,186.93,211.47,186.91,219.49,186.93Z"/><path class="cls-1" d="M219.49,186.93c0-.22,31.66,1.24,47.49,1.76,13.52.44,27.06.25,40.59.27,1.09,0,2.58-.21,3.2-.92,2.06-2.36,1.84-5.37,1.07-8.1a5.3,5.3,0,0,0-5.25-3.93c-1.17,0-2.34,0-3.51,0-10.67.23-21.35.69-32,.65-11,0-22-.55-33-.87-1.33,0-2.66-.2-4-.21-6.3-.06-12.61-.06-18.91-.13-2.49,0-5-.21-7.47-.28-5.84-.16-11.68-.49-17.51-.38-3.43.07-4.81,2.77-3.56,6a8.93,8.93,0,0,0,8.85,6C203.45,186.93,211.47,186.91,219.49,186.93Z"/><path class="cls-4" d="M98.08,195.59l-2.16-1.33c-.33-.77-.62-1.56-1-2.3-2-3.77-2.84-7.45-.49-11.54a9.5,9.5,0,0,1,13.31-3.52,1.7,1.7,0,0,1,.53,1.42c-.33,1.86-.47,1.9-2.63,1.56l.05,0c-1-1.4-2.53-.78-3.78-.72-2.73.13-3.65,1.24-3.73,4a20.46,20.46,0,0,0,0,3c.46,3.86,2.37,6.08,5.88,5.69a16,16,0,0,1,3,0c1.54.12,1.9.85,1.14,2.25a13,13,0,0,1-1.09,1.48l0,0a4.63,4.63,0,0,0-1.48,0,8.62,8.62,0,0,1-6.1,0A4.88,4.88,0,0,0,98.08,195.59Z"/><path class="cls-2" d="M131.58,126.71c-2.79-.07-8.29,4.55-8.71,7.35a3.73,3.73,0,0,0,1,3c.63.48,2.15.2,3.05-.23s1.32-1.42,2-2.16l.84-.85c3.39-.61,5-2.77,4.05-5.71A2.84,2.84,0,0,0,131.58,126.71Z"/><path class="cls-2" d="M142.61,113.51a28.15,28.15,0,0,0-4.49,4.56c-1.55,2-1.28,4,.47,5.14,2,1.25,3.39.37,4.37-1.51l2.79-2.78c2.87-1.64,3.71-3.07,2.79-4.73C147.48,112.26,144.64,111.83,142.61,113.51Z"/><path class="cls-2" d="M117.23,140.69l-4.6,2.06c-.76,5,5.29,4.26,7,2S120.71,141.79,117.23,140.69Z"/><path class="cls-2" d="M172.91,114.65c-6-1.83-12-3.61-18-5.51-1.75-.55-2.06.21-1.92,1.64.26,3,.45,5.94.85,8.89a2,2,0,0,0,1.72,1c5.73-1.47,11.43-3.06,17.13-4.66a8.3,8.3,0,0,0,1.53-.79A14.34,14.34,0,0,0,172.91,114.65Z"/><path class="cls-2" d="M82.72,147c2,.91.9,5.72.92,11.82,0,.92-.65,8.32-.47,9.24.09,1.11.25,2.21.27,3.32q.32,17.24.59,34.47l0,2.54q.16,3,.32,5.93c.05.92,0,1.93-1.13,2s-1.47-1-1.44-2c0-2.14.12-4.28.17-6.41l0-1.68c-.18-10.18-.38-20.37-.55-30.55-.09-5.57-.11-11.14-.16-16.71l0-8.15a23,23,0,0,1-.14-3.06C81.26,146.9,81.64,146.14,82.72,147Z"/><path class="cls-2" d="M101.55,180a8.93,8.93,0,0,1,2.49.24c2.49.53,2.93.25,4-2.51.59-1.54-.06-2.83-1.83-3.64a6.24,6.24,0,0,0-2.21-.55c-1.69-.09-3.39-.08-5-.07a7.14,7.14,0,0,0-6.35,3.87,14.31,14.31,0,0,0-2.08,9.35c0,4.73,1.79,7.69,5.46,9a14.15,14.15,0,0,0,4.87,1,10.5,10.5,0,0,0,6.85-2.49l.13-.11,0-1.44c0-.93,0-1.86.05-2.79a1.24,1.24,0,0,0-.44-1.13,1.34,1.34,0,0,0-1.3,0l-.61.26a16.92,16.92,0,0,1-2.24.82,4.46,4.46,0,0,1-3.61-.3,4.52,4.52,0,0,1-1.81-3.19c-.09-.47-.16-.94-.23-1.41a4.36,4.36,0,0,1,.75-3.47A4.27,4.27,0,0,1,101.55,180Z"/><path class="cls-2" d="M71.8,175.58c-2.57-2.52-5.39-2.82-8.9-1-.38.21-.79.4-1,.31s-.18-.23-.19-.83c0-.83,0-1.65-.06-2.48,0-1.37-.09-2.79,0-4.2,0-.94,0-1.41-.24-1.71s-.75-.32-1.7-.33c-.79,0-1.6,0-2.37,0l-.74,0c-2.28,0-2.49.26-2.48,2.51q.06,12.18.14,24.35c0,1.67.12,2.61.68,3.12s1.48.53,3.11.4h.31a2.12,2.12,0,0,0,.94-.17,1.92,1.92,0,0,1,2.19.31,8.06,8.06,0,0,0,4.3,1.17,9.12,9.12,0,0,0,2-.22,7.59,7.59,0,0,0,4.9-3.44l0,0c.25-.85.55-1.7.85-2.53a21.51,21.51,0,0,0,1.48-5.82A11.83,11.83,0,0,0,71.8,175.58ZM56,168.95a2.46,2.46,0,0,1,1.43-2,2.4,2.4,0,0,1,2.39-.09,1.34,1.34,0,0,1,.26.88c.11,2.08.19,4.19.26,6.23l0,.65c0,.25,0,.5,0,.75a8.76,8.76,0,0,0,.06,1.41.9.9,0,0,0,.48.78,1,1,0,0,0,1-.31c3.68-2.91,5.56-3.1,9.12-.93,2.17,2,2.61,4.79,2.76,7a16.44,16.44,0,0,1-1.85,9c-.23.22-.45.45-.67.68a10.74,10.74,0,0,1-1.53,1.4c-2.59,1.81-5.2,1.71-8-.3a2.64,2.64,0,0,0-1.51-.66A2.4,2.4,0,0,0,59,194a2.08,2.08,0,0,1-2,.45c-.54-.27-.87-1-.91-2.11-.12-2.76-.11-5.57-.11-8.28V184C55.92,179.14,55.93,174,56,168.95Z"/><path class="cls-2" d="M65,192.52a4.8,4.8,0,0,0,.73-.06A3.82,3.82,0,0,0,69,189.4a24.23,24.23,0,0,0,.48-2.94c.05-.44.11-.87.17-1.31v0c0-.42-.08-.84-.11-1.26a14.91,14.91,0,0,0-.38-2.79,4.32,4.32,0,0,0-3.74-3.19,3.79,3.79,0,0,0-3.83,1.85c-1.67,2.36-1.71,8.28-.07,10.73A4.11,4.11,0,0,0,65,192.52Zm-1.86-12.67a2.52,2.52,0,0,1,1.8-.74,2.67,2.67,0,0,1,.51.05,2.91,2.91,0,0,1,2.11,1.78,11.16,11.16,0,0,1,.64,2.8c.06.45.13.92.22,1.38-.09.41-.17.84-.24,1.25a11.39,11.39,0,0,1-.72,2.76,2.72,2.72,0,0,1-2.08,1.71,3,3,0,0,1-2.65-1.18C60.85,187.4,61.08,181.91,63.15,179.85Z"/><path class="cls-1" d="M73.81,183.28c-.15-2.17-.59-4.92-2.76-7-3.56-2.17-5.44-2-9.12.93a1,1,0,0,1-1,.31.9.9,0,0,1-.48-.78,8.76,8.76,0,0,1-.06-1.41c0-.25,0-.5,0-.75l0-.65c-.08-2-.16-4.16-.26-6.23a1.34,1.34,0,0,0-.26-.88,2.4,2.4,0,0,0-2.39.09,2.46,2.46,0,0,0-1.43,2c-.08,5.06-.09,10.19-.09,15V184c0,2.72,0,5.53.11,8.28,0,1.09.37,1.84.91,2.11a2.08,2.08,0,0,0,2-.45,2.4,2.4,0,0,1,1.33-.51,2.64,2.64,0,0,1,1.51.66c2.76,2,5.36,2.11,8,.3a10.74,10.74,0,0,0,1.53-1.4c.22-.23.44-.46.67-.68A16.44,16.44,0,0,0,73.81,183.28Zm-4.17,1.87c-.06.44-.12.87-.17,1.31A24.23,24.23,0,0,1,69,189.4a3.82,3.82,0,0,1-3.25,3.07,4.8,4.8,0,0,1-.73.06,4.11,4.11,0,0,1-3.51-2.07c-1.63-2.46-1.59-8.38.07-10.73a3.79,3.79,0,0,1,3.83-1.85,4.32,4.32,0,0,1,3.74,3.19,14.91,14.91,0,0,1,.38,2.79c0,.42.06.84.11,1.26v0Z"/><path class="cls-2" d="M42.89,182.58l-.17-.27-.62-1.88c-.7-2.11-1.42-4.29-2.16-6.42-.09-.26-.55-1-.85-1s-.79.65-.89.95c-.64,1.74-1.26,3.53-1.86,5.25l-.58,1.65c-.11.27-.23.53-.35.79a11.88,11.88,0,0,0-.71,1.84,1.6,1.6,0,0,0,.19,1.43,1.55,1.55,0,0,0,1.28.52h0c2.48,0,4.37-.1,6.14-.21a1.26,1.26,0,0,0,1.13-.55,1.39,1.39,0,0,0-.16-1.37C43.18,183,43,182.81,42.89,182.58Zm-1.27.92c-.67.64-1.5.55-2.55.43a11.86,11.86,0,0,0-1.33-.1l-.57,0a.56.56,0,0,1-.51-.14c-.22-.24-.22-.82,0-1.7l.5-1.53c.46-1.41.94-2.87,1.44-4.29a1.88,1.88,0,0,1,.39-.56l.08-.09.08.1a2.32,2.32,0,0,1,.38.61A55.86,55.86,0,0,1,41.63,183.5Z"/><path class="cls-2" d="M52.3,193.92c-2.86-5.63-4.77-11.73-6.62-17.62-.35-1.11-.74-2.23-1.11-3.31s-.75-2.16-1.09-3.25a2.3,2.3,0,0,0-2.68-1.89,7.47,7.47,0,0,1-2,0c-1.5-.14-3-.28-3.87,1.39a63.22,63.22,0,0,0-2.82,8.66c-.08.24-.17.53-.2.6a1.06,1.06,0,0,0-.11.29q-2.28,5.92-4.54,11.86l-.61,1.6a8.25,8.25,0,0,1-.4.84c-.49.93-1,2-.12,2.84.49.46,1.44.37,2.34.28a9,9,0,0,1,1.12-.07l.2,0h.06c2.89-.31,3-.37,3.81-3.11l.1-.32c.31-1.05.57-2,1.88-2l5.7-.27,2.47-.12.41,1.39c.35,1.18.71,2.39,1,3.6a1.57,1.57,0,0,0,.66,1.06,1.26,1.26,0,0,0,.65.16,3.23,3.23,0,0,0,.82-.13l1,0c.76,0,1.54.06,2.31.06,1,0,1.7-.1,2-.54S52.74,194.78,52.3,193.92ZM48,195.12h0l-.54-.84c-.45-.7-.92-1.43-1.4-2.14a4.78,4.78,0,0,1-.52-1.18c-.3-.87-.64-1.85-1.89-2.16h-.05l-2.5.11c-2.06.09-4.2.18-6.3.2-.94,0-1.82.21-1.91,1.61a5.52,5.52,0,0,1-.22,1.13c-.68,2.41-1.45,3.05-3.82,3.05h-.26a1.08,1.08,0,0,1-.87-.29.92.92,0,0,1,0-.8c.46-1.47,1-2.93,1.45-4.28,1-2.81,2-5.77,3-8.62l.42-1.24,0-.07h0l.2-.64.16-.43c.32-.82.81-2.25,1.28-3.63.53-1.55,1.08-3.15,1.4-3.94l.12-.31c.33-.86.62-1.61,1.73-1.48a10.26,10.26,0,0,0,1.33,0c1.37,0,2.67,0,3.36,1.5,1,2.31,1.91,4.68,2.79,7.1s1.64,4.58,2.46,6.87c.9,2.54,1.83,5.17,2.77,7.74l.06.16c.42,1.16.68,1.86.5,2.12s-1,.31-2.27.38h-.06Z"/><path class="cls-1" d="M50.14,192.57l-.06-.16c-.94-2.57-1.87-5.2-2.77-7.74-.81-2.29-1.62-4.59-2.46-6.87s-1.76-4.78-2.79-7.1c-.69-1.54-2-1.52-3.36-1.5a10.26,10.26,0,0,1-1.33,0c-1.11-.12-1.4.62-1.73,1.48l-.12.31c-.32.79-.87,2.39-1.4,3.94-.47,1.38-1,2.81-1.28,3.63l-.16.43-.2.64h0l0,.07L32,180.91c-1,2.86-2,5.81-3,8.62-.48,1.35-1,2.81-1.45,4.28a.92.92,0,0,0,0,.8,1.08,1.08,0,0,0,.87.29h.26c2.37,0,3.15-.64,3.82-3.05a5.52,5.52,0,0,0,.22-1.13c.09-1.4,1-1.6,1.91-1.61,2.1,0,4.23-.11,6.3-.2l2.5-.11h.05c1.25.3,1.59,1.29,1.89,2.16a4.78,4.78,0,0,0,.52,1.18c.48.7,1,1.43,1.4,2.14l.54.84h0l.34,0h.06c1.3-.07,2.09-.1,2.27-.38S50.56,193.73,50.14,192.57Zm-6.64-7.91a1.26,1.26,0,0,1-1.13.55c-1.77.11-3.66.18-6.14.21h0a1.55,1.55,0,0,1-1.28-.52,1.6,1.6,0,0,1-.19-1.43,11.88,11.88,0,0,1,.71-1.84c.12-.26.24-.53.35-.79l.58-1.65c.6-1.72,1.22-3.51,1.86-5.25.11-.3.61-.95.89-.95s.76.75.85,1c.73,2.14,1.46,4.32,2.16,6.42l.62,1.88.17.27c.14.24.29.47.42.71A1.39,1.39,0,0,1,43.5,184.66Z"/><path class="cls-1" d="M96.74,181.43a8.66,8.66,0,0,0,.94,8c1.22,2,3.64,2.5,6.41,1.75s2.87-.78,2.95,2.29a10.7,10.7,0,0,1-10,1.26c-3.41-1.14-4.95-3-5.23-6.57-.1-1.27-.11-2.55-.16-3.82a12.79,12.79,0,0,1,2.08-6.25c2.79-4.6,8.69-4.16,12.13-2.45,1.12.56.79,1.41.53,2.25a1.41,1.41,0,0,1-2,1,6.79,6.79,0,0,0-6.13,1.05A4,4,0,0,0,96.74,181.43Z"/><path class="cls-5" d="M311.45,82.21a21.37,21.37,0,0,0,4.28.84h.17a36.33,36.33,0,0,0,4.49,0,3.16,3.16,0,0,0,2.69-3.17c0-1.6-.48-2.27-2.42-2.71a41.89,41.89,0,0,0-4.86-.78A6.09,6.09,0,0,0,310.85,78C309.16,79.59,309.32,81.42,311.45,82.21Z"/><path class="cls-5" d="M328.82,82.48a16.7,16.7,0,0,0,4.43.43c.55,0,1.1,0,1.65,0a11.57,11.57,0,0,0,2,.06,3.54,3.54,0,0,0,2.74-2.73c.07-1.38-1-1.82-2-2.26a11,11,0,0,0-8.35-.12,4,4,0,0,0-1.4.8A2.16,2.16,0,0,0,328.82,82.48Z"/><path class="cls-5" d="M293.46,81.3c1.08.84,7.92,1.95,9.09,1.45a5,5,0,0,0,1.05-.66c2-1.51,1.69-4-.64-4.86a36.54,36.54,0,0,0-4.29-1.08,1.17,1.17,0,0,0-.55,0,29.63,29.63,0,0,0-4.37,1.21C291.91,78.13,291.85,80,293.46,81.3Z"/><path class="cls-5" d="M375.43,107.33h0c1.93,2,3.43,2.2,5.49.92,1.18-.73,1.56-1.7.55-2.68-1.85-1.82-3.79-3.54-5.8-5.17a4.76,4.76,0,0,0-2.32-.63,1.82,1.82,0,0,0-2.26,1.31,3,3,0,0,0,.28,2.22C372.61,104.75,374.06,106,375.43,107.33Z"/><path class="cls-5" d="M277.62,82.64a28.41,28.41,0,0,0,4.33.32h.16a35.8,35.8,0,0,0,3.65-.39c1.73-.34,2-2,2-3.23,0-.72-1.28-2-2.09-2.06a46.75,46.75,0,0,0-7.39,0,3.21,3.21,0,0,0-1.72,1C274.86,79.86,275.4,82.13,277.62,82.64Z"/><path class="cls-5" d="M347.66,83.11c1.23,0,2.46,0,3.69,0l1.6.93c.84,1.51,1.93,1,2.87.09a3,3,0,0,0,.77-3.65c-1.64-2.24-7.31-3.44-9.83-2.07-.94.51-2.22,2.67-1.88,3.37A2.66,2.66,0,0,0,347.66,83.11Z"/><path class="cls-5" d="M364.94,96.05l2.1.34c1.2-.29,1.92-1.1,1.55-2.07-1.16-3-2.93-5.62-6.07-6.9-1.38-.56-2.29.21-3.11,1.31s-.17,1.81.47,2.51A23.29,23.29,0,0,0,364.94,96.05Z"/><path class="cls-5" d="M252.53,81.13a9.66,9.66,0,0,0,1.53.78l.2.07,3.75,1a1.19,1.19,0,0,1,.34.15,28,28,0,0,0,7.88,3.72c2.34.69,2.9.27,2.88-2.31,0-3.59-.19-7.19-.29-10.78l-1.4.66-.14.06-14.4,4.62a1.18,1.18,0,0,0-.38,2Z"/><path class="cls-1" d="M387.25,131.15c0,5.33-.07,10.65-.07,16,0,2.12,0,2,2,1.84a39.79,39.79,0,0,1,5.22-.14c3.07.11,6.14.46,9.21.48,16.44.13,32.88.17,49.32.27,1.12,0,2.23.27,3.35.29,3.18.07,6.36.09,9.55.12,1,0,1.32-.43,1.28-1.56C467,145,467,141.55,467,138.1c.06-4.48.3-9,.3-13.44,0-4.17-.33-8.34-.35-12.5,0-7.83.06-15.66.08-23.49,0-1.89,0-1.89-1.84-1.94-.62,0-1.23,0-1.85,0-9,.19-18.06.42-27.1.55-15.29.22-30.6-.5-45.89.43-2.57.16-2.43,0-2.43,2.66s0,5.22,0,7.83c0,3.76-.06,7.52-.13,11.28C387.69,116,387.38,129.17,387.25,131.15Z"/><path class="cls-1" d="M442.59,118.39a1.91,1.91,0,0,0-2.49-.07c-3,1.7-6,3.32-9,5a3.76,3.76,0,0,1-1.17.46l0,.06c-.26,0-.59.14-.76,0l-.2-.13a2.15,2.15,0,0,1-.34-.14,1.07,1.07,0,0,1-.33-.31c-2.43-1.6-8.28-5.49-9.26-6.35a49.09,49.09,0,0,0-9.56-6.72c-.59.7-1.83,2.12-1.88,2.17-3,3-6,6-9,9-2.7,2.6-5.49,5.1-8.22,7.66a8.5,8.5,0,0,0-.87,1.13l-.13-.1,0,17.81,75.43.19,0-14.36c-2.59-1.79-11.29-7.92-13.89-9.7C448.13,122.11,445.27,120.37,442.59,118.39Z"/><path class="cls-5" d="M467.2,134.41c-.48-.47-8.94-6.51-9.49-6.89-5.05-3.59-10.13-7.15-15.17-10.74a1.3,1.3,0,0,0-1.55-.09c-3.1,1.49-6.23,2.92-9.34,4.39a1.91,1.91,0,0,0-.63.57c-.91,1.17-1,1.31-1.85,1.23-2.73-2.12-10.72-7.86-13-9.54-1.76-1.3-3.62-2.45-5.46-3.64a6.79,6.79,0,0,0-1.21-.51l-.56.37.06.08c-.69.69-2.38,2.62-2.62,2.84l-15.45,14.74c-.41.39-3.32,2.57-3.76,2.93-.26.6-1.12,1.15-.13,1.83.29-.38,3-2.65,3.31-3,2.73-2.56,5.52-5.06,8.22-7.66,3.05-2.94,6-6,9-9,.05-.05,1.3-1.47,1.88-2.17a49.09,49.09,0,0,1,9.56,6.72c1,.86,6.84,4.75,9.26,6.35a1.07,1.07,0,0,0,.33.31,2.15,2.15,0,0,0,.34.14l.2.13c.17.11.5,0,.76,0l0-.06a3.76,3.76,0,0,0,1.17-.46c3-1.68,6-3.31,9-5a1.91,1.91,0,0,1,2.49.07c2.68,2,5.54,3.73,8.29,5.61,2.6,1.77,13.16,9.14,15.75,10.93a1.81,1.81,0,0,0,.77.15s.08-.13.12-.2A2.8,2.8,0,0,0,467.2,134.41Z"/><path class="cls-5" d="M385.93,143c0-5.28,0-1.84.08-15.84,0-.1,0-.19,0-.29.24-10.22.51-20.43.7-30.65,0-1.82-.26-3.65-.38-5.47a13.26,13.26,0,0,1,0-2.31c.14-1.26.82-1.79,2.11-1.91,6.06-.55,12.14-.41,18.22-.37,12.36.08,24.73,0,37.09-.09,6.95-.05,13.89-.29,20.84-.43a12,12,0,0,1,2,0A1.54,1.54,0,0,1,468,87.43c-.51,4.5.19,9-.1,13.52-.25,3.83-.14,31,0,40.74,0,1.34.29,2.68.36,4,.23,4.29-.39,4.94-4.61,4.92l-17.39-.15c-3.28,0-6.57,0-9.85,0l-8.16,0q-19.27,0-38.54-.09c-.39,0-.77,0-1.16,0a2.29,2.29,0,0,1-2.53-2.5C386,146.25,386,144.6,385.93,143Zm1.68-12.06c0,5.24-.07,10.48-.07,15.72,0,2.09,0,2,2,1.81a39.47,39.47,0,0,1,5.15-.14c3,.11,6.07.45,9.1.48,16.24.12,32.49.17,48.73.27,1.11,0,2.21.26,3.31.29,3.14.07,6.29.09,9.43.12,1,0,1.31-.43,1.27-1.54-.13-3.38-.11-6.78-.07-10.17.06-4.41.3-8.81.29-13.22,0-4.1-.33-8.2-.34-12.3,0-7.7.06-15.41.08-23.12,0-1.86,0-1.86-1.81-1.91-.61,0-1.22,0-1.83,0-8.92.18-17.85.42-26.77.54-15.11.21-30.23-.49-45.34.42-2.54.15-2.4,0-2.4,2.62s0,5.14,0,7.71c0,3.7-.06,7.4-.13,11.09C388,116,387.74,129,387.61,130.9Z"/><path class="cls-5" d="M435.44,105.26c.1,1.16-.76,1.8-1.5,2.3-2.87,2-6.31,2.38-8.65-.5a3.09,3.09,0,0,1-.89-2.33,6,6,0,0,0,0-1.15c-.39-3.71,1.28-5.34,5.46-6.37,3.1-.77,6.12,1.9,6.15,5.17,0,1,.46,2.11-.58,2.9,0-.72-1.27-.52-.95-1.75.84-3.19-1.41-5.56-4.73-5.22a5.3,5.3,0,0,0-4.47,3.55,4.65,4.65,0,0,0,.93,4.81c1.33,1.66,3.18,1.67,5.23,1.21C433.2,107.49,434,106,435.44,105.26Z"/><path class="cls-4" d="M435.44,105.26c-1.41.75-2.25,2.23-4,2.62-2,.46-3.9.44-5.23-1.21a4.65,4.65,0,0,1-.93-4.81,5.3,5.3,0,0,1,4.47-3.55c3.32-.34,5.58,2,4.73,5.22-.33,1.23.93,1,.95,1.75Z"/></svg>