<svg id="Layer_1" data-name="Layer 1" xmlns="http://www.w3.org/2000/svg" viewBox="0 0 480 260"><defs><style>.cls-1{fill:#fff;}.cls-2{fill:none;}.cls-3{fill:#3b3a3b;}.cls-4,.cls-6{fill:#f37e4e;}.cls-4,.cls-5{opacity:0.25;}.cls-7{fill:#ee5c23;}.cls-8{fill:#212221;}</style></defs><title>graphic-try-create</title><path class="cls-1" d="M446.54,172.46a17,17,0,0,1-3,1.22l-.11,5.16-4.15.53-1.4-5a17.17,17.17,0,0,1-3.18-.43L432,178.38l-3.86-1.62,1.27-5a17,17,0,0,1-2.54-2l-4.53,2.49-2.53-3.33,3.61-3.7a16.94,16.94,0,0,1-1.22-3l-5.16-.11-.53-4.15,5-1.4a17.2,17.2,0,0,1,.43-3.18l-4.42-2.68,1.62-3.86,5,1.27a17,17,0,0,1,2-2.54l-2.49-4.53,3.33-2.53,3.7,3.61a17,17,0,0,1,3-1.22l.11-5.16,4.15-.53,1.4,5a17.19,17.19,0,0,1,3.18.43l2.68-4.42,3.86,1.62-1.27,5a17,17,0,0,1,2.54,2l4.53-2.49,2.53,3.33-3.61,3.7a17,17,0,0,1,1.22,3l5.16.11.53,4.15-5,1.4a17.18,17.18,0,0,1-.43,3.18l4.42,2.68-1.62,3.86-5-1.27a17,17,0,0,1-2,2.54l2.49,4.53-3.33,2.53Z"/><path class="cls-2" d="M446.54,172.46a17,17,0,0,1-3,1.22l-.11,5.16-4.15.53-1.4-5a17.17,17.17,0,0,1-3.18-.43L432,178.38l-3.86-1.62,1.27-5a17,17,0,0,1-2.54-2l-4.53,2.49-2.53-3.33,3.61-3.7a16.94,16.94,0,0,1-1.22-3l-5.16-.11-.53-4.15,5-1.4a17.2,17.2,0,0,1,.43-3.18l-4.42-2.68,1.62-3.86,5,1.27a17,17,0,0,1,2-2.54l-2.49-4.53,3.33-2.53,3.7,3.61a17,17,0,0,1,3-1.22l.11-5.16,4.15-.53,1.4,5a17.19,17.19,0,0,1,3.18.43l2.68-4.42,3.86,1.62-1.27,5a17,17,0,0,1,2.54,2l4.53-2.49,2.53,3.33-3.61,3.7a17,17,0,0,1,1.22,3l5.16.11.53,4.15-5,1.4a17.18,17.18,0,0,1-.43,3.18l4.42,2.68-1.62,3.86-5-1.27a17,17,0,0,1-2,2.54l2.49,4.53-3.33,2.53Z"/><path class="cls-3" d="M461,152.49v-.12a.83.83,0,0,0-.8-.72l-4.6-.09a18.79,18.79,0,0,0-.81-2c.84-.84,1.68-1.68,2.54-2.49l.76-.72a.92.92,0,0,0,.11-1.2l0,0-2.44-3.4a1,1,0,0,0-1.33-.32l0,0q-1.94,1-3.86,2.06A16.91,16.91,0,0,0,449,142.4c.34-1.42.67-2.84,1-4.27l0-.08a.94.94,0,0,0-.6-1.08l-2.64-1-1.3-.47-.07,0a.75.75,0,0,0-.92.35q-1.14,2.09-2.32,4.15a18.93,18.93,0,0,0-2.42-.28l-1.31-4.59a.55.55,0,0,0-.59-.39l-4.15.49a.57.57,0,0,0-.51.55v0l-.19,4.68a18,18,0,0,0-2.14.81L428.65,139l-1-1.07a.87.87,0,0,0-1.13-.1l0,0-3.38,2.46a1,1,0,0,0-.28,1.23l0,0,2.07,3.91a17.84,17.84,0,0,0-1.14,1.43l-.68-.18-3.6-.91h0a1.1,1.1,0,0,0-1.29.65l-1.58,3.87v0a1.06,1.06,0,0,0,.44,1.31l1.58.94,2.23,1.34a18.33,18.33,0,0,0-.25,1.84l-2.37.67v0l-1.89.57h0a1,1,0,0,0-.73,1.14l.6,4.14v0a1,1,0,0,0,.95.82l4.56,0a18.15,18.15,0,0,0,.82,1.92l-3.17,3.3h0a.8.8,0,0,0-.06,1l.68.89,1.85,2.44a.8.8,0,0,0,1,.22l4-2.2a17.91,17.91,0,0,0,1.68,1.33l-1.17,4.44a.87.87,0,0,0,.5,1h0l3.84,1.65a.91.91,0,0,0,1.13-.36h0l2.36-3.82c.53.11,1.06.2,1.59.25l.36,0,1.19,4.32a1,1,0,0,0,1.09.73h0l4.15-.51a1,1,0,0,0,.9-1h0l.11-4.42a4.5,4.5,0,0,0,1.42-.74,2.18,2.18,0,0,0,.45-.55l.06-.13a5,5,0,0,0,.27.81,3.5,3.5,0,0,0,.57.84c.67.8,1.32,1.56,2,2.27a1.19,1.19,0,0,0,1.57.11h0l1-.73,2.34-1.83,0,0a1.16,1.16,0,0,0,.29-1.48l-2.19-3.85a18,18,0,0,0,1.1-1.47l4.3,1h0a1,1,0,0,0,1.1-.57l1.56-3.88v0a.89.89,0,0,0-.38-1.1l-3.78-2.22-.18-.11a18.58,18.58,0,0,0,.27-2.12l4.42-1.25a.82.82,0,0,0,.59-.89Zm-38.71,9.28h0Zm36.63,2.38-1.17,2.95L453.16,166h0a.43.43,0,0,0-.47.2,16.55,16.55,0,0,1-1.87,2.52h0a.37.37,0,0,0,0,.43l1.53,2.66.95,1.62-.56.42-2.38,1.71c-.76-.78-1.54-1.57-2.34-2.34a3,3,0,0,0-.82-.65c-.27-.09-.58-.09-.62.12,0,0,0,0,0,0a.64.64,0,0,1,0-.16c0-.12,0-.2,0-.26s-.27,0-.35-.06a2.13,2.13,0,0,0-.73.12c-.67.22-1.34.45-2,.65a.64.64,0,0,0-.45.6v.23l-.08,4.39-3.09.4-1.26-4.46a.61.61,0,0,0-.56-.44,16.63,16.63,0,0,1-3.07-.41.6.6,0,0,0-.64.27l-2.41,4-3-1.23.63-2.56.49-2h0a.51.51,0,0,0-.23-.56,16.41,16.41,0,0,1-2.47-1.9.51.51,0,0,0-.59-.07l-4.15,2.29-2-2.64,3.31-3.39a.5.5,0,0,0,.09-.58,16.59,16.59,0,0,1-1.07-2.53l-.11-.35h0l0,0-.5-.38h0l-3.84-.08h-.93c-.13-.79-.25-1.57-.33-2.36l-.08-1c1.05-.23,2.11-.45,3.15-.73l1.5-.41a.64.64,0,0,0,.47-.59h0a17.06,17.06,0,0,1,.42-3.06.64.64,0,0,0-.29-.69l-4-2.39.72-1.69.48-1.13,4.45,1.18a.7.7,0,0,0,.76-.29h0a16.19,16.19,0,0,1,1.91-2.41.73.73,0,0,0,.12-.84v0l-2.11-3.94,2.22-1.64,1.06,1.06,2.08,2.09a.91.91,0,0,0,1.05.17h0a15.92,15.92,0,0,1,2.83-1.1,1,1,0,0,0,.7-.88v0l.17-4.22,2.26-.25,1,3.9,0,.16a1.21,1.21,0,0,0,1.1.89h0a22.56,22.56,0,0,1,3,.32l.1,0a1.08,1.08,0,0,0,1.13-.54l1-1.82,1.12-1.94,2.35.94-.13.57-.8,3.68v.06a.72.72,0,0,0,.34.77,14.39,14.39,0,0,1,2.49,1.82h0a.65.65,0,0,0,.76.08c.66-.38,1.33-.74,2-1.09l2-1,1.63,2.28-3.17,3.12a.94.94,0,0,0-.18,1.09v0a17.49,17.49,0,0,1,1.14,2.81h0a1,1,0,0,0,.91.68c1.48,0,3,0,4.44,0,.15.91.29,1.82.42,2.73l-4.32,1.24h0a.73.73,0,0,0-.53.67,17.39,17.39,0,0,1-.39,3.05v0a.7.7,0,0,0,.33.75l.63.37Z"/><path class="cls-3" d="M422.26,161.77h0C422.2,161.73,422.23,161.75,422.26,161.77Z"/><path class="cls-3" d="M422.77,162.16Z"/><path class="cls-1" d="M221.56,108.21a46.15,46.15,0,0,1-8.09,3.32l-.3,14L201.87,127l-3.81-13.54a46.75,46.75,0,0,1-8.67-1.18l-7.29,12-10.5-4.4,3.47-13.62a46.15,46.15,0,0,1-6.91-5.36l-12.33,6.77-6.89-9.06,9.82-10.07a46.13,46.13,0,0,1-3.32-8.09l-14.05-.3L140,68.89l13.54-3.81a46.82,46.82,0,0,1,1.18-8.67l-12-7.29,4.4-10.5,13.62,3.47A46.2,46.2,0,0,1,166,35.19l-6.77-12.33L168.33,16l10.07,9.82a46.26,46.26,0,0,1,8.09-3.32l.3-14L198.09,7l3.81,13.54a46.79,46.79,0,0,1,8.67,1.18l7.29-12,10.5,4.4L224.89,27.7a46.2,46.2,0,0,1,6.91,5.37l12.33-6.77L251,35.36l-9.82,10.07a46.18,46.18,0,0,1,3.32,8.09l14,.3L260,65.11l-13.53,3.81a46.77,46.77,0,0,1-1.18,8.67l12,7.29-4.4,10.5-13.62-3.47a46.17,46.17,0,0,1-5.37,6.91l6.77,12.33L231.63,118Z"/><path class="cls-2" d="M221.56,108.21a46.15,46.15,0,0,1-8.09,3.32l-.3,14L201.87,127l-3.81-13.54a46.75,46.75,0,0,1-8.67-1.18l-7.29,12-10.5-4.4,3.47-13.62a46.15,46.15,0,0,1-6.91-5.36l-12.33,6.77-6.89-9.06,9.82-10.07a46.13,46.13,0,0,1-3.32-8.09l-14.05-.3L140,68.89l13.54-3.81a46.82,46.82,0,0,1,1.18-8.67l-12-7.29,4.4-10.5,13.62,3.47A46.2,46.2,0,0,1,166,35.19l-6.77-12.33L168.33,16l10.07,9.82a46.26,46.26,0,0,1,8.09-3.32l.3-14L198.09,7l3.81,13.54a46.79,46.79,0,0,1,8.67,1.18l7.29-12,10.5,4.4L224.89,27.7a46.2,46.2,0,0,1,6.91,5.37l12.33-6.77L251,35.36l-9.82,10.07a46.18,46.18,0,0,1,3.32,8.09l14,.3L260,65.11l-13.53,3.81a46.77,46.77,0,0,1-1.18,8.67l12,7.29-4.4,10.5-13.62-3.47a46.17,46.17,0,0,1-5.37,6.91l6.77,12.33L231.63,118Z"/><path class="cls-3" d="M155.47,79.58c-.13-.1-.07-.05,0,0h0Z"/><path class="cls-3" d="M260.09,53.94l0-.31a1.5,1.5,0,0,0-1.46-1.31l-13-.26A49.5,49.5,0,0,0,243,45.73q3.58-3.62,7.21-7.18l2-2a1.69,1.69,0,0,0,.18-2.2l0-.06-6.72-9.19a1.91,1.91,0,0,0-2.43-.56l-.06,0q-5.57,3-11.09,6a46.12,46.12,0,0,0-4.9-3.78q1.5-6.12,2.9-12.26l0-.1a1.74,1.74,0,0,0-1.07-2l-7.13-2.74-3.51-1.34-.09,0a1.4,1.4,0,0,0-1.71.62q-3.27,5.79-6.62,11.52a49.92,49.92,0,0,0-7.31-.9L199,6.72A1,1,0,0,0,198,6l-11.3,1.37a1,1,0,0,0-.92,1v0l-.45,13.16a48.14,48.14,0,0,0-6.6,2.58l-6.37-6.44-2.86-2.89a1.59,1.59,0,0,0-2.08-.16l0,0-9.16,6.76a1.76,1.76,0,0,0-.51,2.25l0,0,6,11.18a47.85,47.85,0,0,0-3.88,4.91l-2.47-.65-9.79-2.49h0a2,2,0,0,0-2.34,1.18l-4.33,10.53v0a1.93,1.93,0,0,0,.79,2.39l4.29,2.58,6.59,4a48.9,48.9,0,0,0-.85,6.26l-7.05,2,0-.06L139.44,67h0a1.89,1.89,0,0,0-1.34,2.08l1.57,11.28v0A1.76,1.76,0,0,0,141.36,82l12.93.12a48.31,48.31,0,0,0,2.63,6.21l-9,9.33h0a1.45,1.45,0,0,0-.11,1.88l1.86,2.43,5,6.63a1.45,1.45,0,0,0,1.85.39L168,102.75a47.94,47.94,0,0,0,5.38,4.22l-3.27,12.56a1.59,1.59,0,0,0,.92,1.87h0l10.47,4.47a1.66,1.66,0,0,0,2.06-.66v0l6.71-10.94a48.35,48.35,0,0,0,4.84.79c.53.06,1.06.08,1.6.12l3.43,12.35a1.83,1.83,0,0,0,2,1.32h0l11.3-1.41a1.85,1.85,0,0,0,1.62-1.8h0l.29-12.7.26-.08a16.54,16.54,0,0,0,4.21-2,7.2,7.2,0,0,0,1.33-1.24c.17-.22.38-.45.29-.58a1.62,1.62,0,0,1,.09-.52c.06-.22.08-.36-.08-.45a.77.77,0,0,0-.37-.06l-.46,0a8.67,8.67,0,0,0-1.93.51c-1.81.68-3.66,1.32-5.52,1.88a1.16,1.16,0,0,0-.82,1.08v.62l-.24,12.45-9.37,1.2-3.57-12.6a1.1,1.1,0,0,0-1-.8,45.77,45.77,0,0,1-8.47-1.14h0a1.08,1.08,0,0,0-1.16.49L181.68,123l-8.89-3.69,1.85-7.4,1.35-5.39h0a.93.93,0,0,0-.41-1,45.28,45.28,0,0,1-6.78-5.24.92.92,0,0,0-1.07-.14l-11.64,6.41-5.94-7.82,9.28-9.5a.91.91,0,0,0,.15-1.06,45.6,45.6,0,0,1-2.95-7l-.3-1v0h0c.29.22.21.16,0,0a.35.35,0,1,0,.22-.63l-1.07,0h0L145,79.36h-2.88c-.34-2.27-.67-4.53-.93-6.8-.11-1-.21-2-.31-3,3-.71,5.92-1.4,8.85-2.2l4.08-1.13a1.16,1.16,0,0,0,.85-1.07h0a46.56,46.56,0,0,1,1.15-8.45,1.17,1.17,0,0,0-.53-1.26l-11.19-6.76,2.14-5.07L147.75,40l12.61,3.29a1.27,1.27,0,0,0,1.38-.54h0A44.79,44.79,0,0,1,167,36.1a1.33,1.33,0,0,0,.21-1.54v0l-6.08-11.27L168.19,18l3.35,3.33L177.23,27a1.66,1.66,0,0,0,1.92.3l0,0A44.33,44.33,0,0,1,187,24.17a1.75,1.75,0,0,0,1.26-1.62v0l.41-12.34,7.86-.91,3.09,11.43.12.44a2.2,2.2,0,0,0,2,1.61h0a55.06,55.06,0,0,1,8.29,1l.11,0a2,2,0,0,0,2.12-1l2.82-4.93,3.47-5.91,7.78,3.15-.55,2.28-2.3,10,0,.07a1.33,1.33,0,0,0,.61,1.44A41.39,41.39,0,0,1,231,33.94l0,0a1.19,1.19,0,0,0,1.39.16q2.71-1.52,5.46-3l5.89-3.1L249,35.2l-9,9a1.72,1.72,0,0,0-.31,2l0,0A47.07,47.07,0,0,1,242.82,54h0a1.77,1.77,0,0,0,1.66,1.25q6.36.12,12.73.11.67,4.35,1.26,8.72l-12.36,3.52h0a1.33,1.33,0,0,0-1,1.22A47.13,47.13,0,0,1,244,77.29v0a1.28,1.28,0,0,0,.59,1.37l1.7,1,9.58,5.65-3.59,8.86-12.82-3.09h0a.79.79,0,0,0-.86.36,45.44,45.44,0,0,1-5.19,6.87h0a.68.68,0,0,0-.09.79l4.11,7.26,2.64,4.61c-.56.43-1.13.87-1.71,1.29l-6.67,4.89c-2.12-2.14-4.28-4.29-6.47-6.42a12.32,12.32,0,0,0-2.16-1.83c-.68-.36-1.51-.59-1.57-.22a6.59,6.59,0,0,0,1,2.38,13.37,13.37,0,0,0,1.7,2.17c2,2.19,3.91,4.31,5.95,6.34a2.18,2.18,0,0,0,2.86.19l0,0,2.62-2,6.4-5,0,0a2.11,2.11,0,0,0,.55-2.71l-6.21-11a48.1,48.1,0,0,0,3.79-5l12.32,3h0a1.74,1.74,0,0,0,2-1l4.3-10.54v0a1.63,1.63,0,0,0-.68-2l-10.26-6.1-.91-.54a49.36,49.36,0,0,0,.89-6.76l12.52-3.52a1.49,1.49,0,0,0,1.07-1.62Z"/><path class="cls-1" d="M361.15,143.75a28.88,28.88,0,0,1-4.83,2.58l.71,8.76-6.94,1.61-3.23-8.18a29.25,29.25,0,0,1-5.47-.18l-3.77,7.95-6.82-2.07,1.29-8.7a28.87,28.87,0,0,1-4.64-2.9l-7.24,5-4.87-5.2,5.47-6.89a28.86,28.86,0,0,1-2.58-4.83l-8.77.71-1.61-6.94,8.19-3.23a29.29,29.29,0,0,1,.18-5.47L308.28,112l2.07-6.82,8.7,1.29a28.91,28.91,0,0,1,2.9-4.64l-5-7.24,5.2-4.87L329,95.19a29,29,0,0,1,4.83-2.58l-.71-8.76,6.94-1.61,3.23,8.18a29.28,29.28,0,0,1,5.47.18l3.77-7.95,6.82,2.07-1.29,8.7a28.91,28.91,0,0,1,4.64,2.9l7.24-5,4.87,5.2-5.47,6.89a28.89,28.89,0,0,1,2.58,4.83l8.76-.71,1.61,6.94-8.18,3.23a29.27,29.27,0,0,1-.18,5.47l7.95,3.77-2.07,6.82-8.7-1.29a28.89,28.89,0,0,1-2.9,4.64l5,7.24L368,149.23Z"/><path class="cls-2" d="M361.15,143.75a28.88,28.88,0,0,1-4.83,2.58l.71,8.76-6.94,1.61-3.23-8.18a29.25,29.25,0,0,1-5.47-.18l-3.77,7.95-6.82-2.07,1.29-8.7a28.87,28.87,0,0,1-4.64-2.9l-7.24,5-4.87-5.2,5.47-6.89a28.86,28.86,0,0,1-2.58-4.83l-8.77.71-1.61-6.94,8.19-3.23a29.29,29.29,0,0,1,.18-5.47L308.28,112l2.07-6.82,8.7,1.29a28.91,28.91,0,0,1,2.9-4.64l-5-7.24,5.2-4.87L329,95.19a29,29,0,0,1,4.83-2.58l-.71-8.76,6.94-1.61,3.23,8.18a29.28,29.28,0,0,1,5.47.18l3.77-7.95,6.82,2.07-1.29,8.7a28.91,28.91,0,0,1,4.64,2.9l7.24-5,4.87,5.2-5.47,6.89a28.89,28.89,0,0,1,2.58,4.83l8.76-.71,1.61,6.94-8.18,3.23a29.27,29.27,0,0,1-.18,5.47l7.95,3.77-2.07,6.82-8.7-1.29a28.89,28.89,0,0,1-2.9,4.64l5,7.24L368,149.23Z"/><path class="cls-3" d="M382.58,125.55l-6.79-3.11-.3-.14a31.7,31.7,0,0,0,.1-3.66l7.26-2.87a1.4,1.4,0,0,0,.85-1.61l-1.55-6.75,0-.19a1.41,1.41,0,0,0-1.49-1.09l-7.78.64a32,32,0,0,0-1.72-3.24c1.27-1.56,2.55-3.12,3.86-4.65l1.16-1.35a1.56,1.56,0,0,0,0-2l-.07-.08-4.72-5.34a1.77,1.77,0,0,0-2.3-.31l-.08,0q-3.1,2-6.16,4.14a28.89,28.89,0,0,0-2.62-1.62c.33-2.45.63-4.91.9-7.37l0-.14a1.6,1.6,0,0,0-1.2-1.73l-4.63-1.18L353,81.35l-.13,0a1.29,1.29,0,0,0-1.5.75q-1.56,3.73-3.21,7.42a32.26,32.26,0,0,0-4.17-.06q-1.53-3.76-3-7.54a.92.92,0,0,0-1.05-.56h0l-7,1.55a1,1,0,0,0-.76,1v0l.49,7.94a30.69,30.69,0,0,0-3.5,1.76l-4.12-3.46-1.95-1.63a1.48,1.48,0,0,0-1.94,0l-.05,0-5.31,4.75a1.64,1.64,0,0,0-.27,2.13l0,.05,4.17,6.23a30.46,30.46,0,0,0-1.7,2.64l-1.15-.18c-2.08-.33-4.17-.63-6.25-.93h0a1.87,1.87,0,0,0-2.06,1.33l-2,6.84v0a1.81,1.81,0,0,0,1,2.15l2.84,1.33,4,1.88a31.26,31.26,0,0,0-.11,3.19l-3.87,1.53,0-.05-3.11,1.29-.06,0a1.76,1.76,0,0,0-1,2.06l1.74,6.91v.06a1.64,1.64,0,0,0,1.75,1.23l7.71-.76a30.92,30.92,0,0,0,1.74,3.13l-4.78,6.12h0a1.36,1.36,0,0,0,.08,1.76l1.31,1.4,3.56,3.81a1.36,1.36,0,0,0,1.76.19h0l6.44-4.41a30.55,30.55,0,0,0,3.1,2l-1.21,7.7a1.49,1.49,0,0,0,1,1.65h0l6.8,2.14A1.55,1.55,0,0,0,339,157v0l3.33-6.87c.91.09,1.82.15,2.74.15h.62l2.77,7.11a1.71,1.71,0,0,0,2,1h0l6.95-1.59a1.74,1.74,0,0,0,1.35-1.83h0l-.59-7.52a7.66,7.66,0,0,0,2.28-1.5,3.71,3.71,0,0,0,.67-1c0-.08.06-.15.09-.22a8.5,8.5,0,0,0,.59,1.32,6,6,0,0,0,1.11,1.32c1.28,1.24,2.51,2.42,3.83,3.5a2,2,0,0,0,2.66-.06l0,0q.76-.69,1.51-1.4l3.65-3.51,0,0a2,2,0,0,0,.24-2.57l-4.35-6.11a30.74,30.74,0,0,0,1.62-2.7l7.44,1h0a1.62,1.62,0,0,0,1.77-1.16l2-6.85v0A1.52,1.52,0,0,0,382.58,125.55Zm-64,4.57.4.24Zm51.85,2a28.19,28.19,0,0,1-2.74,4.59l0,0a.63.63,0,0,0,0,.74l3.05,4.24,1.89,2.58c-.29.28-.58.55-.88.82L368,148.43c-1.43-1.19-2.89-2.39-4.37-3.56a5.09,5.09,0,0,0-1.5-1c-.47-.11-1,0-1,.32,0,0,0,0,0,.06a1.08,1.08,0,0,1,0-.27c0-.2,0-.34-.09-.43s-.46,0-.61,0a3.62,3.62,0,0,0-1.22.34c-1.09.49-2.19,1-3.3,1.45a1.09,1.09,0,0,0-.66,1.09l0,.39.62,7.46-5.16,1.21-2.91-7.33h0a1,1,0,0,0-1-.64,28.33,28.33,0,0,1-5.28-.16h0a1,1,0,0,0-1,.57l-3.38,7.2-5.24-1.56.63-4.45.49-3.44h0a.87.87,0,0,0-.48-.9,27.94,27.94,0,0,1-4.51-2.8.86.86,0,0,0-1,0l-6.64,4.59-3.86-4.13,5-6.31a.86.86,0,0,0,0-1,28.26,28.26,0,0,1-2.25-4.1l-.25-.57h0l-.86-.52h0l-6.54.54-1.58.18c-.35-1.31-.69-2.62-1-3.94-.11-.54-.21-1.08-.31-1.62,1.74-.58,3.49-1.13,5.2-1.79l2.47-1a1.09,1.09,0,0,0,.69-1.07h0a29.07,29.07,0,0,1,.18-5.27,1.1,1.1,0,0,0-.61-1.12l-7.12-3.36.93-3,.63-2,7.74,1.23a1.19,1.19,0,0,0,1.24-.63v0a27.58,27.58,0,0,1,2.83-4.41,1.24,1.24,0,0,0,.05-1.45l0,0-4.25-6.32,3.47-3.16,2,1.61,3.89,3.18a1.55,1.55,0,0,0,1.81.11l0,0a27.13,27.13,0,0,1,4.6-2.36,1.63,1.63,0,0,0,1-1.62v-.06l-.45-7.17,3.78-.81,2.43,6.42.1.26a2.06,2.06,0,0,0,2,1.32h0a38.43,38.43,0,0,1,5.1,0h.16a1.84,1.84,0,0,0,1.83-1.1l1.4-3.26,1.57-3.48,4.15,1.18-.13,1c-.27,2.12-.49,4.25-.73,6.37v.1a1.22,1.22,0,0,0,.71,1.24,24.51,24.51,0,0,1,4.53,2.65l0,0a1.11,1.11,0,0,0,1.3,0c1.06-.75,2.13-1.49,3.21-2.2L369.77,93l3.16,3.57c-1.62,1.94-3.24,3.88-4.83,5.84a1.61,1.61,0,0,0-.1,1.89l0,0a29.8,29.8,0,0,1,2.41,4.56h0a1.66,1.66,0,0,0,1.66,1q3.76-.32,7.52-.75c.41,1.51.8,3,1.18,4.55l-7.1,2.85h0a1.24,1.24,0,0,0-.78,1.23,29.63,29.63,0,0,1-.14,5.24v0a1.19,1.19,0,0,0,.69,1.22l1.12.51,6.07,2.75-1.48,5.2-7.91-1h0A.74.74,0,0,0,370.47,132.14Z"/><path class="cls-3" d="M318.16,129.84h0C318,129.76,318.1,129.8,318.16,129.84Z"/><path class="cls-1" d="M51.64,97.35c0-2,.91-4.23,3.35-4.54a74.89,74.89,0,0,1,15.43-.27c3.86,0,29.94-.18,45.8-.73,4.94,0,27.34,1.06,35.25,1.24,13.35.31,26.8-1.09,40.08-.55,12,.79,70.2.55,74,.38a39,39,0,0,1,6.7.57,4.47,4.47,0,0,1,4.26,4.44c.16,3.32,0,6.65-.08,10,0,2.67-.29,5.35-.16,8,.15,2.85.11,7.18.05,10-.24,11.19.08,20.9-.2,32.09,0,.78.27,4.88.27,4.88s-.24,44.85-.24,47.2h0a21.63,21.63,0,0,0,.22,6.34c.67,2.85-.7,3-2.77,3-4.18,0-8.35.1-12.53,0-11.35-.19-22.71,0-34.07.07-1.07.65-110.65,1.42-122.66.93-8.11-.33-47.65-.71-50.77-1.23-.45-.41-1.28-.79-1.3-1.22-.47-9.14-.19-35.91-.23-40.14-.14-13.43-.72-26.86-.81-40.3S51.38,110.75,51.64,97.35Z"/><path class="cls-4" d="M222.12,220.09c0-.87-.08-4.75,0-5.61.23-4.71.6-27.4.25-34-1-18.53.27-37.15-.81-55.68,0-4.57.31-9.45,0-14.36,0-1.55,1.32-3.51,2.58-3.51,3.25,0,1.11,0,3.61,0s13.43,0,16.41.14c4.77.19,9.55,0,14.32.11,3.88.06,4,.12,4,4,0,15.41,0,93.71,0,109.11Z"/><g class="cls-5"><path class="cls-6" d="M219.55,220.19l-.09,0c0-24.06-.24-47.89-.24-72.16-.35-11-.35-36.58-.68-38.06-.36-1.64.27-2.55-.95-3.07h-3.82c-3.23-.07-16.13.08-20.84.18-6.07.12-34-.06-41.88,0-8.24.07-16.49,0-24.74,0H78.14c-1.09,0-2.17,0-3.25,0-6.09.07-5.36,2.61-5.36,7.35,0,3.29.11,5.08.17,7.63.14,5.42.34,46.77-.17,62.06-.38,11.2.48,24.07.5,35.29Z"/></g><path class="cls-1" d="M201.29,214.27c-.13-16.26-.06-32.53-.12-48.79,0-1.7-1-20.18-.93-27.73,0-3.18-.76-9-.41-12.22.26-2.32-1-2.93-3.09-3-7.53-.07-13.56.49-21.11-.22-11.07,0-21.37.45-32.35.6-16.46.22-33-.22-49.43-.24-6.29,0-5.94-.44-5.94,6,0,21.25.14,42.51,0,63.76-.06,8.39-.66,19.3-1.07,27.68l53.87.84,61.19-1.17Z"/><path class="cls-7" d="M201,220.09c-.43-1.93.29-3.25.27-5.81-.13-16.26-.06-32.53-.12-48.79,0-1.7-1-20.18-.93-27.73,0-3.18-.76-9-.41-12.22.26-2.32-1-2.93-3.09-3-7.53-.07-13.56.49-21.11-.22-11.07,0-21.37.45-32.35.6-16.46.22-33-.22-49.43-.24-6.29,0-5.94-.44-5.94,6,0,21.25.14,42.51,0,63.76-.06,8.39-.66,19.3-1.07,27.68h-2.7c2.46-30.21.83-63,1.26-93.26.07-4.8-.23-5.87,4.15-6.46,14.49-1,31.46-.33,46.76-.26,14,.06,27.57-.74,42-.46,7.1.61,14.11.13,21.2.19,2.22,0,3,.86,3,3.08-.05,10.39.38,21.11.75,32.07.88,19.9,0,40.2.53,59.4C203.93,218.4,204.19,220.65,201,220.09Z"/><path class="cls-7" d="M265,150.16c.15-6.94.21-13.89,0-20.83-.23-7.09,0-14.65-.42-21.73-.14-2.37-2.26-3-4.55-3.13-1.73-.07-3.48.05-5.21,0-7.31-.38-28.67-.06-30.13,0-19.89.53-38.72-.91-54.89-.16-6.11.61-17.21.31-23.43.26q-32.55-.22-65.09,0a61.57,61.57,0,0,0-12,.93,4.09,4.09,0,0,0-2.65,3.7c0,1.22-.05,3.46,0,4.76.41,10.55.72,54,.51,65.74s.36,23.47,0,35.12a19.4,19.4,0,0,0,.28,5.08c.36.09,2.05.26,2.56-.46,0-11.22-.88-24.09-.5-35.29.52-15.29.31-56.64.17-62.06-.07-2.55-.17-4.34-.17-7.63,0-4.74-.73-7.28,5.36-7.35,1.08,0,2.17,0,3.25,0h48.17c8.25,0,16.49.06,24.74,0,7.89-.07,35.81.11,41.88,0,4.71-.1,17.62-.25,20.84-.18h3.82c1.22.52.59,1.43.95,3.07.33,1.48.32,27.09.68,38.06,0,24.27.24,48.11.24,72.16.77.3,2.66,1.8,2.66-.07,0-.87-.08-4.75,0-5.61.23-4.71.6-27.4.25-34-1-18.53.27-37.15-.81-55.68,0-4.57.31-9.45,0-14.36,0-1.55,1.32-3.51,2.58-3.51,3.25,0,1.11,0,3.61,0s13.43,0,16.41.14c4.77.19,9.55,0,14.32.11,3.88.06,4,.12,4,4,0,15.41,0,93.71,0,109.11,0,1.25,1.58-.29,2.7.83C265.52,221.4,264.93,152.69,265,150.16Z"/><path class="cls-7" d="M154.28,212.31c-6.27-.74-11,.32-16.53.12-12.51-.46-38-1.44-38.18-1.47-3.71-.47-5.38-2.21-5.08-5.26.43-4.36,1.73-6.85,7.1-6.66,5.58.33,17.57-.33,19.08-.34,6.08,0,12.21-.67,18.22.08,17.56,1.27,34.14.06,51.21.39,3.12.06,4.52,1.21,4.52,4.88-.33,4.53-1,7.93-3.25,8.34s-11.73.1-14.12.1C177.22,212.68,155.6,212.46,154.28,212.31Zm-31.82-10.57c-6.28,0-12.55.1-18.83.1-4.28,0-6.67,1.1-7.08,2.17-.67,1.75-.36,3.27,1.06,3.68a22.81,22.81,0,0,0,2.62.8c7.52.17,12.56-.26,21.9.78,1.86.21,11.53.37,13.21.36,10.39-.1,18.24,0,28.63,0,1.08,0,17.92,0,23.46,0,2.09,0,3.59,0,4.66-2.07,1-1.9-.11-4.55-.54-5.13-.31-.42-2.86-.83-3.5-.84-16.82-.18-31.78,1.16-50.68.28C132.47,201.22,127.45,201.74,122.47,201.74Z"/><path class="cls-7" d="M106,144.69c-1.12,0-2.24,0-3.36,0-3.06-.16-5.72-2-6-4.09-.35-2.34,2.15-6.43,4.45-7.21A6.75,6.75,0,0,1,103,133c14.27-.39,28.49-2.14,42.79-1.24,4.42.28,8.83.71,13.22,1.29,2.15.28,4.65.76,4.88,3.49.36,4.32.18,6.06-3,7a25.84,25.84,0,0,1-6.44,1.16C145.88,144.77,113.61,144.69,106,144.69Zm24.12-2.61c8.28,0,16.57.05,24.85,0a10.76,10.76,0,0,0,5-1,5,5,0,0,0,2-3.58c0-.55-1.95-1.67-3.11-1.81a150.77,150.77,0,0,0-15.21-1.3c-11.64-.19-23.29-.14-34.93,0-1.92,0-5.35.46-6.93,1.42a4.78,4.78,0,0,0-2.12,4.2c.19,2.29,2.86,2.13,4.91,2.13Q117.34,142.06,130.1,142.08Z"/><path class="cls-7" d="M177.31,175.92c4,0,8.07-.11,12.09,0,3.11.11,3.87,1,4.13,3.91.1,1.07,0,2.16,0,3.24.08,2.44-.65,4.21-3.52,4.59-2.39.32-4.75,1-7.15,1.15-4.47.2-9,.26-13.43.05-4.86-.23-10,.19-14.79-.38-2.47-.29-3.71-2.88-4.14-5.2s.45-5.31,3.11-5.86c4.5-.93,9-.93,13.59-1.44a91.36,91.36,0,0,1,10.07-.07Zm-4.91,10.42h12.1a19.15,19.15,0,0,0,3.35-.12c2.37-.43,3.06-1.86,3-5,0-2.46-1.45-2.82-3.47-2.73-10,.44-20.78-1.69-30.72.55-2.17.49-3.4,1.53-3.43,4,0,2.61,2.55,2.65,4.35,3.21a11.76,11.76,0,0,0,3.34.1Z"/><path class="cls-7" d="M190.42,156.44c3.3.61,3.13,3.1,3.17,5.53s-.29,4.38-3.19,4.82-5.79.07-9.07-.08c-7.32,0-14.16.41-21.24.12-1.11,0-2.23,0-3.35,0-4-.18-4.81-.9-5-4.42-.19-4,.77-5.26,4.36-5.94a5.23,5.23,0,0,1,.67-.05L180,155.09A99.66,99.66,0,0,1,190.42,156.44Zm-1.45,8a2.25,2.25,0,0,0,1.82-3,3.77,3.77,0,0,0-1.6-2.43,13.55,13.55,0,0,0-5.07-1.25c-7.18-.13-14.38-.18-21.56,0a17.88,17.88,0,0,0-6.78,1.25c-.89.43-1.1,2.56-1.1,3.65,0,1.84,1.83,1.46,3.09,1.52C166.24,164.61,187.06,164.87,189,164.41Z"/><path class="cls-7" d="M144.13,177.11a21.14,21.14,0,0,0,0-3.86c-.44-5.52-.46-10.91-.46-16.62,0-1.87-.64-2.41-1.88-2.71a12.33,12.33,0,0,0-3.35-.12l-35,0a12.3,12.3,0,0,0-4,.22c-.66.24-2.35,0-2.6,1.06l.1,2s0,1.29,0,1.3c-.15,9.09-.28,16.91-.32,26,0,2,1.39,4.51,3.42,4.68,5.76.47,11.51-.47,17.28-.09,8.23.55,15.87-.34,24,.06,1.61.08,3.05-2.24,2.91-3.88A26.41,26.41,0,0,1,144.13,177.11ZM141,183.34c0,2.21-.84,3-3.14,3q-17.78-.09-35.55,0c-2.29,0-3.07-.81-3.16-3-.33-8.85-.18-17.24-.6-26.08l.09-1.37c13.13,0,27,.54,40.08.48,2.41,0,2.69.5,2.47,3.22-.35,4.25.1,8.31.1,12.78C141.31,176.26,140.95,179.67,141,183.34Z"/><path class="cls-1" d="M130.1,142.08c8.28,0,16.57.05,24.85,0a10.76,10.76,0,0,0,5-1,5,5,0,0,0,2-3.58c0-.55-1.95-1.67-3.11-1.81a150.77,150.77,0,0,0-15.21-1.3c-11.64-.19-23.29-.14-34.93,0-1.92,0-5.35.46-6.93,1.42a4.78,4.78,0,0,0-2.12,4.2c.19,2.29,2.86,2.13,4.91,2.13Q117.34,142.06,130.1,142.08Z"/><path class="cls-1" d="M189,164.41a2.25,2.25,0,0,0,1.82-3,3.77,3.77,0,0,0-1.6-2.43,13.55,13.55,0,0,0-5.07-1.25c-7.18-.13-14.38-.18-21.56,0a17.88,17.88,0,0,0-6.78,1.25c-.89.43-1.1,2.56-1.1,3.65,0,1.84,1.83,1.46,3.09,1.52C166.24,164.61,187.06,164.87,189,164.41Z"/><path class="cls-1" d="M172.4,186.34h12.1a19.15,19.15,0,0,0,3.35-.12c2.37-.43,3.06-1.86,3-5,0-2.46-1.45-2.82-3.47-2.73-10,.44-20.78-1.69-30.72.55-2.17.49-3.4,1.53-3.43,4,0,2.61,2.55,2.65,4.35,3.21a11.76,11.76,0,0,0,3.34.1Z"/><path class="cls-1" d="M122.47,201.74c-6.28,0-12.55.1-18.83.1-4.28,0-6.67,1.1-7.08,2.17-.67,1.75-.36,3.27,1.06,3.68a22.81,22.81,0,0,0,2.62.8c7.52.17,12.56-.26,21.9.78,1.86.21,11.53.37,13.21.36,10.39-.1,18.24,0,28.63,0,1.08,0,17.92,0,23.46,0,2.09,0,3.59,0,4.66-2.07,1-1.9-.11-4.55-.54-5.13-.31-.42-2.86-.83-3.5-.84-16.82-.18-31.78,1.16-50.68.28C132.47,201.22,127.45,201.74,122.47,201.74Z"/><path class="cls-1" d="M141,183.34c0,2.21-.84,3-3.14,3q-17.78-.09-35.55,0c-2.29,0-3.07-.81-3.16-3-.33-8.85-.18-17.24-.6-26.08l.09-1.37c13.13,0,27,.54,40.08.48,2.41,0,2.69.5,2.47,3.22-.35,4.25.1,8.31.1,12.78C141.31,176.26,140.95,179.67,141,183.34Z"/><path class="cls-8" d="M311.75,222.46c-.14-1.88-5.11-4.91-27.59-3.74-4.69.25-4.8.32-5-4.19a35.43,35.43,0,0,0-.45-5.8l-.24-9-.33-15.79.94-23.54,0,0c0-.19.54-8.78.44-12.89-.21-9.09-.16-18.1-.16-27.26.59-6.28-.31-12.5-.22-18.75.11-7.48-5.47-11.49-11.48-11.26-1.08,0-2.17,0-3.25,0-25.16-.05-50.31-.06-75.46-.21-5.6,0-22.84-.21-25.85-.25-11.69-.17-23.38-.64-35.08-.68-5.82,0-50.3,1.09-65.9,1.09C53.7,90.16,50.8,94,50,101.48c-.81,8.16.37,16.39.39,24.6,0,11.9.89,23.79.89,35.69,0,18.17,1.27,36.36-1,54.5-.29,2.32-1.15,2.88-3.21,2.88-7.37,0-14.74,0-22.11.13-4.13.07-6,1.77-6,5.84,0,3.19.91,6.37,1,9.56a4,4,0,0,0,3.25,4.18,21.75,21.75,0,0,0,5,.95c5.2.14,10.41,0,15.61.12,20.79.3,85,0,94.12.8,3,.26,35.73-.33,38.71-.28,2.16,0,13.8.55,17.46.49,8.22-.13,52.42.54,66.29.33,12.3-.19,46.16-.32,47.65-.09,3.78.59,3.1-1.81,3.91-6.14C312.07,230.42,312.1,227,311.75,222.46ZM54.09,97.35c0-2,.9-4.22,3.32-4.52a73.48,73.48,0,0,1,15.27-.27c3.82,0,29.62-.18,45.3-.73,4.89,0,27,1.05,34.86,1.23,13.2.3,26.51-1.08,39.64-.55,11.87.79,69.44.55,73.21.38a38.25,38.25,0,0,1,6.63.57,4.44,4.44,0,0,1,4.21,4.43c.16,3.31,0,6.63-.08,9.95,0,2.67-.29,5.34-.16,8,.14,2.85.11,7.16.05,10-.24,11.16.08,20.84-.19,32,0,.77.26,4.86.26,4.86s-.23,44.72-.23,47.07h0a21.74,21.74,0,0,0,.22,6.32c.66,2.84-.7,2.95-2.74,3-4.13,0-8.26.1-12.4,0-11.23-.19-22.47,0-33.7.07-1.06.64-109.44,1.42-121.32.93-8-.33-47.13-.71-50.21-1.22-.45-.4-1.26-.79-1.28-1.22-.47-9.12-.19-35.81-.23-40-.13-13.4-.71-26.79-.8-40.18S53.84,110.71,54.09,97.35ZM309.86,231.79c-.53,3.24-.08,3.78-1.77,5.88-.83,1-71.18.17-72.93,0-3.54-.39-8.66,0-12.19,0-16.3-.17-29.77.33-46.06.54-5.29.07-11.83-.49-17.12-.57-21.86-.33-69.51-.55-71.49-.29-2.64.35-48.35.84-60.7-1.3-2.91-.51-4.6-1.45-5.37-6.12-.58-3.5-.18-7.64,2-7.69,6.47-.14,21.6.18,21.61.28,8-.7,13.84.89,21.86.56,10.91-.45,50.64-.15,53.1,0,14.47.86,15.92.62,30.39.84,12,.18,118.11-2.16,134.38-2.08,6.89,0,13-.79,19.85.6C308.84,223.08,310.9,225.39,309.86,231.79Z"/><circle class="cls-1" cx="438.51" cy="157.23" r="6.76"/><path class="cls-3" d="M435.47,163.88a7.35,7.35,0,0,1-1.76-1.14,6.51,6.51,0,0,1-1.39-1.57,6.69,6.69,0,0,1-1-3.16,9.13,9.13,0,0,1,2.21-6,5.44,5.44,0,0,1,4.09-2,9.65,9.65,0,0,1,2.67.22,7.86,7.86,0,0,1,2.53,1.2,7.35,7.35,0,0,1,3,4.39,4,4,0,0,1,.05,1,.29.29,0,0,1-.07.22.6.6,0,0,1-.34.14.66.66,0,0,1-.34-.14.23.23,0,0,1-.06-.2,5.91,5.91,0,0,0-.1-1.29,1.66,1.66,0,0,0-.05-.2,2.77,2.77,0,0,0-.15-.36,6.5,6.5,0,0,0-2.4-2.93,5.34,5.34,0,0,0-2.2-1,12,12,0,0,0-1.93-.16,6.17,6.17,0,0,0-1.94.26,4.1,4.1,0,0,0-1.46.93,6.28,6.28,0,0,0-1.09,1.16c-.19.28-.32.59-.49.87a6.24,6.24,0,0,0-1,3.57,6.15,6.15,0,0,0,1.48,3.72,6.44,6.44,0,0,0,1.83,1.43,7.47,7.47,0,0,0,.83.48,3.54,3.54,0,0,0,.77.17,6.84,6.84,0,0,0,2.1.09,6.39,6.39,0,0,0,2.82-1,6.61,6.61,0,0,0,2.82-4.75,1.66,1.66,0,0,1,.08-.46.34.34,0,0,1,.38-.19.58.58,0,0,1,.38.21.54.54,0,0,1,.07.36,7,7,0,0,1-1.1,3.26,7.35,7.35,0,0,1-4.86,3.23,7.7,7.7,0,0,1-4.38-.39Z"/><path class="cls-1" d="M305.16,231c-.51,1.89-.08,2.2-1.72,3.42-.81.6-6,.07-7.34-.09-9.74-1.15-17.07-.73-25.67-.64-5,0-36.13.83-37.83.72-3.44-.23-8.41,0-11.84,0-15.83-.1-28.91.19-44.74.32-5.14,0-11.49-.29-16.63-.33-21.23-.19-67.51-.32-69.44-.17-2.56.2-16.71-.66-21.22-.72q-18.86-.26-37.73,0c-2.87,0-4.47-.85-5.22-3.57-.56-2-.17-4.45,1.92-4.48,6.29-.08,21,.11,21,.16,7.78-.41,13.45.52,21.23.33,10.6-.26,49.19-.09,51.57,0,14.05.5,15.46.36,29.52.49,11.68.1,90.86-.79,98.15-1,13.36.65,15.76,0,31.56,0,6.69,0,13.39.52,20.08.14C304.22,225.3,306.17,227.25,305.16,231Z"/><path class="cls-1" d="M400.54,248c-.37,1.86-.82,2.81-2.81,3.1-9.65,1.44-20.85,1.2-30.54.84-5.47-.2-11-.21-16.43-.1-10.44.21-57.21.66-61.36.51-7-.25-14-.9-21-1.13s-14.08-.15-21.12-.17c-6.53,0-10.53-4-10.62-10.58-.09-6.92.43-60.18-.05-65.56-.72-8-.39-16.2-.29-24.31.06-4.81,5.73-9.26,10.56-8.85,3,.26,16.53-.79,20.27-.61,2.45.12,9.28-.14,11.73-.12,20.37.18,28.38-.28,48.75-.1,3.39,0,17.2.28,20.59.48,7.39.42,36.48,1.72,44,1.8a17.37,17.37,0,0,1,5.54,1.2c2.56.92,4.31,4.19,4.15,7-.42,7.1-.07,13.48-.44,20.39,0,5.81-.69,12.12-.71,17.72,0,.92,0,5.69,0,5.69s-.15,28.73-.15,29.9c0,6,.5,10.28.5,10.51C401,240.15,401.36,243.92,400.54,248Z"/><path class="cls-4" d="M375.24,238.23c0,1.72-.44,2.62-2.41,2.7-2.48.1-4.94,0-7.41.35-1.32.17-2.05-.38-2.06-1.77s0-2.89,0-4.34q0-22.77,0-45.55c0-1.45-.11-2.95-.15-4.31-.12-4.23.3-8.57.06-12.85-.08-1.49.67-4.71-.08-5.31-1.6-.12-3.66,0-5.26-.15-3.74-.33-7.47-.37-11.21-.38q-36.06-.14-72.12,0c-4.92,0-5.61.78-5.62,5.58q0,31.18-.06,62.36c0,1.27,0,2.53,0,3.8a1.72,1.72,0,0,1-1.94,2l-2.17,0c-6.92.13-6.19-.74-6-7.59.17-5.31.09-10,.09-15.4,0-2,.14-9.26.19-11.74.13-5.78,0-11.57,0-17.35,0-7.41.07-14.82,0-22.23,0-3.45-.1-3.69,3.91-3.92,5.46-.32,9.77-1,16.38-1,12.78,0,25.55,1.14,38.33.45,13-.7,26-.27,39-.11,5.9.07,11.31.66,17.21,1,1.45.08,1.39,4.64,1.34,6.57-.14,5.6-.08,11.21-.08,16.81,0,.72,0,8.14,0,8.24C375.27,201.87,375.23,230.46,375.24,238.23Z"/><path class="cls-1" d="M274.55,168.34a45.87,45.87,0,0,1,7.61.19c2.48.15,4.93.13,7.4.14,17.9.08,35.8,0,53.69.1,5.37,0,10.73.68,16.09,1,1.83.11,1.84,1.34,1.84,2.66q0,7.86,0,15.73,0,8.95,0,17.9h0c0,10.67,0,21.33,0,32,0,3.25-.09,3.42-3.27,3.33-6.09-.18-12.09-.15-18.29-.83-5.27-.58-10.45-.19-15.7-.23-3.32,0-3.38,0-3.9-3.25-.19-1.18.46-2.84-.84-3.2-2.42-.68-17,0-19.67-.2-5.9-.34-15.24-1.48-21,.63-1.4.51-1.7,2.18-1.9,3.31-.53,3-1,2.65-3,2.73s-2.62-.62-2.57-2.51c.09-3.61.15-7.23,0-10.84-.09-2.3,0-4.58-.21-6.87-.1-.89,1.3-21.55,0-30-.16-1.06,0-2.59-.06-3.67-.22-4.93.06-9.31.06-14.39C270.84,169.08,271.9,168.57,274.55,168.34Z"/><path class="cls-8" d="M249.32,202.81a32.24,32.24,0,0,1-.17,6.45c-.14,1.18,0,3.43-1.29,3.43s-1.46-2.22-1.52-3.33c-.4-7.5.07-15-.12-22.49,0-1.95-1.11-4.44,1.56-5.76,1.09-.47,1.6.1,1.73,2,.09,1.25-.1,5.62-.1,6.88C249.79,191.32,249,198.73,249.32,202.81Z"/><path class="cls-7" d="M302.56,189.33h-18.4c-.9,0-1.81,0-2.71,0-2.46-.13-4.61-1.65-4.86-3.41-.28-1.95,1.73-5.36,3.58-6a5.27,5.27,0,0,1,1.56-.33c11.48-.33,22.93-1.78,34.45-1,3.56.23,7.11.59,10.64,1.07,1.73.24,3.74.64,3.93,2.91.29,3.6.14,5-2.44,5.8a20.17,20.17,0,0,1-5.18,1C316.28,189.4,309.42,189.33,302.56,189.33Zm1-2.17c6.67,0,13.34,0,20,0a8.41,8.41,0,0,0,4.06-.83,4.16,4.16,0,0,0,1.58-3c0-.46-1.57-1.39-2.5-1.5a117.34,117.34,0,0,0-12.24-1.09c-9.37-.16-18.74-.11-28.12,0a13.32,13.32,0,0,0-5.58,1.18,4,4,0,0,0-1.71,3.5c.15,1.91,2.3,1.78,3.95,1.77C289.88,187.15,296.73,187.16,303.57,187.16Z"/><path class="cls-7" d="M341.58,215.35c3.24,0,6.49-.09,9.73,0,2.51.1,3.11.8,3.33,3.26.08.9,0,1.8,0,2.7.07,2-.53,3.51-2.83,3.83-1.93.26-3.83.87-5.75,1-3.6.17-7.22.22-10.81,0-3.91-.19-8,.15-11.91-.32-2-.24-3-2.4-3.33-4.34s.36-4.43,2.5-4.88c3.62-.77,7.27-.78,10.94-1.2a71.05,71.05,0,0,1,8.1-.06Zm-4,8.68h9.74a14.9,14.9,0,0,0,2.7-.1c1.91-.36,2.46-1.55,2.45-4.13,0-2.05-1.16-2.35-2.79-2.27-8,.37-16.73-1.41-24.73.46-1.75.41-2.74,1.27-2.76,3.29,0,2.18,2.05,2.21,3.5,2.67a9.15,9.15,0,0,0,2.69.08Z"/><path class="cls-7" d="M352.12,199.13c2.66.51,2.52,2.58,2.55,4.6s-.24,3.65-2.57,4-4.66.06-7.3-.07c-5.89,0-11.4.34-17.1.1-.9,0-1.8,0-2.69,0-3.23-.15-3.87-.75-4-3.68-.15-3.3.62-4.39,3.51-4.95a4.07,4.07,0,0,1,.54,0c6.22-.37,12.45-.06,18.67-.43A43.48,43.48,0,0,1,352.12,199.13ZM351,205.77a1.88,1.88,0,0,0,1.46-2.47,3.15,3.15,0,0,0-1.28-2,10.61,10.61,0,0,0-4.08-1c-5.78-.11-11.57-.15-17.35,0a14,14,0,0,0-5.46,1c-.72.36-.89,2.13-.88,3,0,1.53,1.47,1.21,2.49,1.26C332.66,205.93,349.42,206.15,351,205.77Z"/><path class="cls-7" d="M314.87,216.35a18.23,18.23,0,0,0,0-3.21c-.36-4.6-.37-9.09-.37-13.85,0-1.56-.52-2-1.51-2.26a9.59,9.59,0,0,0-2.7-.1h-28.2a9.57,9.57,0,0,0-3.22.19c-.53.2-1.89,0-2.1.88l.08,1.63s0,1.07,0,1.08c-.12,7.57-.23,14.09-.26,21.66,0,1.71,1.12,3.76,2.76,3.9,4.63.39,9.27-.4,13.91-.07,6.62.46,12.77-.29,19.35.05,1.29.07,2.46-1.86,2.34-3.23A22.77,22.77,0,0,1,314.87,216.35Zm-2.5,5.19c0,1.84-.68,2.54-2.53,2.53q-14.31-.08-28.62,0c-1.84,0-2.47-.68-2.54-2.52-.26-7.38-.15-14.37-.48-21.73l.07-1.15c10.57,0,21.76.45,32.27.4,1.94,0,2.17.42,2,2.68-.29,3.54.08,6.92.08,10.65C312.6,215.64,312.31,218.48,312.36,221.54Z"/><path class="cls-1" d="M370.29,160.23c-10.05-1.84-20.13-.53-30.19-1-16.05-.71-32.05-.36-48.09-.28-4,0-8-.15-11.93,0-5.73.24-11.45.68-17.17,1.12-1.38.11-4.6.38-4.83-1.35,0-.36,0-3.76,0-4.12.13-3.91.92-3.72,4.67-3.54a95.23,95.23,0,0,0,14.11-.29,87.41,87.41,0,0,1,16.67,0c6.11.59,21.4-.46,23-.47,13.38,0,26.79.61,40.17.69,2.11,0,4.52.21,6.64.26,2.67.07,5,.33,7.71.16,1.29-.09,1.9.4,3.06.37l1.1,1c0,1.16,0,1.47,0,2.63C375.26,160.61,375.13,161.12,370.29,160.23Z"/><path class="cls-1" d="M312.36,221.54c0,1.84-.68,2.54-2.53,2.53q-14.31-.08-28.62,0c-1.84,0-2.47-.68-2.54-2.52-.26-7.38-.15-14.37-.48-21.73l.07-1.15c10.57,0,21.76.45,32.27.4,1.94,0,2.17.42,2,2.68-.29,3.54.08,6.92.08,10.65C312.6,215.64,312.31,218.48,312.36,221.54Z"/><path class="cls-1" d="M303.57,187.16c6.67,0,13.34,0,20,0a8.41,8.41,0,0,0,4.06-.83,4.16,4.16,0,0,0,1.58-3c0-.46-1.57-1.39-2.5-1.5a117.34,117.34,0,0,0-12.24-1.09c-9.37-.16-18.74-.11-28.12,0a13.32,13.32,0,0,0-5.58,1.18,4,4,0,0,0-1.71,3.5c.15,1.91,2.3,1.78,3.95,1.77C289.88,187.15,296.73,187.16,303.57,187.16Z"/><path class="cls-1" d="M351,205.77a1.88,1.88,0,0,0,1.46-2.47,3.15,3.15,0,0,0-1.28-2,10.61,10.61,0,0,0-4.08-1c-5.78-.11-11.57-.15-17.35,0a14,14,0,0,0-5.46,1c-.72.36-.89,2.13-.88,3,0,1.53,1.47,1.21,2.49,1.26C332.66,205.93,349.42,206.15,351,205.77Z"/><path class="cls-1" d="M337.63,224h9.74a14.9,14.9,0,0,0,2.7-.1c1.91-.36,2.46-1.55,2.45-4.13,0-2.05-1.16-2.35-2.79-2.27-8,.37-16.73-1.41-24.73.46-1.75.41-2.74,1.27-2.76,3.29,0,2.18,2.05,2.21,3.5,2.67a9.15,9.15,0,0,0,2.69.08Z"/><path class="cls-1" d="M315.32,240.33c-5.94,0-10.45,0-16.39,0v0h-16.2a14.93,14.93,0,0,1-2.69-.13,1.51,1.51,0,0,1-1-.89c-.07-.42.22-2.63.56-2.8a13.59,13.59,0,0,1,5.49-1.07c5,.1,27.71.68,31.08.45,1.84-.13,1.13.71,1.35,2.6C317.65,240,316.73,240.34,315.32,240.33Z"/><path class="cls-8" d="M401.87,228c0-1.4.28-37.43.28-37.43h0c.06-.33.12-.67.15-1,.52-5,.08-10,.44-15.06.58-8.05.26-26.27-.12-27.26a10.59,10.59,0,0,0-8.05-6.56,81.73,81.73,0,0,0-9.09-1.07c-19.88-.21-39.76-.25-59.64-.43-5.59-.05-11.17-.57-16.76-.52-10.46.09-20.92.5-31.38.67-7.95.13-15.9,0-23.85.15-2.29,0-11.36,1.11-13.22,2.53-4.55,3.45-6.25,8.31-6.23,13.76,0,5.22.66,10.44.7,15.66.15,18.25.29,56.63,0,57.44-.84,7.46-.65,13.19,2.29,18.69,2.49,4.66,6.27,5.22,11.2,5.62a85.39,85.39,0,0,0,9.75-.14c5-.16,10.08-.58,15.11-.52,7,.09,14,.6,21,.79,6.5.18,13-.17,19.51.33,11.18.86,48-.09,55.17-.28,6.86-.17,18.19-.46,25-.15,7.83.36,8.15-4.69,8-11.26C402.06,236.68,402.12,228.19,401.87,228Zm-2.07,19.08c-.36,1.82-.81,2.76-2.78,3-9.53,1.41-20.6,1.18-30.18.83-5.41-.2-10.83-.21-16.23-.1-10.32.21-56.53.64-60.63.5-6.94-.24-13.86-.89-20.8-1.11s-13.91-.14-20.87-.17c-6.46,0-10.4-3.91-10.49-10.4-.09-6.8.42-59.12-.05-64.41-.71-7.91-.39-15.92-.29-23.88.06-4.73,5.66-9.1,10.43-8.69,3,.26,16.33-.77,20-.6,2.43.12,9.17-.14,11.59-.11,20.12.18,28-.28,48.17-.09,3.35,0,17,.28,20.34.47,7.3.41,33.39-.15,43.49,1.77a36.3,36.3,0,0,1,5.48,1.18c2.53.91,4.26,4.12,4.1,6.83-.41,7-.07,13.25-.44,20,0,5.71-.68,11.91-.7,17.41,0,.9,0,5.59,0,5.59s-.15,28.23-.15,29.38c0,5.94.49,10.1.49,10.33C400.28,239.33,400.6,243,399.8,247.09Z"/><path class="cls-7" d="M377.42,185.87c0-4.88,0-9.76,0-14.64,0-6.64,1.49-14.5,0-21,0-.07-3.12-.23-3.23-.24-6.26-.44-12.54-1.22-18.79-1.1-15.84.29-60.11-.06-66.38-.5-7.29-.51-14.69.52-22,.84-2.17.09-4.34-.07-6.51,0a4.34,4.34,0,0,0-4.51,4.32,9.92,9.92,0,0,0,.13,3.22c.5,1.78.07,5.3.07,8,0,21.87.83,43.74.75,65.61,0,3.2,0,6.39-.21,9.59-.08,1.36-.58,2.42,2.33,2.59,1.4.08,10.3-.14,13.68-.07,26.69.54,53.39-.83,80.08,1,7.11.49,14.33,0,21.49-.41,2.34-.14,3.05-.88,3.08-3.48q.11-10.57,0-21.15c0-1.2.47-23.74.09-24.92l0-.07C377.51,192.47,377.41,186.55,377.42,185.87ZM258.09,158.75c0-.36,0-3.76,0-4.12.13-3.91.92-3.72,4.67-3.54a95.23,95.23,0,0,0,14.11-.29,87.41,87.41,0,0,1,16.67,0c6.11.59,21.4-.46,23-.47,13.38,0,26.79.61,40.17.69,2.11,0,4.52.21,6.64.26,2.67.07,5,.33,7.71.16,1.29-.09,1.9.4,3.06.37l1.1,1c0,1.16,0,1.47,0,2.63,0,5.18-.14,5.68-5,4.79-10.05-1.84-20.13-.53-30.19-1-16.05-.71-32.05-.36-48.09-.28-4,0-8-.15-11.93,0-5.73.24-11.45.68-17.17,1.12C261.54,160.21,258.32,160.49,258.09,158.75Zm57.23,81.58c-5.94,0-10.45,0-16.39,0v0h-16.2a14.93,14.93,0,0,1-2.69-.13,1.51,1.51,0,0,1-1-.89c-.07-.42.22-2.63.56-2.8a13.59,13.59,0,0,1,5.49-1.07c5,.1,27.71.68,31.08.45,1.84-.13,1.13.71,1.35,2.6C317.65,240,316.73,240.34,315.32,240.33Zm45.84-52.19q0,8.95,0,17.9h0c0,10.67,0,21.33,0,32,0,3.25-.09,3.42-3.27,3.33-6.09-.18-12.09-.15-18.29-.83-5.27-.58-10.45-.19-15.7-.23-3.32,0-3.38,0-3.9-3.25-.19-1.18.46-2.84-.84-3.2-2.42-.68-17,0-19.67-.2-5.9-.34-15.24-1.48-21,.63-1.4.51-1.7,2.18-1.9,3.31-.53,3-1,2.65-3,2.73s-2.62-.62-2.57-2.51c.09-3.61.15-7.23,0-10.84-.09-2.3,0-4.58-.21-6.87-.1-.89,1.3-21.55,0-30-.16-1.06,0-2.59-.06-3.67-.22-4.93.06-9.31.06-14.39,0-3,1.06-3.53,3.71-3.75a45.87,45.87,0,0,1,7.61.19c2.48.15,4.93.13,7.4.14,17.9.08,35.8,0,53.69.1,5.37,0,10.73.68,16.09,1,1.83.11,1.85,1.34,1.84,2.66Q361.17,180.28,361.16,188.15Zm14.08,50.09c0,1.72-.44,2.62-2.41,2.7-2.48.1-4.94,0-7.41.35-1.32.17-2.05-.38-2.06-1.77s0-2.89,0-4.34q0-22.77,0-45.55c0-1.45-.11-2.95-.15-4.31-.12-4.23.3-8.57.06-12.85-.08-1.49.67-4.71-.08-5.31-1.6-.12-3.66,0-5.26-.15-3.74-.33-7.47-.37-11.21-.38q-36.06-.14-72.12,0c-4.92,0-5.61.78-5.62,5.58q0,31.18-.06,62.36c0,1.27,0,2.53,0,3.8a1.72,1.72,0,0,1-1.94,2l-2.17,0c-6.92.13-6.19-.74-6-7.59.17-5.31.09-10,.09-15.4,0-2,.14-9.26.19-11.74.13-5.78,0-11.57,0-17.35,0-7.41.07-14.82,0-22.23,0-3.45-.1-3.69,3.91-3.92,5.46-.32,9.77-1,16.38-1,12.78,0,25.55,1.14,38.33.45,13-.7,26-.27,39-.11,5.9.07,11.31.66,17.21,1,1.45.08,1.39,4.64,1.34,6.57-.14,5.6-.08,11.21-.08,16.81,0,.72,0,8.14,0,8.24C375.27,201.87,375.23,230.46,375.24,238.23Z"/><path class="cls-1" d="M442,162.53c-.5-3.72-1.55-5.41-5.57-5.29-1.35,0-2.76-.06-4.11,0-4,0-8.29.13-12.29-.06-7.36-.35-14.4-.15-21.21.12-2.3.09-3.47,2.08-3.65,4.35-.08,1-.33,4.73-.48,7.85l.1,9.84c.28,7.65.39,15.55.46,23.19,0,4.52-.18,9-.48,13.56a144.29,144.29,0,0,0,0,15.81.42.42,0,0,1,.24-.17s0,1.63-.06,1.61c0,3.11,0,6.22.15,9.33.22,4.07,1.73,5.3,6,5.11s24-.08,29.46.14a31.26,31.26,0,0,0,6.59-.23c2.22-.39,4,0,4-4.1a8.13,8.13,0,0,1,.06-.86c-.11-.38,0-5.89,0-10.91.21-10.34.62-24.4.62-25.19q.05-13.5.15-27l.08-10.13C442.12,166.19,442.08,162.85,442,162.53Z"/><path class="cls-4" d="M442,174.22c-.5-.35-1.55-.5-5.57-.49h-4.11c-4,0-8.29,0-12.29,0-7.36,0-14.4,0-21.21,0-2.3,0-3.47.19-3.65.41a5.64,5.64,0,0,0-.48.73l.1.92a7.77,7.77,0,0,1,.46,2.16,2,2,0,0,1-.48,1.26,1.36,1.36,0,0,0,0,1.47l.24,0s0,.15-.06.15a1.91,1.91,0,0,0,.15.87c.22.38,1.73.49,6,.48s24,0,29.46,0c2.2,0,4.45,0,6.59,0s4,0,4-.38c0,0,.06-.08.06-.08s-.05-.55,0-1c.21-1,.62-2.27.62-2.35,0-.84.1-1.68.15-2.52l.08-.94A1.82,1.82,0,0,0,442,174.22Z"/><path class="cls-8" d="M443.2,165.95c-.06-7.11-.29-11.07-10.73-10.79-7.12.19-13.41-.48-20.54-.29-2.2.06-6.47.27-8.84.13-4.35-.26-7.21,1.08-8.46,4.62a21.81,21.81,0,0,0-1.34,6.91c-.07,7.88.07,15.76.24,23.64.13,5.93,0,30.24-.14,36.46-.13,4.46-.05,8.92,0,13.38.09,6.08,3.37,9.37,9.29,9.38,9.67,0,19.34,0,29,0,1.33,0,4.32-.09,5.88-.09,2.82,0,4.91-.39,4.91-2.57a51.79,51.79,0,0,0,.33-7.31c0-2.14.51-31.65.53-33.17,0-3.72.2-7.45.2-11.14C443.54,185.47,443.28,175.59,443.2,165.95Zm-6.38,81.18a29.93,29.93,0,0,1-6.41.23c-5.27-.21-24.37-.33-28.66-.14s-5.64-1-5.85-5.06c-.18-3.27-.11-6.55-.15-9.83-.45-.21-.49-11.2-.15-16.43.29-4.47.5-8.93.47-13.4-.07-7.73-.18-15.73-.47-23.45a27.59,27.59,0,0,1-.22-5.31c0-2.54.49-10.1.61-11.65.17-2.24,1.32-4.21,3.55-4.3,6.62-.27,13.47-.47,20.63-.12,3.9.19,8,.09,12,.06,1.31,0,2.68.09,4,0,3.91-.12,4.93,1.55,5.42,5.23.08.61.15,12.22,0,13.1q-.09,15.22-.17,30.43c0,1.23-1,34.51-.65,35.68a8.17,8.17,0,0,0-.05.85C440.69,247.13,439,246.75,436.81,247.13Z"/><path class="cls-8" d="M413.91,238.5c0-2.73,1.46-4.15,4.41-4.17,2.62,0,4.2,1.34,4.43,3.78.16,1.72-2.76,4.25-4.9,4.23A4.07,4.07,0,0,1,413.91,238.5Z"/><path class="cls-7" d="M441.56,177l0-3.53c-3.3,0-12.51-.52-15.81-.41-7.28.23-14.56-.28-21.82.26a52.21,52.21,0,0,1-8.35.17c-.41.2-.91,5.13-.57,7.1.29,1.62.65,2.13,1.28,2.2,1.12.13,3.92-.06,5-.06h40.18Zm-16.91,4a60.4,60.4,0,0,1-7.68-.06c-5.61-.28-10.68.21-16.24.45-3.77.16-3.87.59-3.91-3.08,0-.58,0-1.15,0-1.73,0-1,.36-1.65,1.47-1.63h.86c11.34-.46,28.21-.54,39.57-.22a.86.86,0,0,1,.84.86l-.08,4.83a.86.86,0,0,1-.88.86C435,181.17,425.1,180.92,424.65,181Z"/><path class="cls-7" d="M395.9,231.74c-.52-.19-.55-1.43-.05-1.53,6.81-.28,13.62-.25,20.43-.25,6.24,0,18.27,0,24.51.33l0,1.58c-2.09.11-10.32.1-12.34,0-6.4-.29-12.88.13-19.32,0C404.7,231.75,400.3,231.74,395.9,231.74Z"/><path class="cls-7" d="M417,196h11.19a7.76,7.76,0,0,1,2.54.14c.65.25,1.49,1,1.41,1.47a2.7,2.7,0,0,1-1.59,1.71,11.46,11.46,0,0,1-3,.13c-3.68.21-20.42.14-24.68,0a4.92,4.92,0,0,1-1.63-.31,1.23,1.23,0,0,1,0-2.4A12,12,0,0,1,405,196C409,195.93,413,196,417,196Z"/><path class="cls-7" d="M411.38,190.87c-2.58,0-5.16,0-7.73,0a8.62,8.62,0,0,1-2.48-.35c-1-.34-1.36-1.22-.43-2.27a2.72,2.72,0,0,1,1.41-.62,149.46,149.46,0,0,1,19.17-.23,2.68,2.68,0,0,1,2,1c.17.44-.45,1.32-1,1.67a6,6,0,0,1-2.7.74C416.83,190.92,414.1,190.86,411.38,190.87Z"/><path class="cls-7" d="M401.47,224.73a1.24,1.24,0,0,1-1.13-1.88,2,2,0,0,1,1.42-.74c3.95-.24,7.91-.38,11.86-.61a5.7,5.7,0,0,1,4.45,1.25c.43.41,1,1.07.78,1.37a3.42,3.42,0,0,1-2.08.74c-2.14.1-4.29,0-6.44,0A85.7,85.7,0,0,1,401.47,224.73Z"/><path class="cls-7" d="M401.54,204.83a7.3,7.3,0,0,1,2.12-.35c2.82-.1,5.68.31,8.78.14,1.75-.1,3.31-.4,5,.47,1.16.59,1.11,1.4.48,2.09s-1.62.72-3.13.7c-4.28-.05-8.56,0-12.85,0-1.05,0-2.25-.17-2.17-1.12A1.89,1.89,0,0,1,401.54,204.83Z"/><path class="cls-7" d="M406.33,213.9a40,40,0,0,1,4.31,0c1.52.17,1.92,1.4.89,2.34-.29.26-.6.71-.92.71-3.1.08-6.22.15-9.31,0-.36,0-1-1.18-.9-1.71A2.34,2.34,0,0,1,402,214,29.77,29.77,0,0,1,406.33,213.9Z"/><path class="cls-8" d="M412.65,166.28c-.37,0-1.25-.46-1.2-.95s1-.63,1.37-.58c1.86.24,3.7-.11,5.57,0a27,27,0,0,0,3.88,0c1.6-.15,3.21.08,4.81.07a1.12,1.12,0,0,1,.82.73c0,.26-.38.75-.69.84a6.55,6.55,0,0,1-1.75.12C423.54,166.52,415,166.39,412.65,166.28Z"/><circle class="cls-1" cx="199.98" cy="67" r="14.02"/><path class="cls-3" d="M193.66,80.8A15.24,15.24,0,0,1,190,78.44a13.49,13.49,0,0,1-2.89-3.26,13.88,13.88,0,0,1-2-6.56A16.86,16.86,0,0,1,186.27,62a21.06,21.06,0,0,1,3.42-5.83,11.28,11.28,0,0,1,8.47-4.06,20,20,0,0,1,5.53.46A16.29,16.29,0,0,1,208.93,55a15.25,15.25,0,0,1,6.14,9.1,8.29,8.29,0,0,1,.11,2.12.59.59,0,0,1-.15.47,1.24,1.24,0,0,1-.72.28,1.37,1.37,0,0,1-.7-.28.47.47,0,0,1-.13-.41v-.67l-.05-.67a8.22,8.22,0,0,0-.17-1.34,3.44,3.44,0,0,0-.1-.42,5.75,5.75,0,0,0-.3-.74,13.65,13.65,0,0,0-5-6.08,11.07,11.07,0,0,0-4.56-2c-.67-.12-1.34-.15-2-.25s-1.33-.11-2-.08a12.8,12.8,0,0,0-4,.54,6.31,6.31,0,0,0-1.63.79c-.48.38-1,.72-1.41,1.13A13,13,0,0,0,190,58.92c-.19.29-.35.6-.53.9a8,8,0,0,1-.49.9,13.68,13.68,0,0,0-1.55,3.52,13.13,13.13,0,0,0-.44,3.89,13.45,13.45,0,0,0,.88,4.1,13,13,0,0,0,2.2,3.62,13.36,13.36,0,0,0,3.8,3,6.92,6.92,0,0,1,.84.53,7.42,7.42,0,0,0,.89.47,7.34,7.34,0,0,0,1.6.36l1.4.21,1.35.07c.5,0,1,0,1.6-.09a13.24,13.24,0,0,0,5.84-2.16,13.71,13.71,0,0,0,5.84-9.85,3.44,3.44,0,0,1,.16-.95.71.71,0,0,1,.78-.4,1.2,1.2,0,0,1,.78.43,1.13,1.13,0,0,1,.14.74,14.53,14.53,0,0,1-2.28,6.76,15.25,15.25,0,0,1-10.08,6.7,16,16,0,0,1-9.08-.8Z"/><circle class="cls-1" cx="345.1" cy="120.13" r="9.53"/><path class="cls-3" d="M340.8,129.51a10.36,10.36,0,0,1-2.48-1.6,9.17,9.17,0,0,1-2-2.22,9.44,9.44,0,0,1-1.37-4.46,12.87,12.87,0,0,1,3.11-8.48,7.67,7.67,0,0,1,5.76-2.76,13.6,13.6,0,0,1,3.76.31,11.08,11.08,0,0,1,3.56,1.69,10.37,10.37,0,0,1,4.18,6.18,5.64,5.64,0,0,1,.08,1.44.4.4,0,0,1-.1.32.84.84,0,0,1-.49.19.93.93,0,0,1-.48-.19.32.32,0,0,1-.09-.28,5.87,5.87,0,0,0,0-.91,5.59,5.59,0,0,0-.11-.91,2.34,2.34,0,0,0-.07-.28,3.91,3.91,0,0,0-.21-.5,9.17,9.17,0,0,0-3.39-4.13,7.53,7.53,0,0,0-3.1-1.37,16.93,16.93,0,0,0-2.72-.22,8.7,8.7,0,0,0-2.73.37,5.78,5.78,0,0,0-2.06,1.31,8.85,8.85,0,0,0-1.54,1.64c-.27.39-.45.83-.69,1.22a8.8,8.8,0,0,0-1.35,5,8.67,8.67,0,0,0,2.09,5.25,9.08,9.08,0,0,0,2.58,2,10.53,10.53,0,0,0,1.18.68,5,5,0,0,0,1.09.24,9.64,9.64,0,0,0,3,.13,9,9,0,0,0,4-1.47,9.32,9.32,0,0,0,4-6.7,2.34,2.34,0,0,1,.11-.64.48.48,0,0,1,.53-.27.82.82,0,0,1,.53.3.77.77,0,0,1,.09.5,9.88,9.88,0,0,1-1.55,4.59,10.37,10.37,0,0,1-6.85,4.55,10.86,10.86,0,0,1-6.18-.55Z"/></svg>