<?xml version="1.0" encoding="utf-8"?>
<!-- Generator: Adobe Illustrator 20.1.0, SVG Export Plug-In . SVG Version: 6.00 Build 0)  -->
<svg version="1.1" id="Layer_1" xmlns="http://www.w3.org/2000/svg" xmlns:xlink="http://www.w3.org/1999/xlink" x="0px" y="0px"
	 viewBox="0 0 264.6 177.9" style="enable-background:new 0 0 264.6 177.9;" xml:space="preserve">
<style type="text/css">
	.isaq0{opacity:0.25;}
	.isaq1{fill:#ee5b21;}
	.isaq2{opacity:0.25;fill:#ee5b21;}
	.isaq3{fill:none;}
	.isaq4{fill:#ee5b21;stroke:#ee5b21;stroke-miterlimit:10;}
</style>
<g class="isaq0">
	<path class="isaq1" d="M130.7,27.3c-29.9,0-54.2,24.3-54.2,54.2c0,13.5,4.9,25.8,13.1,35.3c1.9-0.5,9-1.9,10.6-2.2
		c0.8-0.1,1.7-0.3,2.6-0.4l-5.8,0c-8.2-8.5-13.2-20-13.2-32.7c0-26.1,21.1-47.2,47.2-47.2c26.1,0,47.2,21.1,47.2,47.2
		c0,12.7-5,24.2-13.1,32.6l-5.8,0c1.1,0.2,2.2,0.3,3.3,0.5c1.3,0.2,7.7,1.5,9.5,1.9c8-9.5,12.9-21.7,12.9-35.1
		C184.9,51.5,160.7,27.3,130.7,27.3z"/>
</g>
<path class="isaq2" d="M261.3,175.8H5.7c-2.1,0-3.9-1.7-3.9-3.9v-6.1h261.5v7.8C263.4,174.8,262.5,175.8,261.3,175.8z"/>
<g>
	<g>
		<path class="isaq3" d="M237.9,141.3V11c0-4.6-3.7-8.2-8.2-8.2h-194c-4.6,0-8.2,3.7-8.2,8.2v130.3L1.9,165.8v5.8
			c0,2.3,1.9,4.2,4.2,4.2h253.2c2.3,0,4.2-1.9,4.2-4.2v-5.8L237.9,141.3z"/>
		<g>
			<path class="isaq1" d="M255.5,176.9c-5.3-0.4-36.3,0.2-41.7,0.4c-1.6,0.1-20,0.3-21.5,0.3c-22.4-0.2-44.9-0.7-67.3-0.7
				c-9.7,0-39.7-0.3-45-0.3c-11.1-0.2-22.2-0.2-33.3,0c-9.9,0.2-19.8,1.3-29.7,1.3c-1.9,0-4,0-6.2,0c-1.1,0-2.2,0-3.3,0l-0.8,0
				c-0.3,0-0.5,0-1,0c-0.8-0.1-1.6-0.3-2.3-0.6c-1.4-0.7-2.5-2-3-3.4C0.1,173,0,172.3,0,171.6c0-0.5,0-0.9,0-1.4
				c0.1-2.1,0.1-3.9,0.2-5.2c6.5-6.1,11.7-10.8,15.2-14.1c3.4-3.2,5.3-4.9,5.4-5l5.3-5.3l-0.3-17.1l-0.4-17.7
				c-0.2-7.5-1.3-15.1-1.1-22.6c0.1-6,0.3-26.4,0.5-45.5C24.9,28.2,25,19,25,12c0-0.8,0-2,0.2-3c0.2-1,0.5-1.9,1-2.8
				c0.8-1.7,2-2.8,3.1-3.6c2.2-1.6,4.1-1.8,4.4-1.9c0.4-0.1,0.8-0.1,1.2-0.1l0.6,0l0.5,0l1.9,0l3.9,0l7.8,0c5.2,0,10.3,0,15.5,0.2
				c11.3,0.4,52.1,1.5,61.2,1.5c8.1,0,26.3,0.3,27.3,0.3c14.3-0.2,51.6-1.4,55.9-1.7c3-0.2,6-0.3,8.9-0.4l7.9-0.3l2-0.1
				c0.7,0,1.2-0.1,2.2,0c1.8,0.1,3.5,0.6,5,1.5c3.1,1.8,5.2,5.2,5.4,8.8l0,0.7l0,0.5l0,1l0,2l0,3.9c-0.3,17.7-1.7,73.6-1.6,83.9
				l0.5,35.7c0,0.8-0.1,1.6-0.4,2.3c-0.2,0.4-0.9,0.9-1.3,0.9c-0.4-0.1-0.9-0.7-1-1.2c-0.2-1-0.1-2-0.1-3l0-8.3
				c0-7.1,0.3-14.3-0.3-21.3c-0.8-11.4-0.4-34.6,0-56.6c0.2-11,0.4-21.6,0.6-30.3c0-2.2,0-4.2,0.1-6.1c0-1,0-1.9,0-2.7
				c0-0.9,0-1.7-0.2-2.4c-0.4-1.5-1.1-2.7-1.9-3.5c-0.8-0.8-1.7-1.3-2.4-1.6c-0.7-0.3-1.5-0.5-2.3-0.5c-0.4-0.1-0.8,0-1.3,0
				c-0.5,0-0.9,0.1-1.4,0.1c-1.9,0.1-4,0.2-6.2,0.3c-4.4,0.2-9.3,0.4-14.5,0.5c-10.3,0.3-21.8,0.5-32.7,0.6
				c-21.8,0.3-41.4,0.4-45.7,0.7c-3,0.2-6,0.2-8.9,0.1c-5.7-0.2-11.5-0.6-17.2-0.9c-5.5-0.4-21.7-1.2-38.4-1.6
				C56.2,3.1,47.7,3,40.3,3.1c-1.8,0-3.7,0-5.3,0.1c-1.6,0.2-3,0.9-4,1.8c-1.1,0.9-1.7,2-2.1,3.1c-0.3,1.1-0.4,2.1-0.2,2.9
				c0.4,2.7,0.2,5.5,0.1,8.2c-0.1,2.2-0.4,4.4-0.5,6.5c-0.5,13.5-0.9,27-1.4,40.5c-0.1,3.2-0.3,23.3,0.1,30.2
				c0.5,9.7,1.4,19.4,1.3,29.1c0,2.8,0,7.9-0.1,16.1c-6.7,6.4-16,15.3-25.6,24.5c0,1.4,0,2.8,0,4.2l0,1.1c0,0.4,0,0.6,0.1,1
				c0.1,0.6,0.4,1.2,0.9,1.6c0.4,0.4,1,0.8,1.6,0.9C5.4,175,5.7,175,6,175l1.1,0c1.5,0,3,0,4.4,0c5.9-0.1,11.5-0.1,16.6-0.2
				c10.3-0.1,18.5-0.4,22.3-0.8c11.6-1.2,23.4,0.2,35.1,0.4c9.7,0.2,19.5,0.3,29.2,0.3c5,0,9.9,0,14.9-0.2
				c4.2-0.1,15.3-0.8,16.6-0.8c24.8,0.4,49.6,0.9,74.5,1.1c6.7,0.1,13.3,0.1,20,0l10-0.1l5-0.1l2.5,0c0.4,0,0.9,0,1.2,0
				c0.3,0,0.6-0.1,0.9-0.2c0.6-0.2,1.2-0.7,1.5-1.3c0.2-0.3,0.3-0.6,0.4-0.9c0-0.2,0.1-0.3,0.1-0.5l0-0.3l0-0.3l-0.1-2.7l0-1.4
				l0-0.8l-9-8.1c-3.1-2.8-6.3-5.7-9.4-8.6c-2-1.9-3.4-4.3-5.1-6.5c-0.4-0.5-0.7-1-1-1.6c0.2,0.1,4,3.5,9.2,8
				c2.6,2.3,5.5,4.9,8.5,7.5c1.5,1.3,3,2.7,4.5,4c0.7,0.7,1.5,1.3,2.2,2c0.8,0.8,1.7,1.5,2.5,2.2c0,2,0.1,4,0.1,5.8
				c0,0.2,0,0.4,0,0.7c0,0.3,0,0.5-0.1,0.8c-0.1,0.5-0.2,1-0.5,1.5c-0.4,0.9-1.1,1.6-1.9,2.1c-0.8,0.5-1.6,0.8-2.4,0.9
				c-0.2,0-0.4,0-0.6,0c-0.1,0-0.3,0-0.4,0c-0.3,0-0.6,0-0.8,0C257,177,256.1,177,255.5,176.9z"/>
		</g>
	</g>
</g>
<g>
	<g>
		<g>
			<g>
				<path class="isaq1" d="M10.9,175.4c1.8,0.1,12.2-0.1,14-0.1c0.5,0,6.7-0.1,7.2-0.1c7.5,0.1,15,0.2,22.6,0.2
					c3.2,0,13.3,0.1,15.1,0.1c3.7,0.1,7.4,0.1,11.2,0c3.3-0.1,6.6-0.4,10-0.4c2.8,0,7,0.1,10.5,0.2c3.5,0.1,6.4,0.1,6.5,0.2
					c4.8-0.1,9.7-0.1,14.5-0.3c2.5-0.1,5-0.4,7.6-0.4c4.1,0,27.3,0.3,28.1,0.3c3.5,0,6.9-0.1,10.4,0.1c3.8,0.1,17.5,0.5,20.5,0.5
					c2.7,0,8.8,0.1,9.2,0.1c4.8-0.1,17.3-0.5,18.7-0.6c1-0.1,2-0.1,3-0.1c3.5-0.1,7-0.3,10.6-0.3c5.9,0.1,24.7,0.6,28.1,0.5l0.7,0
					c0.2,0,0.4,0,0.6-0.1c0.4-0.1,0.8-0.3,1.2-0.5c0.7-0.5,1.3-1.2,1.5-2c0.1-0.4,0.1-0.8,0.1-1.3l0-1.5l0-3c0-0.3,0-0.5,0.1-0.8
					c0.1-0.1,0.3-0.3,0.4-0.3c0.1,0,0.3,0.2,0.3,0.4c0.1,0.3,0,0.7,0,1l0,2.8c0,0.6,0,1.2,0,1.8c0,0.6-0.2,1.3-0.5,1.8
					c-0.6,1.1-1.6,2-2.8,2.4c-0.5,0.2-1.1,0.2-1.7,0.2c-0.6,0-1.2,0-1.9,0.1c-1.4,0-2.9,0-4.6,0c-3.3,0-7.1-0.1-10.8-0.2
					c-7.4-0.2-14.3-0.3-16.4-0.2c-8.7,0.7-32.2,0.7-35,0.9c-1,0.1-2,0.1-3,0c-1.9-0.1-3.8-0.2-5.8-0.3c-3.7-0.2-21.7-1.1-26.9-0.3
					c-0.9,0.1-1.8,0.1-2.8,0c-0.7,0-1.5-0.1-2.2-0.2l-13.6-0.5c-1.1,0-7.8-0.1-10.1,0c-3.3,0.2-6.5,0.5-9.8,0.5
					c-4.9,0-31.4-0.2-36.2,0.3c-3.9,0.4-7.8-0.1-11.8-0.1l-9.8-0.1c-1.7,0-3.3,0-5,0.1c-1.4,0.1-5.1,0.2-5.6,0.3l-25-0.4
					c-4.5,0-8.9,0-13.4,0.1l-3,0.1c-1.1,0.1-2.3-0.3-3.1-1c-0.9-0.7-1.5-1.8-1.7-2.9c-0.1-0.6-0.1-1.1-0.1-1.6l0-1.5
					c0-0.9,0.2-1.8,0.4-2.7c0-0.2,0.1-0.4,0.1-0.6c0,0,0,1,0.1,2.4c0,0.7,0.1,1.5,0.1,2.5c0,0.4,0,0.9,0.1,1.4
					c0.1,0.5,0.2,0.9,0.4,1.3c0.4,0.8,1.2,1.5,2.1,1.8c0.8,0.3,1.7,0.2,2.6,0.2C8.9,175.3,10.3,175.3,10.9,175.4z"/>
			</g>
		</g>
	</g>
	<g>
		<g>
			<g>
				<path class="isaq1" d="M237.2,111.4c0.3-3.1-0.1-21.1-0.3-24.2c0-0.9-0.2-11.6-0.1-12.5c0.1-13,0.4-26,0.4-39
					c0-2.8,0.1-8.6,0.1-14c0-2.7,0-5.4,0.1-7.5c0-2.2,0.1-3.8-0.1-4.5c-0.4-3-2.8-5.7-5.8-6.4c-0.8-0.2-1.5-0.2-2.3-0.2l-2.4,0
					L222,3.2C216.2,3.4,210.5,4,204.8,4c-4.8,0-12-0.1-18.2-0.3c-6.1-0.1-11.1-0.3-11.2-0.3c-8.4,0.1-16.8,0.2-25.1,0.5
					c-4.4,0.1-8.7,0.7-13.1,0.7c-7-0.1-47.2-0.5-48.5-0.5c-6,0-12,0.1-18-0.1c-6.5-0.2-30.2-0.9-35.4-0.8c-1.1,0-2.6,0.4-4,1.2
					c-0.7,0.4-1.3,1-1.8,1.6c-0.5,0.6-1,1.4-1.3,2.1c-0.3,0.7-0.5,1.5-0.6,2.2c-0.1,0.7-0.1,1.4-0.1,1.9c0,1.1,0,1.9,0,2.1
					c0.1,8.3,0.8,29.9,1,32.4c0.1,1.7,0.2,3.4,0.2,5.2c0.2,6.1,0.6,12.2,0.5,18.2c-0.2,10.2-1,42.6-0.9,48.6l0.3,20.7
					c0,0.5-0.1,0.9-0.2,1.3c-0.1,0.2-0.5,0.5-0.8,0.5c-0.2,0-0.5-0.4-0.6-0.7c-0.1-0.6-0.1-1.1-0.1-1.7l0-4.8
					c0-4.1,0.1-8.3-0.1-12.4c-1-13.3,0.9-53.8,0.3-61.1c-0.6-7.5-0.9-21.4-1.1-34c0-3.2-0.1-6.2-0.1-9.1c0-1.4,0-2.8,0-4.2
					c0-0.7,0-1.3,0-1.9c0-0.7,0-1.4,0.2-2.1c0.5-2.8,2.1-4.8,3.7-6c1.5-1.2,2.9-1.6,3.6-1.8c0.5-0.2,1-0.3,1.5-0.3l0.8-0.1l0.7,0
					c0.9,0,1.7,0,2.6,0.1c3.3,0.1,6.6,0.3,10,0.5C55.3,1.9,86.3,3.4,95.3,2c1.6-0.2,3.2-0.1,4.8-0.1c1.3,0,2.5,0.2,3.8,0.3L127.3,3
					c1.8,0.1,13.5,0.2,17.5,0c5.6-0.3,11.2-0.8,16.9-0.8c8.5,0.1,54.2,0.4,62.6-0.4c1.7-0.2,3.4-0.2,5-0.3c1.8-0.1,3.9,0.5,5.5,1.6
					c0.8,0.6,1.5,1.2,2.1,2c0.6,0.8,1,1.6,1.3,2.5c0.3,0.9,0.5,1.8,0.5,2.8c0,0.5,0,0.9,0,1.3l0,1.3c-0.1,5.6-0.1,11.3-0.2,16.9
					c0,2.9,0,5.7,0.1,8.6c0.1,2.4,0.5,8.8,0.5,9.6c-0.2,14.4-0.5,28.8-0.7,43.1c-0.1,7.7,0,15.4,0.2,23.1c0.1,7,0.4,14,0.5,21
					c0,1.6-0.4,3.2-0.7,4.7c-0.1,0.4-0.2,0.7-0.2,1.1c0-0.2-0.3-6.5-0.6-13.4C237.3,121,237,113.7,237.2,111.4z"/>
			</g>
		</g>
	</g>
	<g>
		<g>
			<g>
				<path class="isaq1" d="M25.5,143.8c-1.9,1.5-11.8,11.5-13.5,13.2c-0.5,0.5-6.4,6.3-7,6.8L3.9,165l1.5,0l3.2,0l6.7,0.1l13.5,0.1
					c4.4,0,18,0.1,20.4,0.2c5,0.1,10.1,0.1,15.1,0c4.5-0.1,9-0.6,13.5-0.6c3.7,0,9.4,0.1,14.2,0.2c4.8,0.1,8.6,0.2,8.7,0.2
					c6.6-0.1,13.1-0.2,19.7-0.4c3.4-0.1,6.8-0.6,10.2-0.5c5.5,0.1,36.9,0.4,38,0.4c4.7,0,9.4-0.1,14,0.1c5.1,0.2,23.6,0.7,27.7,0.7
					c3.7,0,11.9,0.2,12.4,0.1c6.5-0.1,23.4-0.6,25.3-0.8c1.3-0.1,2.7-0.1,4-0.2l5.7-0.2l1.4-0.1l0.6,0c0,0,0,0,0,0c0,0,0-0.1,0-0.1
					c0,0,0,0,0,0c-4.7-4.7-18-18.1-22.2-22.3c-3.6,0-4.7,0-5.3,0l-16.2,0.2c-0.4,0-0.7,0-1.1-0.2c-0.2-0.1-0.4-0.4-0.4-0.6
					c0-0.2,0.3-0.4,0.6-0.5c0.4-0.1,0.9,0,1.3,0l3.8,0c3.2,0,6.5,0.1,9.7-0.1c0.9-0.1,2-0.1,3.3-0.2c0.7,0,1.4,0,2.1,0
					c0.8,0,1.7,0,2.7,0c8.2,7.8,19.4,19.4,25.6,25.3c-1.3,0-2.3,0-3,0c-0.8,0-1.4,0-1.8,0.1c-11.8,0.9-43.5,0.9-47.3,1.2
					c-1.3,0.1-2.7,0.1-4,0c-2.6-0.1-5.2-0.3-7.8-0.4c-5-0.3-29.3-1.5-36.4-0.4c-1.2,0.2-2.5,0.1-3.7,0c-1,0-2-0.2-3-0.2l-18.3-0.6
					c-1.4-0.1-10.6-0.1-13.7,0c-4.4,0.2-8.8,0.6-13.2,0.6c-6.7-0.1-42.4-0.3-48.9,0.3c-5.2,0.5-10.6-0.1-15.9-0.2l-13.2-0.1
					c-2.2,0-4.5,0-6.7,0.1c-1.9,0.1-6.9,0.4-7.5,0.4l-18.7-0.3l13.1-12.3c4.4-4.1,8.7-8.4,13-12.6l0.7-0.7l15.9-0.4
					c1.2,0,2.5,0.3,3.7,0.5c0.3,0,0.6,0.1,0.8,0.2c-0.1,0-3.7,0.2-8,0.4c-2.1,0.1-4.5,0.2-6.6,0.3c-1.1,0-2.1,0.1-3.1,0.1
					c-0.9,0-1.7,0-2.3,0c-0.5,0.5-0.9,0.9-1.3,1.2C26,143.4,25.7,143.6,25.5,143.8z"/>
			</g>
		</g>
	</g>
	<g>
		<g>
			<g>
				<g>
					<path class="isaq1" d="M173,154l-28.9,0l-15.1,0c-1.7,0-3.3,0.2-5,0.2c-4.8,0-9.7-0.1-14.5-0.1c-6.7,0-13.5,0.2-20.2,0.2
						c-5.8,0-11.6-0.2-17.4-0.2L56.1,154l-12.5-0.1l0.3-0.3c0.1-0.1,3.2-3.9,4.6-5.6l2.1-2.4l7.8,0l7.6,0c9,0.1,18,0.3,26.9,0.3
						c5.1,0,10.1-0.3,15.2-0.5c1.6,0,3.3,0.1,4.9,0.1c0.6,0,1.2,0.1,1.8,0.1c3.9-0.1,7.8-0.2,11.7-0.2c3.2,0,6.4,0.1,9.6,0.1
						c1.9,0,3.9,0,5.8,0c2.4,0,4.8-0.2,7.3-0.2l28,0c4.5,0,12.7,0,20.2,0.1c3.8,0,7.4,0,10.4,0c3.2,0,5.6,0,6.9,0
						c2,2.3,2.4,2.8,2.7,3c1.3,1.4,2.5,3,3.8,4.4c0.2,0.2-0.2,1-0.5,0.8c-0.4-0.2-0.7-0.7-1-1c-1-1-1.9-2.1-2.8-3.2l-1.4-1.6
						l-0.7-0.8l-0.6-0.7c-0.2,0-0.4,0-0.5,0c-1.5,0.1-7.4-0.1-8.8-0.1c-3.7,0.1-7.3,0.3-11,0.3c-5.4,0-10.9,0-16.3-0.1
						c-2.8,0-5.6-0.2-8.5-0.1c-3.9,0.1-7.9-0.2-11.8-0.2c-4.7,0-9.4,0.2-14.2,0.2c-3.6,0-7.2-0.1-10.8-0.1c-4.1,0-8.3,0.1-12.4,0.1
						l-12.9,0.2l-10.1,0.2c-3.8,0.1-7.7,0.1-11.5,0.1l-16.8-0.2c-4.5,0-9.1,0.2-13.6,0.1l-3.7-0.1l-1.9,2.1l-2.1,2.4l-1.3,1.5l9,0.1
						l10.6,0.1l19.1,0.3c3,0,6-0.2,9-0.2c1.3,0,2.6,0.2,3.9,0.1c4-0.1,7.9-0.2,11.9-0.2c6.4,0,12.9-0.1,19.3,0.1
						c5.2,0.2,10.3-0.1,15.4-0.3c0.7,0,1.4,0,2.1,0l37.2,0l28.9,0.2c1.9,0,3.9-0.1,5.8-0.2c0.8,0,1.5,0.1,2.2,0.2
						c0.2,0,0.4,0.3,0.4,0.5c0,0.1-0.3,0.3-0.4,0.4c-0.5,0.1-1,0.2-1.6,0.2l-9.2-0.1l-23.9,0L173,154L173,154z"/>
				</g>
			</g>
		</g>
		<g>
			<g>
				<g>
					<path class="isaq1" d="M71.7,147.3c4.4,0,8.9,0,13.3,0c2.3,0,4.6,0,7,0c0.8,0,1.5-0.1,2.3-0.1c2.2,0,4.5,0.1,6.7,0.1
						c3.1,0,6.2-0.1,9.3-0.1c2.7,0,5.3,0.1,8,0.1c2.5,0,4.9,0,7.4,0.1c1.9,0,3.7,0,5.6,0.1c0.1,0,2.1-0.1,3.1-0.1c2.8,0,5.6,0,8.3,0
						c4.1,0,8.3,0.1,12.4,0.1c2.3,0,4.7-0.2,7-0.2c0.8,0,1.5,0,2.3,0.1c0.3,0,0.5,0,0.8,0c1.8,0,3.6-0.1,5.4-0.1c1.5,0,2.9,0,4.4,0
						c0.9,0,1.8,0,2.7,0c1.1,0,2.2-0.1,3.4-0.1c4.3,0,8.6,0,12.9,0c4.6,0,17.2,0,18.9,0c0.9,0,1.8,0,2.7,0c0.1,0,0.3,0.4,0.1,0.4
						c-0.2,0.1-0.4,0-0.6,0.1c-1.4,0-2.8,0-4.2,0c-0.7,0-3.4-0.1-4.1,0c-1.7,0-3.4,0.1-5.1,0.1c-2.5,0-5,0-7.5,0
						c-1.3,0-2.6-0.1-3.9,0c-1.8,0-3.6-0.1-5.5-0.1c-2.2,0-4.4,0.1-6.5,0.1c-1.7,0-3.3-0.1-5-0.1c-1.9,0-3.8,0-5.7,0c-2,0-4,0-6,0.1
						c-1.6,0-3.1,0.1-4.7,0.1c-1.8,0-3.5,0.1-5.3,0c-2.6,0-5.2-0.1-7.8-0.1c-2.1,0-4.2,0.1-6.3,0.1c-1.6,0-3.2-0.1-4.8,0
						c-3.8,0-7.6,0-11.4-0.1c-2.9,0-5.9-0.1-8.8-0.1c-1.4,0-2.8,0.1-4.2,0.1c-0.6,0-1.2-0.1-1.8-0.1c-1.8,0-3.7,0.1-5.5,0.1
						c-3,0-5.9,0-8.9-0.1c-2.4-0.1-4.7,0.1-7.1,0.1c-0.3,0-0.7,0-1,0c-5.7,0-11.5,0-17.2,0c-4.4,0-8.9-0.1-13.3-0.1
						c-0.9,0-1.8,0.1-2.7,0.1c-0.3,0-0.7,0-1-0.1c-0.1,0-0.2-0.2-0.2-0.2c0-0.1,0.1-0.2,0.2-0.2c0.2,0,0.5-0.1,0.7-0.1
						c1.4,0,2.8,0,4.3,0c3.7,0,7.4,0,11,0C67.7,147.4,69.7,147.4,71.7,147.3C71.7,147.4,71.7,147.3,71.7,147.3z"/>
				</g>
			</g>
		</g>
		<g>
			<g>
				<g>
					<path class="isaq1" d="M70.7,148.9c4.5,0,9,0,13.6,0c2.4,0,4.7,0,7.1,0c0.8,0,1.5-0.1,2.3-0.1c2.3,0,4.5,0.1,6.8,0.1
						c3.2,0,6.3-0.1,9.5-0.1c2.7,0,5.4,0.1,8.1,0.1c2.5,0,5,0,7.5,0.1c1.9,0,3.8,0,5.7,0.1c0.1,0,2.2-0.1,3.1-0.1c2.8,0,5.7,0,8.5,0
						c4.2,0,8.4,0.1,12.6,0.1c2.4,0,4.8-0.2,7.1-0.2c0.8,0,1.5,0,2.3,0.1c0.3,0,0.6,0,0.8,0c1.8,0,3.7-0.1,5.5-0.1c1.5,0,3,0,4.5,0
						c0.9,0,1.8,0,2.7,0c1.1,0,2.3-0.1,3.4-0.1c4.4,0,8.8,0,13.1,0c4.7,0,17.5,0,19.2,0c0.9,0,1.8,0,2.7,0c0.1,0,0.3,0.4,0.1,0.4
						c-0.2,0.1-0.4,0-0.7,0.1c-1.4,0-2.8,0-4.3,0c-0.7,0-3.5-0.1-4.1,0c-1.7,0-3.4,0.1-5.2,0.1c-2.6,0-5.1,0-7.7,0
						c-1.3,0-2.6-0.1-4,0c-1.9,0-3.7-0.1-5.6-0.1c-2.2,0-4.4,0.1-6.7,0.1c-1.7,0-3.4-0.1-5.1-0.1c-1.9,0-3.9,0-5.8,0
						c-2,0-4,0-6.1,0.1c-1.6,0-3.2,0.1-4.7,0.1c-1.8,0-3.6,0.1-5.4,0c-2.6,0-5.3-0.1-7.9-0.1c-2.1,0-4.3,0.1-6.4,0.1
						c-1.6,0-3.3-0.1-4.9,0c-3.9,0-7.8,0-11.6-0.1c-3,0-6-0.1-9-0.1c-1.4,0-2.8,0.1-4.2,0.1c-0.6,0-1.2-0.1-1.8-0.1
						c-1.9,0-3.7,0.1-5.6,0.1c-3,0-6,0-9.1-0.1c-2.4-0.1-4.8,0.1-7.2,0.1c-0.3,0-0.7,0-1,0c-5.8,0-11.6,0-17.5,0
						c-4.5,0-9-0.1-13.6-0.1c-0.9,0-1.8,0.1-2.7,0.1c-0.4,0-0.7,0-1.1-0.1c-0.1,0-0.2-0.2-0.2-0.2c0-0.1,0.1-0.2,0.2-0.2
						c0.2,0,0.5-0.1,0.7-0.1c1.4,0,2.9,0,4.3,0c3.7,0,7.5,0,11.2,0C66.7,149,68.7,149,70.7,148.9C70.7,148.9,70.7,148.9,70.7,148.9z
						"/>
				</g>
			</g>
		</g>
		<g>
			<g>
				<g>
					<path class="isaq1" d="M69.4,150.9c4.6,0,9.2,0,13.8,0c2.4,0,4.8,0,7.2,0c0.8,0,1.6-0.1,2.4-0.1c2.3,0,4.6,0.1,6.9,0.1
						c3.2,0,6.4-0.1,9.7-0.1c2.8,0,5.5,0.1,8.3,0.1c2.5,0,5.1,0,7.6,0.1c1.9,0,3.8,0,5.8,0.1c0.1,0,2.2-0.1,3.2-0.1
						c2.9,0,5.8,0,8.7,0c4.3,0,8.6,0.1,12.9,0.1c2.4,0,4.9-0.2,7.3-0.2c0.8,0,1.6,0,2.4,0.1c0.3,0,0.6,0,0.8,0
						c1.9,0,3.7-0.1,5.6-0.1c1.5,0,3.1,0,4.6,0c0.9,0,1.9,0,2.8,0c1.2,0,2.3-0.1,3.5-0.1c4.5,0,8.9,0,13.4,0c4.8,0,17.8,0,19.6,0
						c0.9,0,1.9,0,2.8,0c0.1,0,0.3,0.4,0.1,0.4c-0.2,0.1-0.5,0.1-0.7,0.1c-1.5,0-2.9,0-4.4,0c-0.7,0-3.5-0.1-4.2,0
						c-1.8,0-3.5,0.1-5.3,0.1c-2.6,0-5.2,0-7.8,0c-1.4,0-2.7-0.1-4.1-0.1c-1.9,0-3.8-0.1-5.7-0.1c-2.3,0-4.5,0.1-6.8,0.1
						c-1.7,0-3.4-0.1-5.2-0.1c-2,0-4,0-5.9,0c-2.1,0-4.1,0-6.2,0.1c-1.6,0-3.2,0.1-4.8,0.1c-1.8,0-3.7,0.1-5.5,0.1
						c-2.7,0-5.4-0.1-8.1-0.1c-2.2,0-4.4,0.1-6.5,0.1c-1.7,0-3.3-0.1-5,0c-4,0-7.9,0-11.9-0.1c-3.1,0-6.1-0.1-9.2-0.1
						c-1.4,0-2.9,0.1-4.3,0.1c-0.6,0-1.2-0.1-1.9-0.1c-1.9,0-3.8,0.1-5.7,0.1c-3.1,0-6.2,0-9.2-0.1c-2.5-0.1-4.9,0.1-7.4,0.1
						c-0.3,0-0.7,0-1,0c-5.9,0-11.9,0-17.8,0c-4.6,0-9.2-0.1-13.8-0.1c-0.9,0-1.9,0.1-2.8,0.1c-0.4,0-0.7,0-1.1-0.1
						c-0.1,0-0.2-0.2-0.2-0.3c0-0.1,0.1-0.2,0.2-0.2c0.2,0,0.5-0.1,0.7-0.1c1.5,0,2.9,0,4.4,0c3.8,0,7.6,0,11.5,0
						C65.3,151,67.3,150.9,69.4,150.9C69.4,150.9,69.4,150.9,69.4,150.9z"/>
				</g>
			</g>
		</g>
	</g>
	<g>
		<g>
			<g>
				<path class="isaq1" d="M152,163.3l-7.6,0c-4,0-7.9,0.2-11.9,0.2c-4.3,0-8.6-0.3-12.9-0.4c-2.9-0.1-5.8,0-8.6-0.1l-5.8,0l2.7-5.9
					l1.3,0c1.5,0,3,0.1,4.5,0.1c2,0,4-0.1,6-0.2c3.2-0.1,6.3-0.4,9.5-0.2c2.7,0.1,5.4,0.1,8.1,0.1c3.5,0.1,7,0.1,10.6,0.1
					c1.7,0,3.5-0.2,5.2-0.3c1.3-0.1,2.6-0.1,3.9-0.1c0.1,0,0.1,0,0.2,0c0.1,0.1,0.3,0.2,0.4,0.3c-0.1,0.1-0.3,0.2-0.4,0.2
					c-2,0.2-3.9,0.4-5.9,0.6c-0.4,0-0.8,0.1-1.3,0.1c-3.4,0-6.8-0.1-10.2-0.2c-1.8-0.1-11.1-0.3-13.7-0.2c-2.5,0.1-5,0.3-7.5,0.4
					c-2,0.1-4,0-6,0c-0.3,0-0.7,0-1,0c-0.1,0-0.4,0-3.1,0c0,0,0,0,0,0c0,0,0,0,0,0c-0.1,0.2-0.2,0.4-0.3,0.6c-0.4,0.8-1,2.2-1.8,3.9
					c0,0,0,0,0.1,0l0.1,0c0.1,0,0.2,0,0.3,0c0.5,0,1,0,1.6,0c1.2,0,2.6,0,4.1,0c3,0,6.3,0,8.7,0c2,0,4.1,0.1,6.1,0.1
					c1.9,0,3.8-0.3,5.7-0.2c2.1,0.1,4.2,0,6.4,0.1l10.7,0c1.4,0,2.9-0.1,4.3,0l2.8,0.1c0.9,0,2,0.1,2.5,0.1l-0.3-0.7l-0.4-0.9
					l-0.7-1.9c-0.2-0.4-0.4-0.9-0.6-1.3c-0.1-0.2-0.1-0.4-0.2-0.6c0-0.1,0.1-0.2,0.2-0.2c0.1,0,0.2,0,0.3,0c0.1,0.2,0.3,0.4,0.4,0.7
					c0.3,0.7,0.6,1.5,0.9,2.2l0.4,1.1l0.6,1.3l0.4,0.9L152,163.3L152,163.3z"/>
			</g>
		</g>
	</g>
	<g>
		<g>
			<g>
				<path class="isaq1" d="M124.6,169.4l-1.3,0c-0.4,0-0.9,0-1.4-0.1c-0.9-0.2-1.8-0.8-2.3-1.6c-0.2-0.3-0.3-0.7-0.4-1.1
					c0-0.2-0.1-0.4-0.1-0.6l0-0.3l0,0v0c-0.1,0.1,0.7-0.7,0.4-0.4l0,0h0l0,0l0,0l0.1,0l0.1,0c0.7,0,1.4,0,2,0.1
					c2.7,0.1,5.5,0.2,8.2,0c1.9-0.1,3.8-0.1,5.7,0c1.1,0.1,2.2,0,3.3,0c1.2,0,2.3,0,3.5,0l1.7,0l0.8,0l0.4,0l0.2,0l0.1,0l0,0l0,0
					l0,0h0c-0.1-0.1,0.7,0.7,0.4,0.4l0,0l0,0.1c0,1.2-0.7,2.4-1.8,3.1c-0.4,0.2-0.9,0.4-1.3,0.4c-0.1,0-0.2,0-0.3,0
					c-0.1,0-0.2-0.1-0.2-0.2c0-0.1,0.1-0.2,0.2-0.2c0.1,0,0.2,0,0.3-0.1c0.6-0.1,1.1-0.3,1.6-0.6c0.1-0.1,0.1-0.1,0.2-0.2
					c0.1-0.1,0.2-0.3,0.3-0.4c0.2-0.3,0.4-0.7,0.5-1.2c0-0.2,0.1-0.4,0.1-0.6l0-0.1l0,0v0v0v0c0.3,0.3,0.1,0.1,0.2,0.2l0,0l0,0
					l-0.2,0l-0.3,0c-0.9,0-1.8,0-2.6,0.1c-1.1,0-2.3,0-3.4,0.1c-1.8,0.1-3.7,0-5.5-0.1c-0.8,0-1.6,0.1-2.4,0.1c-0.8,0-1.5,0-2.3,0.1
					c-0.5,0-1,0.1-1.4,0.1c-1.8,0-3.6-0.1-5.4-0.1l-1.4,0l-0.7,0l-0.2,0l-0.1,0l0,0l0,0l0,0h0c-0.1,0.1,0.5-0.5,0.3-0.3l0,0l0,0
					c0,0.1,0,0.2,0,0.3c0.1,0.9,0.6,1.7,1.3,2.2c0.4,0.3,0.9,0.4,1.4,0.5c0.5,0,1.1,0,1.6,0c0.4,0,0.9,0.1,1.3,0.1
					c0.4,0,0.7,0,1.1,0c0.3,0,5.1,0,7.1,0c2.6,0,5.3,0,7.9,0c0.2,0,0.4,0,0.6,0c0.1,0,0.3,0.1,0.3,0.2c0,0.1-0.2,0.2-0.3,0.3
					c-0.1,0.1-0.3,0.1-0.4,0.1l-4.2,0c-2.5,0-4.9,0-7.4-0.1C128.3,169.3,126.5,169.4,124.6,169.4L124.6,169.4z"/>
			</g>
		</g>
	</g>
	<g>
		<g>
			<g>
				<path class="isaq1" d="M133.7,9.4c-0.2,0.1-0.4,0.3-0.6,0.3c-0.1,0-0.2,0.1-0.4,0.1c-0.1,0-0.3,0-0.4,0c-0.2,0-0.4-0.1-0.5-0.2
					c-0.1,0-0.1-0.1-0.2-0.1c0,0-0.1,0-0.1-0.1c-0.1,0-0.4-0.4-0.5-0.5c-0.1-0.1-0.1-0.2-0.2-0.3c-0.1-0.1-0.1-0.2-0.1-0.2
					c0-0.2-0.1-0.3,0-0.5c0-0.2,0.1-0.4,0.1-0.6c0.1-0.3,0.3-0.6,0.6-0.7c0.4-0.3,0.8-0.4,1.2-0.3c0.2,0,0.4,0.1,0.6,0.2
					c0.1,0,0.1,0.1,0.2,0.1c0.2,0.1,0.3,0.2,0.4,0.4c0.2,0.2,0.3,0.5,0.4,0.8c0,0.1,0,0.1,0,0.2c0,0.1,0,0.1,0,0.2c0,0,0,0,0,0
					c0,0,0,0,0,0c0,0,0,0,0,0c0,0,0,0,0,0c0-0.1,0-0.2,0-0.2c-0.1-0.3-0.2-0.6-0.4-0.9c-0.1-0.1-0.6-0.5-0.6-0.4
					c-0.1-0.1-0.3-0.1-0.4-0.1c-0.2-0.1-0.5,0-0.7,0c-0.2,0-0.3,0.1-0.5,0.2c0,0-0.2,0.1-0.3,0.2c-0.2,0.1-0.3,0.3-0.4,0.4
					c0,0,0,0.1-0.1,0.1c0,0,0,0.1,0,0.1c-0.1,0.3-0.1,0.5-0.1,0.8c0,0.1,0,0.2,0,0.3c0,0.1,0.1,0.2,0.1,0.3c0,0.1,0.1,0.2,0.2,0.3
					c0,0.1,0.1,0.1,0.2,0.2c0.1,0.1,0.1,0.1,0.2,0.2c0,0,0.1,0.1,0.1,0.1c0,0,0.1,0.1,0.1,0.1c0.1,0,0.2,0.1,0.3,0.1
					c0.1,0,0.2,0.1,0.3,0.1c0.1,0,0.2,0,0.3,0c0.2,0,0.3,0,0.5,0c0.1,0,0.2,0,0.3-0.1c0.1,0,0.1-0.1,0.2-0.1
					c0.1-0.1,0.3-0.2,0.4-0.3c0.1-0.1,0.3-0.3,0.3-0.5c0.1-0.1,0.1-0.2,0.1-0.4c0-0.1,0-0.2,0-0.3c0,0,0,0,0,0c0,0,0,0,0,0
					c0,0,0,0,0,0c0,0,0,0,0,0.1c0,0.1,0,0.3,0,0.4c0,0.1-0.1,0.3-0.1,0.4c-0.1,0.1-0.1,0.2-0.2,0.3C133.9,9.2,133.8,9.3,133.7,9.4
					L133.7,9.4z"/>
			</g>
		</g>
	</g>
	<g>
		<g>
			<g>
				<path class="isaq1" d="M91.5,141.7l26.2,0l13.7,0c1.5,0,3-0.2,4.5-0.2c4.4,0,8.8,0.1,13.2,0.1c6.1,0,12.2-0.2,18.3-0.2
					c5.3,0,10.5,0.1,15.8,0.2l14.5,0.1l10.9,0.1c0.1,0,0.8,0,1.7,0c0.5,0,1,0,1.6,0c0.3,0,0.5,0,0.8,0c-0.1-0.1-0.2-0.3-0.3-0.4
					l-1.6-2l-6.5,0l-6.7,0c-8.2-0.1-16.3-0.3-24.5-0.3c-4.6,0-9.2,0.3-13.8,0.4c-1.5,0-3-0.1-4.5-0.1c-0.5,0-1.1-0.1-1.6-0.1
					c-3.5,0.1-7.1,0.1-10.6,0.2c-2.9,0-5.8-0.1-8.7-0.1c-1.8,0-3.5,0-5.3,0c-2.2,0-4.4,0.2-6.6,0.2l-25.4,0
					c-9.1-0.1-33.8-0.1-37.2,0c-1.8,0.1-3.5-0.1-5.3,0c-0.3,0-0.5-0.7-0.3-0.8c0.4-0.1,0.9-0.1,1.3-0.1c2.8-0.1,5.5,0,8.3-0.1
					c1.4,0,6.7,0.1,8,0.1c3.3-0.1,6.6-0.3,10-0.3c4.9,0,9.9,0,14.8,0.1c2.6,0,5.1,0.1,7.7,0.1c3.6-0.1,7.2,0.2,10.8,0.2
					c4.3,0,8.6-0.2,12.9-0.2c3.3,0,6.5,0.1,9.8,0.1c3.8,0,7.5,0,11.3-0.1l11.7-0.1l9.2-0.2c3.5,0,7-0.1,10.5-0.1l15.3,0.1
					c4.1,0,8.3-0.2,12.4-0.1l3.7,0c1.2,1.5,2.3,3.1,3.5,4.6c-1.1,0-2.2,0-3.3,0c-7.5,0.1-15-0.1-22.5-0.2
					c-5.8-0.1-11.6-0.2-17.4-0.3c-2.7,0-5.5,0.2-8.2,0.2c-1.2,0-2.3-0.1-3.5-0.1c-3.6,0-7.2,0.2-10.8,0.2c-5.8,0-11.7,0.1-17.5-0.1
					c-4.7-0.1-9.3,0.1-14,0.2l-1.9,0l-33.8,0l-26.2-0.2c-0.6,0-1.3,0-1.9,0l-3.2,0.1l1.3-2.2c0.4-0.6,0.8-1.1,1.2-1.6
					c0.1-0.1,0.4-0.1,0.6-0.1c0.1,0,0.1,0.4,0.1,0.5c-0.2,0.4-0.4,0.9-0.6,1.3l-0.7,1l2.4,0l3.2,0l21.7,0L91.5,141.7L91.5,141.7z"/>
			</g>
		</g>
	</g>
	<g>
		<g>
			<g>
				<path class="isaq1" d="M228.9,70.5c0.2-6.8,0.6-14.6,0.7-22.4c0.1-7.9,0.4-15.8-0.2-23.7c-0.2-3.5-0.1-7.2-0.1-10.8l0-2.4l-12.1,0
					l-12.4,0c-5.4,0-10.9,0.2-16.3,0c-2.7-0.1-5.5,0.2-8.3,0.2c-3.5-0.1-7-0.2-10.4-0.6c-3.8-0.4-7.5-0.3-11.3-0.2
					c-2,0.1-4.1,0.2-6.1,0.2c-5.2,0-10.5-0.1-15.7,0c-3.8,0.1-7.5,0.4-11.3,0.5c-0.6,0-1.2,0.1-1.8,0.1c-9.7,0.1-19.5,0.3-29.2,0.3
					c-11.2,0-22.4-0.1-33.6-0.4c-6.4-0.2-12.9-0.1-19.3-0.8c-1.2-0.1-2.5-0.1-3.7-0.1l-2.6,0l0,10l0,9.7c0.1,11.1,0.2,22.2,0.4,33.2
					c0.1,5.6,0.5,11.3,0.5,16.9c0,9.8-0.2,19.7-0.3,29.5c0,2.1-0.1,4.3-0.3,6.4c-0.4,4.3-0.2,8.5,0,12.9l3.4-0.2
					c0.7-0.1,1.4-0.1,2.2-0.1c8.2,0,16.4-0.2,24.6-0.1c8.8,0.1,17.6,0.4,26.5,0.6c2.2,0,4.5-0.1,6.8-0.1c10-0.1,19.9-0.3,29.9-0.3
					c5.9,0,11.9,0.3,17.8,0.3c7.8-0.1,15.6-0.4,23.3-0.6c0.7,0,1.5,0,2.1,0.1c2.6,0.6,5.2,0.5,7.9,0.3c1.5-0.1,3.1-0.1,4.6-0.1
					c2.4,0,4.7,0.2,7.1,0.2c7.4,0,14.8,0,22.2,0c3.5,0,7-0.2,10.4-0.3c1.5,0,3.1,0,4.6,0.1c0.2,0,0.5,0.2,0.7,0.2
					c-0.3,0.1-0.6,0.3-0.9,0.3c-4.2,0.1-8.4,0.3-12.6,0.3c-8.9,0-17.9,0-26.8,0c-3.8,0-7.6-0.2-11.4-0.2c-3.6,0-7.2,0.3-10.8,0.2
					c-7.3-0.3-14.5,0-21.8,0.3c-3.5,0.2-7.2,0-10.7-0.2c-7.5-0.4-14.9-0.2-22.4-0.1c-9,0.2-18.1,0.2-27.1-0.1
					c-8.5-0.3-17-0.2-25.5-0.2c-7.1,0-14.2,0.2-21.2,0.3c-1,0-1.5,0.1-3.5,0.1l-0.1-1.6l-0.1-0.9c0-0.6,0-1.2,0-1.8
					c0-4.4,0.2-8.8,0.4-13.2c0.1-3.4,0.2-6.8,0.3-10.1c0.1-8.2,0.3-16.4,0.3-24.6c0-1.8-0.2-3.6-0.3-5.5c-0.1-1.5-0.3-3-0.3-4.6
					l-0.4-54.8l0-2.8l2.1,0l1.2,0l2.4,0.1c1.6,0.1,3.2,0.1,4.8,0.2c10.5,0.5,21,0.9,31.6,0.7c5.7-0.1,11.5,0.2,17.2,0.2
					c4.8,0,9.6-0.3,14.4-0.4c2.3,0,4.7,0,7,0l12.6-0.2c4-0.1,8-0.3,12-0.3c4.2,0,8.4,0.1,12.6,0c2.6,0,5.1-0.2,7.7-0.2
					c1.7,0,3.5,0,5.2,0l3-0.1c0.8,0,1.6,0,2.4,0.1c2.7,0.2,5.5,0.6,8.2,0.5c5.7-0.2,11.3,0.1,16.9,0l29.9-0.3l1.8,0l2.3,0
					c-0.1,2.2-0.1,4.3-0.2,6.5c0,2,0,4,0.1,6c0.3,6.7,0.3,13.3,0.2,20c-0.1,4.4-0.4,8.8-0.5,13.2c0,1.5,0.1,3,0.2,4.5
					c0,0.6,0.1,1.2,0.1,1.8c-0.1,4.5-0.2,9-0.2,13.5c0,3.1,0.2,6.1,0.2,9.2l0,15.7l0.2,20.9c0,2.1-0.2,4.3-0.3,6.4l-0.1,0.9
					c0,0-0.4,0.1-0.4-0.3c-0.1-3,0.2-6.8,0.1-9.8l-0.2-29.6C229.3,83.6,229.1,77.6,228.9,70.5z"/>
			</g>
		</g>
	</g>
</g>
<g>
	<g>
		<g>
			<g>
				<path class="isaq1" d="M9.8,172.6l-1.4,0c-0.4,0-0.9,0-1.3,0c0-0.3,0-0.6,0-0.9c0-0.7,0-1.5,0.1-2.2c0-0.3,0-0.5,0-0.8
					c0.4,0,0.8,0,1.3,0.1c0.3,0,0.6,0,1,0c0.6,0,1.3,0,1.9-0.1c1-0.1,2-0.1,3,0c0.6,0.1,1.2,0,1.8,0c0.6,0,1.2,0,1.9,0
					c0.5,0,1.1,0,1.6,0l0,1.5c0,0.4,0,0.8,0,1.2c0,0.2,0,0.4,0,0.7c0,0,0,0.1-0.1,0.1c-0.1,0-0.2,0.1-0.2,0.1
					c-0.1,0-0.2-0.1-0.2-0.1c0,0,0-0.1,0-0.1c0-0.3,0-0.6,0.1-0.9c0,0,0-0.1,0-0.2c0-0.1,0-0.2,0-0.3l0-0.8l0-0.4l0-0.2l-0.2,0
					l-0.1,0l-0.2,0l-0.6,0c-0.6,0-1.2,0-1.8,0.1c-1,0.1-2,0-3-0.1c-0.4,0-0.9,0.1-1.3,0.1c-0.4,0-0.8,0-1.2,0.1
					c-0.3,0-0.5,0.1-0.8,0.1c-0.4,0-0.8,0-1.2-0.1l-0.6,0l-0.2,0l0,0l-0.1,0l0,0.1c0,0.8-0.1,1.7-0.1,2.5l0.1,0c0.6,0,1.1,0,1.6,0
					c0.2,0,0.5,0.1,0.7,0.1c0.2,0,0.4,0,0.6,0c0.2,0,2.7,0,3.8,0c1.4,0,2.8,0,4.2,0c0.1,0,0.2,0,0.3,0c0.1,0,0.2,0.1,0.1,0.3
					c0,0.1-0.1,0.2-0.1,0.3c-0.1,0.1-0.2,0.1-0.2,0.1c-0.8,0-1.5,0-2.3,0c-1.3,0-2.7-0.1-4-0.1C11.7,172.5,10.7,172.6,9.8,172.6
					L9.8,172.6z"/>
			</g>
		</g>
	</g>
	<g>
		<g>
			<g>
				<path class="isaq1" d="M247.4,172.6l-1.4,0c-0.4,0-0.9,0-1.3,0c0-0.3,0-0.6,0-0.9c0-0.7,0-1.5,0.1-2.2c0-0.3,0-0.5,0-0.8
					c0.4,0,0.8,0,1.3,0.1c0.3,0,0.6,0,1,0c0.6,0,1.3,0,1.9-0.1c1-0.1,2-0.1,3,0c0.6,0.1,1.2,0,1.8,0c0.6,0,1.2,0,1.9,0
					c0.5,0,1.1,0,1.6,0l0,1.5c0,0.4,0,0.8,0,1.2c0,0.2,0,0.4,0,0.7c0,0,0,0.1-0.1,0.1c-0.1,0-0.2,0.1-0.2,0.1
					c-0.1,0-0.2-0.1-0.2-0.1c0,0,0-0.1,0-0.1c0-0.3,0-0.6,0.1-0.9c0,0,0-0.1,0-0.2c0-0.1,0-0.2,0-0.3l0-0.8l0-0.4l0-0.2l-0.2,0
					l-0.1,0l-0.2,0l-0.6,0c-0.6,0-1.2,0-1.8,0.1c-1,0.1-2,0-3-0.1c-0.4,0-0.9,0.1-1.3,0.1c-0.4,0-0.8,0-1.2,0.1
					c-0.3,0-0.5,0.1-0.8,0.1c-0.4,0-0.8,0-1.2-0.1l-0.6,0l-0.2,0l0,0l-0.1,0l0,0.1c0,0.8-0.1,1.7-0.1,2.5l0.1,0c0.6,0,1.1,0,1.6,0
					c0.2,0,0.5,0.1,0.7,0.1c0.2,0,0.4,0,0.6,0c0.2,0,2.7,0,3.8,0c1.4,0,2.8,0,4.2,0c0.1,0,0.2,0,0.3,0c0.1,0,0.2,0.1,0.1,0.3
					c0,0.1-0.1,0.2-0.1,0.3c-0.1,0.1-0.2,0.1-0.2,0.1c-0.8,0-1.5,0-2.3,0c-1.3,0-2.7-0.1-4-0.1C249.4,172.5,248.4,172.6,247.4,172.6
					L247.4,172.6z"/>
			</g>
		</g>
	</g>
</g>
<g>
	<g>
		<g>
			<path class="isaq1" d="M170.1,116.6l-4.6-0.9c-1.5-0.3-3.1-0.6-4.7-0.8c-1.9-0.3-8.6-1.6-9.8-1.6c-3.5-0.3-7-0.6-10.5-0.6
				c-5.7,0-11.5,0.1-17.2,0.2c-1.6,0.1-3.1,0.1-4.7,0.1c-0.1,0-0.9,0.1-2.3,0.1c-1.4,0.1-3.2,0.2-5.2,0.4c-4,0.4-8.8,1-11.9,1.7
				c-1.7,0.4-3.4,0.8-5.1,1.2l-2.5,0.6l-1.3,0.3l-0.6,0.1c-0.2,0-0.4,0.1-0.5-0.1l-0.6-0.7c-2.3-2.7-4.3-5.6-6-8.7
				c-1.7-3.1-3.2-6.4-4.1-9.8c-1.1-4.3-2.2-8.6-2.3-13c0-1.8,0-3.6,0.1-5.4l0.2-2.7c0-0.4,0-0.9,0.1-1.3l0.2-1.3
				c0.2-1.3,0.3-2.7,0.5-4c0.3-1.3,0.6-2.7,0.9-4c0.2-1.1,0.6-2.2,1-3.3c0.4-1.1,0.7-2.2,1.2-3.2c0.4-0.9,0.9-1.7,1.3-2.5
				c0.5-0.8,0.9-1.7,1.4-2.5c0,0,0.2-0.4,0.6-0.9c0.3-0.5,0.8-1.2,1.3-2c0.5-0.8,1.2-1.6,1.7-2.4c0.6-0.8,1.1-1.5,1.5-2.2
				c1.1-1.6,2.5-2.9,3.8-4.4l3.1-2.8l0.8-0.7l0.8-0.6l1.7-1.3c1.5-1.2,3.2-2.2,4.9-3.1c3.3-1.8,6.7-3.6,10.3-4.7
				c0.7-0.2,1.3-0.4,2-0.6c0.7-0.2,1.3-0.3,2-0.5c0.7-0.2,1.3-0.4,2-0.5c0.7-0.1,1.4-0.2,2.1-0.4c0.7-0.1,1.3-0.2,2-0.3
				c0.7-0.1,1.3-0.2,2-0.2l4.1-0.2c0.2,0,0.5,0,0.7,0.1c0.1,0,0.2,0.2,0.2,0.3s-0.2,0.3-0.3,0.3c-0.2,0.1-0.4,0.1-0.7,0.1l-2.7,0.1
				c-0.7,0.1-1.4,0.1-2.1,0.2l-2.1,0.3c-1.4,0.3-2.8,0.4-4.1,0.8c-1.4,0.4-2.8,0.8-4.2,1.2l-4,1.6c-1.9,0.8-6.5,3-6.9,3.4
				c-1.1,0.6-2.2,1.2-3.2,1.9l-3,2.2c-0.8,0.5-1.4,1.2-2.2,1.8l-2.1,1.9c-1.3,1.3-2.6,2.7-3.9,4.1c-1,1.3-1.8,2.6-2.8,3.9
				c-0.7,1-1.3,2-2,3l-1,1.5c-0.3,0.5-0.5,1.1-0.8,1.6c-1.5,2.9-2.5,6-3.4,9.1c-0.2,0.9-0.6,1.7-0.8,2.6c-0.4,1.6-0.5,3.2-0.8,4.8
				c-0.1,0.8-0.3,1.6-0.4,2.4l-0.2,2.4c-0.3,3.2-0.3,6.5,0,9.7c0.1,1.3,0.5,3.6,1,5.7c0.5,2.1,1.1,3.8,1.1,4.2
				c1.7,5.1,4,10,7.1,14.3c0.6,0.9,1.3,1.7,1.9,2.5l1,1.2l0.2,0.2c0.1,0,0.2,0,0.3,0l0.7-0.2c2.6-0.6,5.2-1.1,7.8-1.7
				c6.4-1.2,12.8-1.9,19.3-2.3c2.2-0.1,4.4-0.3,6.6-0.3c2.5-0.1,5.1,0,7.6,0c2.8,0,5.7-0.1,8.5-0.1c0.9,0,1.9,0.1,2.8,0.1
				c4.5,0.3,8.9,0.6,13.3,1.4c1.6,0.3,3.2,0.5,4.9,0.8c1.6,0.3,3.2,0.6,4.8,0.9l3.6,0.7l1.8,0.3l0.2,0l0.1-0.2l0.6-0.7
				c1.5-1.9,2.9-3.9,4.1-5.9c0.9-1.5,1.6-3,2.3-4.6c0.5-1.1,1.1-2.2,1.6-3.3c1.6-3.3,2.7-6.8,3.3-10.3c0.3-1.9,0.7-3.8,0.9-5.8
				c0.1-1.1,0.2-2.1,0.2-3.2c0.1-0.8-0.1-2-0.1-3.3c0-0.6-0.1-1.3-0.1-2c0-0.3,0-0.7-0.1-1c-0.1-0.3-0.1-0.7-0.2-1
				c-0.5-2.6-0.8-4.8-0.9-4.9c-0.4-1.4-0.9-2.8-1.2-4.2c-0.9-2.7-1.7-5.5-3-8l-0.9-2c-0.3-0.6-0.7-1.2-1.1-1.9
				c-1-1.9-3.3-5.3-5.9-8.1c-2.4-2.9-5.1-5-5.7-5.5c-0.7-0.6-1.4-1.1-2.1-1.6c-2.4-2-5.2-3.5-8-4.8c-0.8-0.3-1.6-0.7-2.4-1.1
				c-0.8-0.4-1.6-0.8-2.4-1.1c-0.8-0.3-1.7-0.7-2.5-1c-0.8-0.4-1.6-0.8-2.5-1.1c-0.5-0.2-1-0.3-1.6-0.5l-2.4-0.6
				c-0.8-0.2-1.7-0.2-2.5-0.4c-1.7-0.2-3.3-0.5-5-0.5c-1.1,0-2.1-0.2-3.2-0.3c-0.1,0-0.2,0-0.3-0.1c-0.1-0.1-0.2-0.2-0.2-0.2
				c0-0.1,0.1-0.2,0.2-0.3c0.1-0.1,0.3-0.1,0.4-0.1c0.4,0,1.4,0.1,2.5,0.1c1.2,0.1,2.6,0.1,4.1,0.4c1.5,0.2,3,0.4,4.2,0.7
				c1.3,0.3,2.3,0.6,3,0.8c0.7,0.2,1.4,0.4,2,0.7c3.9,1.7,7.8,3.1,11.5,5.1c0.3,0.1,0.5,0.3,0.8,0.4c0.3,0.2,0.8,0.5,1.4,0.8
				c0.7,0.4,1.4,1,2.3,1.6c0.8,0.6,1.9,1.3,2.8,2.1c0.9,0.8,1.9,1.7,2.9,2.6c3.8,3.7,7.1,8,7.9,9.5c0,0.1,0.4,0.6,0.9,1.5
				c0.5,0.9,1.3,2.1,1.9,3.5c0.3,0.7,0.7,1.4,1,2.2c0.3,0.7,0.7,1.5,0.9,2.2c0.5,1.5,1,2.9,1.4,4c0.4,1.7,0.9,3.3,1.4,4.9
				c0.4,1.7,0.7,3.4,0.9,5.1c0.1,0.7,0.2,1.5,0.2,2.3c0.1,0.8,0.1,1.5,0.2,2.3l0.1,1.7c0,0.6-0.1,1.1-0.1,1.7c0,1.1-0.2,2.3-0.3,3.4
				c-0.1,1-0.3,2-0.4,2.9c-0.7,4.4-1.9,8.8-3.7,12.8c-1,2.3-2.3,4.5-3.6,6.6c-0.4,0.7-0.9,1.4-1.3,2.2c-0.4,0.7-0.9,1.4-1.3,2.1
				c-0.6,0.9-1.2,1.8-1.9,2.7l-0.5,0.6l-0.4,0.4l-0.1,0.1c0,0-0.1,0-0.1,0l-0.3-0.1L170.1,116.6L170.1,116.6z"/>
		</g>
	</g>
</g>
<g>
	<g>
		<g>
			<path class="isaq1" d="M140.4,88.5l6.6,3.9l3.4,2c0.4,0.2,0.8,0.4,1.2,0.6c1.1,0.7,2.2,1.4,3.3,2c1.6,0.9,3.2,1.7,4.7,2.5l1,0.5
				l0.5,0.3l0.1,0c0,0,0,0,0,0l0,0l0,0.1c0,0.1,0,0.1,0,0.2c0,0.1,0,0.1,0,0.1c-0.1,0-0.1,0-0.2,0c-0.1,0-0.1,0-0.2,0.1
				c0,0,0,0,0,0.1c0,0,0,0.1,0,0.1l0,0l-0.1-0.1c-0.5-0.5-1.2-1-1.8-1.4c-1.1-0.9-2.3-1.7-3.4-2.5L153,95c0,0-1-0.7-1.5-0.9
				c-1.3-0.9-2.7-1.8-4-2.7c-1.9-1.4-3.8-2.8-5.8-4.2c-1.1-0.8-2.3-1.4-3.5-2.1c-0.4-0.2-0.7-0.5-1-0.8c-0.1-0.1-0.2-0.2-0.4-0.3
				l-1.3-0.8c-0.4-0.3-0.9-0.5-1.3-0.9c-0.2-0.2-0.3-0.5-0.3-0.8c0-0.2,0-0.4,0-0.6c0-0.4-0.2-0.8-0.3-1.1c-0.2-0.4-0.5-0.8-0.9-1
				c-0.5-0.3-1.1-0.4-1.6-0.5c-0.3,0-0.5,0-0.8,0.1c-0.1,0-0.3,0.1-0.4,0.1c-0.1,0-0.2,0.1-0.5,0.2c-0.4,0.1-0.8,0.1-1.2,0
				c-0.2-0.1-0.4-0.2-0.5-0.3l-0.4-0.3l-2.9-2c0,0,0,0,0,0c-0.3,0.4-0.7,1.1-1.1,1.7c0.6,0.3,1.2,0.7,1.8,1.1c0.4,0.2,0.7,0.4,1,0.6
				c0.3,0.2,0.6,0.3,1,0.7c0.3,0.3,0.5,0.7,0.6,1.1c0,0.4,0,0.6,0.1,0.8c0.1,0.4,0.3,0.7,0.4,0.9c0.3,0.4,0.5,0.8,0.9,1
				c0.1,0-0.1,0.4-0.2,0.5c-0.1,0-0.2-0.1-0.3-0.2c-0.7-0.5-1.1-1.3-1.3-2.1c0-0.1-0.1-0.3-0.1-0.5c0-0.2,0-0.4-0.1-0.6
				c-0.1-0.4-0.5-0.6-0.7-0.7c-0.9-0.5-1.7-0.9-2.6-1.3l-1.5-0.9c1-1.5,1-1.5,1.9-2.9l0.2,0.1l0.6,0.5l0.5,0.3
				c0.3,0.2,0.6,0.4,0.9,0.6c0.4,0.3,0.9,0.6,1.3,0.9c0.2,0.2,0.4,0.3,0.6,0.4c0.2,0.1,0.5,0.2,0.7,0.1c0.3,0,0.5-0.2,0.9-0.3
				c0.3-0.1,0.6-0.2,1-0.2c0.7,0,1.3,0.1,1.9,0.5c0.9,0.5,1.5,1.4,1.7,2.4c0.1,0.3,0.1,0.6,0.1,0.8c0,0.3,0.1,0.4,0.3,0.6
				c0.4,0.3,0.9,0.6,1.3,0.9l2.9,1.9c0.8,0.5,1.5,1,2.3,1.4c0.9,0.5,1.7,1.1,2.6,1.7c1.2,0.9,2.4,1.7,3.6,2.6c1,0.7,2,1.3,3,2
				c0.8,0.5,1.5,1.1,2.2,1.6c1.8,1.2,3.6,2.5,5.3,3.8c0.7,0.5,1.3,1,2,1.6c0.3,0.3,0.7,0.5,1,0.8l0.2,0.2l0.1,0.1
				c0,0,0.1,0.1,0.1,0.2l0,0l0,0c0,0.1,0,0,0,0.1l0,0l0,0c0,0,0,0-0.1,0c-0.1,0-0.1,0-0.1,0c0,0-0.1,0-0.1,0
				c-0.2-0.1-0.4-0.2-0.6-0.3c-0.7-0.4-1.5-0.7-2.2-1c-0.3-0.2-0.6-0.4-0.9-0.6c-0.9-0.5-1.9-0.9-2.8-1.5c-1.5-0.8-3-1.7-4.4-2.6
				c-1.1-0.8-2.4-1.3-3.6-1.9c-0.2-0.1-0.3-0.2-0.5-0.3l-8.5-5l-3.3-2c-0.5-0.3-1.1-0.8-1.6-0.9c-0.1,0-0.2,0-0.3,0
				c-0.1,0-0.3,0.1-0.4,0.2c-0.3,0.1-0.7,0.2-1,0.2c-0.6,0-1.1,0-1.7-0.2c-0.2-0.1-0.4-0.2-0.5-0.4c0,0,0-0.2,0.1-0.3
				c0-0.1,0.2-0.1,0.2-0.1c0.1,0,0.3,0,0.4,0.1c0.7,0.3,1.5,0.4,2.2,0.2c0.1,0,0.2-0.1,0.4-0.1c0.1,0,0.2-0.1,0.4-0.2
				c0.3-0.1,0.7,0,0.9,0.1c0.5,0.3,0.9,0.5,1.4,0.8l2.7,1.6L140.4,88.5L140.4,88.5z"/>
		</g>
	</g>
</g>
<ellipse transform="matrix(0.5367 -0.8437 0.8437 0.5367 -8.1195 148.0618)" class="isaq4" cx="130.8" cy="81.4" rx="1.3" ry="1.3"/>
<g>
	<g>
		<line class="isaq1" x1="130.9" y1="39.8" x2="130.9" y2="45.5"/>
		<g>
			<g>
				<path class="isaq1" d="M130.6,40.7c0-0.2,0-0.4,0.1-0.7c0,0,0-0.1,0.1-0.1c0-0.1,0.1-0.1,0.3-0.1c0.1,0,0.2,0,0.2,0.1
					c0,0,0,0.1,0,0.1c-0.2,0.8-0.1,1.5-0.1,2.3c0,0.1,0,0.2,0,0.3c0,0.8,0,1.7,0.1,2.5c0,0.1,0,0.1,0,0.2c0,0.1-0.1,0.1-0.2,0.1
					c-0.1,0-0.2,0-0.2-0.1c0,0,0-0.1,0-0.1c0-0.2-0.1-0.5-0.1-0.7c0-0.6,0-1.2-0.1-1.8C130.6,42.7,130.6,41.4,130.6,40.7z"/>
			</g>
		</g>
	</g>
</g>
<g>
	<g>
		<line class="isaq1" x1="173.2" y1="82.1" x2="167.5" y2="82.1"/>
		<g>
			<g>
				<path class="isaq1" d="M172.3,81.8c0.2,0,0.4,0,0.7,0.1c0,0,0.1,0,0.1,0.1c0.1,0,0.1,0.1,0.1,0.3c0,0.1,0,0.2-0.1,0.2
					c0,0-0.1,0-0.1,0c-0.8-0.2-1.5-0.1-2.3-0.1c-0.1,0-0.2,0-0.3,0c-0.8,0-1.7,0-2.5,0.1c-0.1,0-0.1,0-0.2,0c-0.1,0-0.1-0.1-0.1-0.2
					c0-0.1,0-0.2,0.1-0.2c0,0,0.1,0,0.1,0c0.2,0,0.5-0.1,0.7-0.1c0.6,0,1.2,0,1.8-0.1C170.3,81.8,171.7,81.8,172.3,81.8z"/>
			</g>
		</g>
	</g>
	<g>
		<line class="isaq1" x1="94.3" y1="82.1" x2="88.6" y2="82.1"/>
		<g>
			<g>
				<path class="isaq1" d="M93.4,81.8c0.2,0,0.4,0,0.7,0.1c0,0,0.1,0,0.1,0.1c0.1,0,0.1,0.1,0.1,0.3c0,0.1,0,0.2-0.1,0.2
					c0,0-0.1,0-0.1,0c-0.8-0.2-1.5-0.1-2.3-0.1c-0.1,0-0.2,0-0.3,0c-0.8,0-1.7,0-2.5,0.1c-0.1,0-0.1,0-0.2,0c-0.1,0-0.1-0.1-0.1-0.2
					c0-0.1,0-0.2,0.1-0.2c0,0,0.1,0,0.1,0c0.2,0,0.5-0.1,0.7-0.1c0.6,0,1.2,0,1.8-0.1C91.4,81.8,92.7,81.8,93.4,81.8z"/>
			</g>
		</g>
	</g>
</g>
<g>
	<g>
		<line class="isaq1" x1="167.5" y1="61" x2="162.6" y2="63.8"/>
		<g>
			<g>
				<path class="isaq1" d="M166.6,61.1c0.2-0.1,0.4-0.2,0.6-0.3c0,0,0.1,0,0.1,0c0.1,0,0.1,0.1,0.2,0.2c0.1,0.1,0.1,0.2,0,0.3
					c0,0-0.1,0.1-0.1,0.1c-0.7,0.2-1.4,0.7-2,1.1c-0.1,0.1-0.2,0.1-0.3,0.2c-0.7,0.4-1.4,0.9-2.2,1.3c0,0-0.1,0.1-0.1,0.1
					c-0.1,0-0.1,0-0.2-0.1c-0.1-0.1-0.1-0.2,0-0.3c0,0,0-0.1,0.1-0.1c0.2-0.1,0.4-0.3,0.6-0.4c0.5-0.3,1-0.6,1.6-1
					C164.9,62.1,166,61.4,166.6,61.1z"/>
			</g>
		</g>
	</g>
	<g>
		<line class="isaq1" x1="99.2" y1="100.4" x2="94.3" y2="103.3"/>
		<g>
			<g>
				<path class="isaq1" d="M98.3,100.6c0.2-0.1,0.4-0.2,0.6-0.3c0,0,0.1,0,0.1,0c0.1,0,0.1,0.1,0.2,0.2c0.1,0.1,0.1,0.2,0,0.3
					c0,0-0.1,0.1-0.1,0.1c-0.7,0.2-1.4,0.7-2,1.1c-0.1,0.1-0.2,0.1-0.3,0.2c-0.7,0.4-1.4,0.9-2.2,1.3c0,0-0.1,0.1-0.1,0.1
					c-0.1,0-0.1,0-0.2-0.1c-0.1-0.1-0.1-0.2,0-0.3c0,0,0-0.1,0.1-0.1c0.2-0.1,0.4-0.3,0.6-0.4c0.5-0.3,1-0.6,1.6-1
					C96.5,101.6,97.7,100.9,98.3,100.6z"/>
			</g>
		</g>
	</g>
</g>
<g>
	<g>
		<line class="isaq1" x1="94.3" y1="61" x2="99.2" y2="63.8"/>
		<g>
			<g>
				<path class="isaq1" d="M94.9,61.7c-0.2-0.1-0.4-0.3-0.5-0.4c0,0-0.1-0.1-0.1-0.1c0-0.1,0-0.2,0.1-0.3c0.1-0.1,0.1-0.2,0.2-0.2
					c0,0,0.1,0,0.1,0c0.6,0.5,1.3,0.8,1.9,1.2c0.1,0.1,0.2,0.1,0.3,0.2c0.7,0.4,1.5,0.8,2.2,1.2c0,0,0.1,0.1,0.1,0.1
					c0,0.1,0,0.1,0,0.3c-0.1,0.1-0.1,0.2-0.2,0.2c0,0-0.1,0-0.1,0c-0.2-0.1-0.4-0.2-0.7-0.3c-0.5-0.3-1.1-0.6-1.6-0.9
					C96.6,62.7,95.5,62,94.9,61.7z"/>
			</g>
		</g>
	</g>
	<g>
		<line class="isaq1" x1="162.6" y1="100.4" x2="167.5" y2="103.3"/>
		<g>
			<g>
				<path class="isaq1" d="M163.2,101.2c-0.2-0.1-0.4-0.3-0.5-0.4c0,0-0.1-0.1-0.1-0.1c0-0.1,0-0.2,0.1-0.3c0.1-0.1,0.1-0.2,0.2-0.1
					c0,0,0.1,0,0.1,0c0.6,0.5,1.3,0.8,1.9,1.2c0.1,0.1,0.2,0.1,0.3,0.2c0.7,0.4,1.5,0.8,2.2,1.2c0,0,0.1,0.1,0.1,0.1
					c0,0.1,0,0.1,0,0.3c-0.1,0.1-0.1,0.2-0.2,0.2c0,0-0.1,0-0.1,0c-0.2-0.1-0.4-0.2-0.7-0.3c-0.5-0.3-1.1-0.6-1.6-0.9
					C165,102.2,163.8,101.5,163.2,101.2z"/>
			</g>
		</g>
	</g>
</g>
<g>
	<g>
		<line class="isaq1" x1="112.6" y1="50.4" x2="109.8" y2="45.5"/>
		<g>
			<g>
				<path class="isaq1" d="M112.5,49.5c0.1,0.2,0.2,0.4,0.3,0.6c0,0,0,0.1,0,0.1c0,0.1-0.1,0.1-0.2,0.2c-0.1,0.1-0.2,0.1-0.3,0
					c0,0-0.1-0.1-0.1-0.1c-0.2-0.7-0.7-1.4-1.1-2c-0.1-0.1-0.1-0.2-0.2-0.3c-0.4-0.7-0.9-1.4-1.3-2.2c0,0-0.1-0.1-0.1-0.1
					c0-0.1,0-0.1,0.1-0.2c0.1-0.1,0.2-0.1,0.3,0c0,0,0.1,0,0.1,0.1c0.1,0.2,0.3,0.4,0.4,0.6c0.3,0.5,0.6,1,1,1.6
					C111.4,47.7,112.1,48.9,112.5,49.5z"/>
			</g>
		</g>
	</g>
</g>
<g>
	<g>
		<line class="isaq1" x1="152.1" y1="45.5" x2="149.2" y2="50.4"/>
		<g>
			<g>
				<path class="isaq1" d="M151.3,46.1c0.1-0.2,0.3-0.4,0.4-0.5c0,0,0.1-0.1,0.1-0.1c0.1,0,0.2,0,0.3,0.1c0.1,0.1,0.2,0.1,0.1,0.2
					c0,0,0,0.1,0,0.1c-0.5,0.6-0.8,1.3-1.2,1.9c-0.1,0.1-0.1,0.2-0.2,0.3c-0.4,0.7-0.8,1.5-1.2,2.2c0,0-0.1,0.1-0.1,0.1
					c-0.1,0-0.1,0-0.3,0c-0.1-0.1-0.2-0.1-0.2-0.2c0,0,0-0.1,0-0.1c0.1-0.2,0.2-0.4,0.3-0.7c0.3-0.5,0.6-1.1,0.9-1.6
					C150.3,47.8,151,46.7,151.3,46.1z"/>
			</g>
		</g>
	</g>
</g>
<g>
	<g>
		<g>
			<path class="isaq1" d="M105.6,41.3l2.7-1.7l2.9-1.4c0.3-0.1,0.8-0.4,1.4-0.6c0.6-0.2,1.3-0.4,2-0.6c1.4-0.4,2.6-0.8,3-0.9l3.4-0.9
				c1.1-0.3,2.3-0.4,3.5-0.7c1.9-0.5,3.8-0.5,5.8-0.7c1-0.1,1.9,0,2.9,0c1,0,1.9,0.1,2.9,0.2c1.1,0.2,2.1,0.4,3.1,0.6
				c0,0,0.6,0.1,1.5,0.3c0.9,0.2,2.1,0.6,3.4,0.9c0.3,0.1,0.7,0.2,1,0.3c0.3,0.1,0.7,0.2,1,0.4c0.7,0.3,1.4,0.5,2,0.8
				c1.4,0.4,2.5,1.1,3.5,1.5c2.2,0.9,4.3,2.1,6.3,3.3l2.9,2.1l0.7,0.5l0.7,0.6l1.3,1.2l1.3,1.2c0.4,0.4,0.8,0.9,1.2,1.3
				c0.8,0.9,1.6,1.7,2.3,2.7c0.8,1.2,1.7,2.4,2.6,3.6c0.8,1.3,1.6,2.5,2.2,3.8c0.4,1.1,0.9,2.2,1.4,3.3c0.3,0.5,0.5,1.1,0.7,1.7
				l0.6,1.7c0.7,1.7,1.2,3.4,1.7,5.2c0.1,0.4,0.2,0.7,0.3,1.1l0.2,1.1c0.1,0.8,0.3,1.5,0.4,2.3c0.2,1.3,0.1,2.6,0.1,3.8
				c0,0,0,1.1,0,2.3c-0.1,1.3-0.1,2.8-0.1,3.7c0,0.6,0,1.3-0.1,1.9c-0.1,0.6-0.2,1.3-0.3,1.9c-0.2,0.9-0.3,1.8-0.5,2.8
				c-0.2,0.9-0.4,1.8-0.7,2.7c-0.2,0.6-0.4,1.2-0.6,1.8c-0.2,0.6-0.4,1.2-0.7,1.8c-1,2.3-1.8,4.7-3.2,6.8c-0.5,0.8-1,1.6-1.5,2.4
				c-0.5,0.8-1,1.6-1.5,2.3c-1,1.5-2.2,2.9-3.5,4.2c-0.1,0.1-0.2,0.2-0.4,0.2c-0.1,0-0.2,0-0.3-0.1c-0.1-0.1-0.1-0.2-0.1-0.3
				c0.1-0.1,0.1-0.3,0.2-0.4c0.4-0.4,0.9-0.9,1.2-1.3c1.2-1.4,2.3-2.9,3.3-4.5c1-1.6,2-3.3,2.8-5.1c0.6-1.2,2-4.4,2.1-4.7
				c0.6-1.5,1.1-3.1,1.6-4.7c0.6-2.4,1.1-4.9,1.4-7.4c0.1-1.1,0.1-2.1,0.1-3.2c0.1-0.8,0-1.6,0-2.4c0-0.8,0-1.6-0.1-2.4
				c0-1.1-0.3-2.1-0.5-3.2c-0.2-1.1-0.3-2.1-0.6-3.2c-0.2-0.6-0.2-1.2-0.4-1.8c-0.2-0.5-0.3-1-0.5-1.6c-0.1-0.5-0.4-1-0.6-1.5
				c-0.4-1-0.7-2-1.1-3.1c-0.9-2-1.6-4-2.8-5.9c-0.4-0.8-1.2-2.2-2-3.3c-0.8-1.1-1.6-2.1-1.7-2.3c-0.6-0.7-1.2-1.3-1.8-2
				c-0.6-0.6-1.2-1.4-1.8-2l-2-1.8l-1-0.9l-1.1-0.8c-0.6-0.4-1.1-0.8-1.7-1.2l-0.9-0.6l-0.9-0.5c-1.5-0.9-3-1.8-4.6-2.5
				c-3.8-2-8-3.2-12.2-4.1l-2.2-0.3c-0.7-0.1-1.4-0.3-2.2-0.3c-0.8-0.1-1.7-0.1-2.5-0.2c-0.8-0.1-1.7-0.2-2.5-0.1
				c-1.9,0.2-3.8,0.2-5.6,0.7c-0.6,0.1-1.2,0.2-1.9,0.3c-2.9,0.5-5.7,1.4-8.5,2.3c-0.5,0.2-1,0.3-1.5,0.5l-1.5,0.7
				c-1,0.5-2,0.9-2.9,1.5l-2,1.3c-0.7,0.4-1.4,0.8-2,1.3l-1.9,1.5l-1,0.7l-0.9,0.8c-0.8,0.8-1.6,1.6-2.4,2.4
				c-0.5,0.6-1.2,1.1-1.8,1.7c-0.4,0.4-0.9,0.8-1.3,1.3c-0.4,0.4-0.8,0.9-1.2,1.4c-0.4,0.5-0.8,1-1.1,1.4c-0.4,0.5-0.7,1-1,1.5
				c-0.7,1.1-1.4,2.2-2.1,3.3c-0.3,0.6-0.7,1.3-1,1.9c-0.3,0.5-0.6,1.2-0.9,2c-0.3,0.8-0.6,1.7-0.9,2.5c-0.3,0.8-0.6,1.6-0.7,2.2
				c-0.1,0.6-0.2,1-0.2,1c-0.2,1-0.4,1.9-0.6,2.9c-0.3,0.9-0.4,1.9-0.6,2.8c-0.2,0.9-0.4,1.9-0.5,2.8c-0.1,1-0.1,1.9-0.2,2.9
				c-0.2,1.5,0,4.2,0.2,6.7c0.3,2.5,0.8,4.7,1,5.2c0.2,0.6,0.3,1.1,0.5,1.7c0.5,2,1.3,4,2.2,5.8c1.1,2.1,2.2,4.2,3.1,6.4
				c0.1,0.3,0.3,0.6,0.5,1c1.3,1.8,2.6,3.6,4.1,5.3c0.5,0.5,0.9,1.1,1.4,1.6c0,0.1,0.1,0.1,0.1,0.2c0,0.1,0,0.2-0.1,0.2
				c-0.1,0.1-0.2,0.1-0.2,0.1c-0.1,0-0.2-0.1-0.3-0.1c-0.2-0.2-0.6-0.7-1.2-1.3c-0.5-0.6-1.1-1.3-1.8-2.1c-1.2-1.6-2.4-3.3-2.9-4
				c-0.3-0.4-0.4-0.9-0.6-1.3c-1.2-2.6-2.5-5-3.7-7.6c-0.1-0.2-0.2-0.4-0.2-0.5c-0.3-0.8-1.5-4.1-2.1-7.6c-0.7-3.5-0.8-7.1-0.8-8.2
				c0-0.1,0.1-1.8,0.3-3.8c0-1,0.3-2.1,0.5-3.2c0.2-1,0.4-2,0.5-2.8c0.7-2.2,0.7-4.5,1.7-6.6c0.4-0.9,0.6-2,1-2.9
				c0.7-1.4,1.4-2.7,2.2-4c0.4-0.6,0.7-1.1,1.1-1.7c0.4-0.6,0.8-1.3,1.2-1.9l1.4-1.8l1.4-1.8l1.5-1.6c0.6-0.6,1.2-1.2,1.8-1.8
				c0.7-0.5,1.3-1,1.9-1.6c0.4-0.4,0.8-0.8,1.2-1.1c0.4-0.4,0.9-0.7,1.3-1.1C103.2,43.1,104.3,42.1,105.6,41.3L105.6,41.3z"/>
		</g>
	</g>
</g>
<g>
	<g>
		<g>
			<path class="isaq1" d="M154.2,46.9l-2.5-1.4c-0.8-0.5-1.7-0.8-2.6-1.2c-0.3-0.1-0.7-0.4-1.2-0.6c-0.5-0.3-1.1-0.5-1.7-0.8
				c-1.2-0.5-2.3-1-2.7-1.1l-3.1-0.8c-0.5-0.1-1-0.2-1.6-0.3c-0.5-0.1-1.1-0.1-1.6-0.2c-1.7-0.2-3.5-0.1-5.2-0.2
				c-0.9-0.1-1.7,0.1-2.6,0.1c-0.9,0.1-1.7,0.1-2.6,0.1c-0.9,0.1-1.9,0.2-2.8,0.3c0,0-0.6,0-1.4,0.2c-0.8,0.2-1.9,0.5-3.1,0.8
				c-2.4,0.7-5.1,1.7-6.8,2.7c-0.5,0.2-0.9,0.5-1.4,0.7l-1.3,0.9c-0.4,0.3-0.9,0.6-1.3,0.9c-0.4,0.3-0.9,0.6-1.3,0.9l-2.5,1.9
				l-2.3,2.1c-0.8,0.7-1.5,1.5-2.2,2.3l-1.1,1.2c-0.4,0.4-0.7,0.8-1,1.2c-0.8,1-1.7,2-2.3,3.2c-0.7,1.1-1.4,2.2-2,3.4
				c-0.5,0.9-1.1,1.9-1.5,2.9c-0.4,1-0.8,2-1.2,3c-0.3,0.8-0.4,1.6-0.6,2.4c-0.1,0.8-0.3,1.6-0.5,2.4c-0.1,1.4-0.3,2.7-0.5,4.1
				c-0.1,1.1-0.2,2.3-0.4,3.4c-0.1,0.1-0.3,3.7,0.2,5.5c0.1,0.6,0.2,1.1,0.3,1.7c0.1,0.6,0.2,1.2,0.3,1.7c0.2,0.8,0.4,1.6,0.6,2.5
				c0.2,0.8,0.5,1.6,0.7,2.4l0.6,1.7c0.2,0.5,0.4,1.1,0.6,1.6c0.8,2.1,2.1,4.1,3.2,6c0.9,1.5,1.8,2.8,3,4.1c0.5,0.6,1.1,1.2,1.6,1.8
				c0.5,0.6,1.1,1.2,1.7,1.8c0.1,0.1,0.2,0.2,0.2,0.4c0,0.1,0,0.2-0.1,0.3c-0.1,0.1-0.2,0.1-0.3,0.1c-0.1-0.1-0.2-0.1-0.3-0.2
				l-1.2-1.2c-1.2-1.3-2.4-2.6-3.5-4c-1.1-1.4-2.2-2.9-3.1-4.5c-0.7-1.1-2-4.1-2.1-4.4c-0.3-0.7-0.6-1.5-0.8-2.2
				c-0.3-0.7-0.5-1.5-0.7-2.2c-0.6-2.3-1.1-4.6-1.3-6.9c-0.1-1-0.3-2-0.3-3c0-0.7,0-1.5,0-2.2c0-0.7,0.1-1.5,0.2-2.2l0.1-1.5l0-0.8
				L89,77c0.1-1,0.3-2,0.4-3c0.1-0.6,0.4-1.1,0.5-1.6c0.2-1,0.4-2,0.7-3c0.3-1,0.7-1.9,1.1-2.8c0.3-1,0.8-1.8,1.3-2.7
				c0.5-0.9,0.9-1.8,1.5-2.6c0.5-0.7,1.2-1.9,1.9-3c0.8-1,1.5-2,1.6-2.1c0.3-0.3,0.5-0.7,0.8-1l0.8-0.9l1.7-1.8
				c0.6-0.6,1.2-1.1,1.8-1.7c0.6-0.5,1.2-1.1,1.9-1.6c1.1-0.8,2-1.7,3.1-2.4l2.1-1.3l1-0.6l1.1-0.5l2.7-1.3l2.8-1
				c0.9-0.4,1.9-0.6,2.9-0.8l1.4-0.4c0.5-0.1,1-0.2,1.5-0.3c1.3-0.2,2.7-0.5,4-0.5c0.8,0,1.6,0,2.3-0.1c0.8,0,1.5-0.1,2.3,0
				c1.7,0.1,3.5-0.1,5.2,0.2c0.6,0.1,1.2,0.1,1.7,0.2c2.7,0.5,5.4,1.2,7.9,2.3c0.9,0.4,1.8,0.9,2.7,1.3c0.9,0.5,1.8,0.8,2.7,1.4
				c1.3,0.8,2.6,1.5,3.8,2.4l1.8,1.3c0.6,0.4,1.1,1,1.7,1.4c0.4,0.4,0.8,0.7,1.2,1l0.6,0.5l0.6,0.6c0.5,0.6,1,1.2,1.4,1.8
				c0.7,0.9,1.3,1.9,1.9,2.8c0.3,0.5,0.6,0.9,1,1.4l0.9,1.4c0.6,1,1.2,2.1,1.7,3.2c0.3,0.6,0.5,1.2,0.8,1.8c0.1,0.2,0.2,0.5,0.4,0.8
				c0.1,0.3,0.3,0.7,0.4,1c0.3,0.7,0.6,1.5,0.9,2.3c0.3,0.7,0.5,1.5,0.6,2c0.2,0.5,0.3,0.9,0.3,0.9c0.2,0.9,0.6,1.7,0.7,2.6
				c0.2,1.8,0.5,3.5,0.4,5.3c0,0.9,0.1,1.8,0.1,2.6c-0.1,1.3-0.1,3.8-0.5,6.1c-0.3,2.3-0.8,4.3-0.9,4.8c-0.1,0.5-0.3,1.1-0.4,1.6
				c-0.6,1.8-1.2,3.7-1.9,5.5c-0.8,2.1-1.9,4-3.4,5.7c-0.2,0.2-0.4,0.5-0.6,0.8c-1.2,1.7-2.5,3.3-3.9,4.8c-0.4,0.5-1,0.9-1.5,1.3
				c-0.1,0-0.1,0.1-0.2,0.1c-0.1,0-0.2,0-0.2-0.1c0-0.1-0.1-0.2-0.1-0.2c0-0.1,0.1-0.2,0.1-0.2c0.2-0.2,0.6-0.6,1.1-1.1
				c0.5-0.5,1.1-1.2,1.7-1.8c1.2-1.4,2.3-2.8,2.7-3.5c0.2-0.4,0.5-0.7,0.8-1c1.6-2,2.7-4.3,3.5-6.8c0-0.2,0.1-0.3,0.2-0.5
				c0.3-0.7,1.4-3.7,2-6.8c0.6-3.1,0.8-6.3,0.8-7.3c0-0.1,0.1-1.6,0-3.4c0-0.9,0-1.9-0.1-2.9c-0.1-0.9-0.2-1.8-0.3-2.5
				c-0.1-1-0.4-2-0.7-3c-0.2-0.5-0.3-1-0.5-1.5c-0.1-0.2-0.1-0.5-0.2-0.7c-0.1-0.2-0.2-0.5-0.3-0.7c-0.3-0.9-0.7-1.7-1-2.5
				c-0.5-1.3-1.1-2.5-1.6-3.8c-0.2-0.6-0.5-1-0.8-1.6c-0.7-1.1-1.3-2.3-2.1-3.4c-0.8-1.1-1.5-2.2-2.4-3.2c-0.5-0.6-1-1.2-1.4-1.8
				c-0.5-0.6-1-1.1-1.6-1.7c-0.4-0.4-0.8-0.7-1.1-1l-0.6-0.5l-0.6-0.4l-1.6-1.1C155.3,47.7,154.8,47.3,154.2,46.9L154.2,46.9z"/>
		</g>
	</g>
</g>
<path class="isaq2" d="M147.4,52.5c4.5,6.4,7.1,14.1,7.1,22.5c0,6.4-1.6,12.5-4.3,17.9l10.6,7.5c2.1-4.8,3.3-10.2,3.3-15.8
	C164,71.3,157.5,59.6,147.4,52.5z"/>
<path class="isaq1" d="M196.2,82.9"/>
</svg>
