<?xml version="1.0" encoding="utf-8"?>
<!-- Generator: Adobe Illustrator 20.1.0, SVG Export Plug-In . SVG Version: 6.00 Build 0)  -->
<svg version="1.1" id="Layer_1" xmlns="http://www.w3.org/2000/svg" xmlns:xlink="http://www.w3.org/1999/xlink" x="0px" y="0px"
	 viewBox="0 0 243 188.3" style="enable-background:new 0 0 243 188.3;" xml:space="preserve">
<style type="text/css">
	.eui0{opacity:0.13;fill:#ee5b21;}
	.eui1{opacity:0.3;fill:#ee5b21;}
	.eui2{fill:#ee5b21;}
	.eui3{fill:none;stroke:#ee5b21;stroke-width:2;stroke-linecap:round;stroke-linejoin:round;stroke-miterlimit:10;}
	.eui4{fill:none;stroke:#D7D7D6;stroke-width:2;stroke-linecap:round;stroke-linejoin:round;stroke-miterlimit:10;}
</style>
<path class="eui0" d="M206.7,158.6H40.5c-2.1,0-3.7-1.7-3.7-3.7v-11h175.7v8.9C212.5,156.1,209.9,158.6,206.7,158.6z"/>
<rect x="88.8" y="71.3" class="eui1" width="105.2" height="84"/>
<g>
	<g>
		<g>
			<path class="eui2" d="M44.5,150.4c0-1.2,0-2.3,0.1-3.5c0-1.8,0-3.6,0-5.5l0-0.7c0.5,0,1.1,0,1.6,0c0.5,0,0.9,0,1.4,0
				c0.9,0,1.8,0.1,2.7,0.1c1.3,0,2.6,0,4,0c2,0,3.9,0,5.9,0c0.7,0,1.4,0.1,2.1,0.1c0.9,0,1.8-0.1,2.8-0.1c0.5,0,1.1,0,1.6-0.1
				c0,0.6,0,1.1,0,1.6c0,0.5,0,1,0,1.4c-0.1,1.2-0.1,2.5-0.1,3.7c-0.1,1.6-0.1,3.2-0.1,4.8c0,0.8,0.1,1.6,0.1,2.4c0,0.6,0,1.2,0,1.8
				c0,0,0,0.1,0,0.1c0,0.1-0.1,0.1-0.1,0.2c0-0.1-0.1-0.1-0.1-0.2c-0.1-0.9-0.1-1.8-0.2-2.7c0-0.2,0-0.4,0-0.6
				c0-1.6,0.1-3.1,0.1-4.7c0-0.8,0.2-5.1,0.2-6.3c0-0.2,0-0.5,0-0.7l0-0.4c0-0.1,0-0.1,0-0.2l-0.1,0l-0.2,0l-0.5,0c-0.3,0-0.7,0-1,0
				c-0.9,0-1.8,0-2.8,0c-0.2,0-0.3,0-0.5,0c-0.2,0-8.1-0.1-11.6-0.1c-0.9,0-1.9-0.1-2.8-0.1c-0.3,0-0.7,0-1,0c-0.2,0-0.3,0-0.5,0
				l-0.2,0l-0.1,0l0,0.1c0,0.1,0,0.2,0,0.3c-0.1,1,0,1.9-0.1,2.9c0,1.6-0.1,3.3-0.1,4.9c0,0.7,0,1.3,0,2c-0.1,1.5-0.2,2.9-0.2,4.4
				c0,0.2,0,0.4,0,0.7c0,0.1,0,0.2,0,0.3c0,0-0.1,0.1-0.1,0.1c0,0-0.1,0-0.1-0.1c0-0.1,0-0.2,0-0.3c0-0.7,0.1-1.4,0.1-2.2
				C44.5,153,44.5,151.7,44.5,150.4L44.5,150.4z"/>
		</g>
	</g>
</g>
<g>
	<g>
		<g>
			<path class="eui2" d="M87.8,123.5c0-6,0.1-12,0-17.9c-0.1-9.4-0.5-18.9-0.4-28.3l0.1-7.2l2.9,0l1.6,0l3.1,0.1l6.2,0.2
				c4.1,0.1,8.3,0.3,12.4,0.4c6.8,0.2,13.7,0.1,20.5,0.1l30.7,0.1c3.6,0,7.2,0.4,10.7,0.3c4.8-0.1,9.6-0.3,14.3-0.5
				c1.4-0.1,2.4-0.1,4.8-0.2l0.1,1.7l0.1,1.3l0.1,2.3l0.2,4.6c0.1,3.1,0.1,6.1,0,9.2c-0.3,6.4-0.2,12.8-0.3,19.1
				c-0.1,8.4-0.3,16.7-0.3,25.1c0,4.1,0.5,8.2,0.7,12.3c0.1,3.1,0.1,6.1,0.2,9.2c0,0.1,0,0.3,0,0.4c-0.2,0.3-0.5,0.6-0.7,0.9
				c-0.1-0.3-0.4-0.7-0.4-1c-0.5-4.6-0.9-9.3-1.4-13.9c-0.1-1-0.1-2-0.1-3c0.1-8.1,0.1-16.2,0.4-24.3c0.1-4.4,0.7-26.4,0.5-32.5
				l-0.2-5.4l-0.1-2.7l-0.1-1.3l-0.1-0.4l-0.3,0l-0.1,0l0,0l-0.1,0l-0.2,0l-1.8,0.1l-3.5,0.1c-4.8,0.1-9.6,0.1-14.3,0.1
				c-0.8,0-1.6,0-2.4,0c-0.6,0-11-0.1-23.6-0.3c-12.6-0.1-27.3-0.2-36.5-0.3c-4.8,0-9.7-0.3-14.5-0.3c-1.1,0-2.3,0.1-3.4,0.1
				l-1.7,0.1c-0.4,0-0.4,0-0.5,0l-0.3,0l0,0.3c0,0.1,0,0.1,0,0.5l0.1,1.7c0,1.1,0,2.3,0,3.4c-0.2,5-0.1,10.1-0.1,15.1
				c-0.1,8.5,0,17,0,25.5c0,3.4,0.2,6.8,0.1,10.2c-0.2,7.6-0.6,15.3-0.9,22.9c0,1.1,0,2.3,0,3.4c0,0.5-0.1,0.9-0.2,1.4
				c0,0.1-0.4,0.3-0.5,0.3c-0.2,0-0.5-0.2-0.5-0.3c-0.1-0.6-0.2-1.2-0.2-1.8c0.1-3.7,0.4-7.4,0.4-11.2
				C87.9,136.9,87.8,130.2,87.8,123.5L87.8,123.5z"/>
		</g>
	</g>
</g>
<g>
	<g>
		<g>
			<path class="eui2" d="M77,73.1c0,2.1,0,4.1,0,6.2c0,3.3,0.2,6.5,0.1,9.8c0,3.5-0.2,7.1-0.3,10.6c-0.1,2.4,0,4.7,0,7.1
				c0,3.5,0,7.1,0,10.6c0,1.2-0.1,2.5-0.1,3.7c0,1.6,0.1,3.3,0.2,4.9c0.1,2.6,0.3,5.2,0.2,7.8c-0.1,2.2-0.1,4.4-0.1,6.6
				c0,2.9-0.1,5.8-0.1,8.7c0,1.4,0.2,2.8,0.2,4.3c0,1.1,0,2.1,0.1,3.2c0,0,0,0.1,0,0.1c-0.1,0.1-0.2,0.2-0.2,0.3
				c0-0.1-0.1-0.2-0.1-0.3c-0.2-1.6-0.3-3.2-0.5-4.8c0-0.3,0-0.7,0-1c0-2.8,0-5.6,0.1-8.4c0-1.5,0.2-9.1,0.2-11.2
				c-0.1-2.1-0.2-4.1-0.3-6.2c-0.1-1.6,0-3.3,0-4.9c0-0.3,0-0.6,0-0.8c0-0.4,0.2-14.4,0.2-20.7c0-1.7,0.1-3.3,0.1-5
				c0-1.6-0.2-3.1-0.1-4.7c0.1-1.7,0-3.5,0-5.2c0-2.9,0-5.9,0-8.8c0-1.2-0.1-2.3,0-3.5c0.1-2.6,0.2-5.3,0.3-7.9c0-0.4,0-0.8,0-1.2
				c0-0.2,0-0.3,0.1-0.5c0-0.1,0.1-0.1,0.2-0.1c0.1,0,0.2,0.1,0.2,0.1c0,0.2,0.1,0.4,0.1,0.6c0,1.3-0.1,2.6-0.1,3.8
				C77,68.5,77,70.8,77,73.1C77,73.1,77,73.1,77,73.1z"/>
		</g>
	</g>
</g>
<g>
	<g>
		<g>
			<path class="eui2" d="M54.4,100.2c-2.2,0-4.3,0-6.5,0l-3.4,0.1l-0.1-4c0-1.2,0-2.4,0-3.6c0-3.7,0.2-7.4,0.3-11.1
				c0.1-2.5,0-5,0-7.5l0-2.8l8.7,0c1.3,0,2.6,0.1,3.9,0.1c1.7,0,3.5-0.1,5.2-0.2c0.7,0,1.3-0.1,2-0.1l1-0.1l0.5,0l0.9,0
				c0,0.8,0,1.6,0,2.4c0,0.7,0,1.4,0,2.1c-0.1,2.3-0.1,4.6-0.1,6.9c0,3-0.1,6.1-0.1,9.1c0,1.5,0.2,3,0.2,4.5c0,1.1,0,2.2,0.1,3.3
				c0,0,0,0.1,0,0.1c-0.1,0.1-0.2,0.2-0.3,0.3c-0.1-0.1-0.1-0.2-0.1-0.4c-0.2-1.7-0.3-3.4-0.5-5c0-0.4,0-0.7,0-1.1
				c0-2.9,0.1-5.9,0.1-8.8c0-1.6,0.3-9.6,0.2-11.8c0-0.5,0-1-0.1-1.1l-0.2,0l-0.2,0l-0.6,0l-1.3,0.1c-0.9,0-1.7,0.1-2.6,0.1
				c-1.7,0.1-3.5,0-5.2,0c-0.3,0-0.6,0-0.9,0c-0.2,0-3.5,0-10-0.1c0,0,0,0.1,0,0.1c0,0.1,0,0.3,0,0.5c0,0.4,0,0.8,0,1.2
				c0,0.9,0,1.9,0,3c0,2.1,0,4.4,0,6.1c0,1.8-0.1,3.5-0.1,5.3c0,1.6,0.2,3.3,0.2,4.9c-0.1,1.8,0,3.7,0,5.5l0,1.1l7.5,0
				c1.2,0,2.5-0.1,3.7,0c2.8,0.1,5.5,0.2,8.3,0.3c0.4,0,0.8,0,1.2,0c0.2,0,0.3,0,0.5,0.1c0.1,0,0.1,0.1,0.1,0.2
				c0,0.1-0.1,0.2-0.1,0.2c-0.2,0-0.4,0.1-0.6,0.1c-1.3,0-2.7-0.1-4-0.2C59.3,100.2,56.8,100.2,54.4,100.2L54.4,100.2z"/>
		</g>
	</g>
</g>
<g>
	<g>
		<g>
			<path class="eui2" d="M54.4,135c-2.2,0-4.3,0-6.5,0l-3.4,0.1l-0.1-4c0-1.2,0-2.4,0-3.6c0-3.7,0.2-7.4,0.3-11.1c0.1-2.5,0-5,0-7.5
				l0-2.8l8.7,0c1.3,0,2.6,0.1,3.9,0.1c1.7,0,3.5-0.1,5.2-0.2c0.7,0,1.3-0.1,2-0.1l1-0.1l0.5,0l0.9,0c0,0.8,0,1.6,0,2.4
				c0,0.7,0,1.4,0,2.1c-0.1,2.3-0.1,4.6-0.1,6.9c0,3-0.1,6.1-0.1,9.1c0,1.5,0.2,3,0.2,4.5c0,1.1,0,2.2,0.1,3.3c0,0,0,0.1,0,0.1
				c-0.1,0.1-0.2,0.2-0.3,0.3c-0.1-0.1-0.1-0.2-0.1-0.4c-0.2-1.7-0.3-3.4-0.5-5c0-0.4,0-0.7,0-1.1c0-2.9,0.1-5.9,0.1-8.8
				c0-1.6,0.3-9.6,0.2-11.8c0-0.5,0-1-0.1-1.1l-0.2,0l-0.2,0l-0.6,0l-1.3,0.1c-0.9,0-1.7,0.1-2.6,0.1c-1.7,0.1-3.5,0-5.2,0
				c-0.3,0-0.6,0-0.9,0c-0.2,0-3.5,0-10-0.1c0,0,0,0.1,0,0.1c0,0.1,0,0.3,0,0.5c0,0.4,0,0.8,0,1.2c0,0.9,0,1.9,0,3
				c0,2.1,0,4.4,0,6.1c0,1.8-0.1,3.5-0.1,5.3c0,1.6,0.2,3.3,0.2,4.9c-0.1,1.8,0,3.7,0,5.5l0,1.1l7.5,0c1.2,0,2.5-0.1,3.7,0
				c2.8,0.1,5.5,0.2,8.3,0.3c0.4,0,0.8,0,1.2,0c0.2,0,0.3,0,0.5,0.1c0.1,0,0.1,0.1,0.1,0.2c0,0.1-0.1,0.2-0.1,0.2
				c-0.2,0-0.4,0.1-0.6,0.1c-1.3,0-2.7-0.1-4-0.2C59.3,135,56.8,135,54.4,135L54.4,135z"/>
		</g>
	</g>
</g>
<g>
	<g>
		<g>
			<path class="eui2" d="M57.2,60.7c3.8,0,7.6,0,11.4,0c6-0.1,11.9-0.3,17.9-0.2c6.5,0.1,12.9,0.4,19.4,0.5c4.3,0.1,8.7,0.1,13,0.1
				c6.5,0,12.9,0,19.4,0.1c2.3,0,4.5,0.2,6.8,0.2c3,0,6-0.2,9.1-0.3c4.7-0.2,9.5-0.6,14.2-0.4c4,0.2,8.1,0.1,12.1,0.2
				c5.3,0.1,10.6,0.2,15.9,0.2c2.6,0,5.2-0.3,7.8-0.4c1.9-0.1,3.9-0.1,5.8-0.1c0.1,0,0.2,0,0.2,0c0.2,0.1,0.4,0.3,0.6,0.4
				c-0.2,0.1-0.4,0.2-0.6,0.3c-2.9,0.3-5.9,0.6-8.8,0.9c-0.6,0.1-1.3,0.1-1.9,0.1c-5.1-0.1-10.3-0.1-15.4-0.2
				c-2.8-0.1-16.7-0.5-20.5-0.3c-3.8,0.1-7.6,0.4-11.3,0.5c-3,0.1-6,0-9.1,0c-0.5,0-1,0-1.5,0c-0.7,0-26.4-0.3-38-0.3
				c-3.1,0-6.1-0.2-9.2-0.2c-2.9,0-5.7,0.4-8.6,0.3c-3.2-0.2-6.4-0.1-9.6-0.1c-5.4,0-10.8,0-16.1,0c-2.1,0-4.3,0.1-6.4,0
				c-4.8-0.1-9.6-0.4-14.5-0.5c-0.7,0-1.4,0-2.1,0c-0.3,0-0.6,0-0.9-0.1c-0.1,0-0.2-0.2-0.2-0.3c0-0.1,0.1-0.3,0.2-0.3
				c0.4-0.1,0.8-0.1,1.1-0.1c2.4,0.1,4.7,0.2,7.1,0.3C48.7,60.8,52.9,60.7,57.2,60.7C57.2,60.7,57.2,60.7,57.2,60.7z"/>
		</g>
	</g>
</g>
<path class="eui3" d="M191.1,76.3"/>
<path class="eui4" d="M131.5,88.8"/>
<g>
	<g>
		<g>
			<path class="eui2" d="M128.2,110.3c1.1,0,2.3,0,3.4,0c1.1,0,2.3-0.1,3.4-0.1c1.8,0,3.6,0.1,5.4,0.2c3.6,0.3,7.3,0.5,10.9,0
				c2.5-0.4,5-0.3,7.6,0c1.5,0.1,2.9,0.1,4.4,0.1c1.5,0,3.1,0,4.6,0c2.9-0.1,5.9-0.2,8.8-0.3c0.5,0,1.1,0.1,1.6,0.1
				c0.1,0,0.3,0,0.4,0.1c0.1,0.1,0.2,0.4,0.2,0.6c0,0.2-0.1,0.5-0.2,0.6c-0.1,0.1-0.2,0.1-0.4,0.1c-0.8,0-1.6-0.1-2.3-0.2
				c-0.1,0-0.2,0-0.4,0c-0.2,0-0.5,0-0.7,0.1c-2.3,0.1-4.7,0.3-7,0.4c-1.5,0.1-3,0-4.5,0.1c-2.5,0.3-4.9,0-7.3-0.2
				c-1.1-0.1-2.2,0.1-3.2,0.2c-1,0.1-2,0.1-3,0.2c-0.6,0-1.3,0.2-1.9,0.1c-2.4-0.1-4.8-0.2-7.2-0.3c-2.5-0.1-5.1-0.2-7.6-0.2
				c-1.4,0-2.9,0-4.3,0c-0.6,0-1.2-0.2-1.8-0.2c-0.5,0-1,0-1.4,0.1c-0.4,0-6.8,0-9.4,0c-3.5,0.1-7,0.1-10.5,0.1
				c-0.3,0-0.6,0-0.8-0.1c-0.2,0-0.4-0.3-0.4-0.6c0-0.3,0.2-0.6,0.3-0.7c0.2-0.1,0.4-0.1,0.6-0.1c1.9,0,3.8,0,5.6,0.1
				c3.3,0.1,6.6,0.2,9.8,0.2C123.4,110.6,125.8,110.4,128.2,110.3C128.2,110.3,128.2,110.3,128.2,110.3z"/>
		</g>
	</g>
</g>
<g>
	<g>
		<g>
			<path class="eui2" d="M128.2,120.1c1.1,0,2.3,0,3.4,0c1.1,0,2.3-0.1,3.4-0.1c1.8,0,3.6,0.1,5.4,0.2c3.6,0.3,7.3,0.5,10.9,0
				c2.5-0.4,5-0.3,7.6,0c1.5,0.1,2.9,0.1,4.4,0.1c1.5,0,3.1,0,4.6,0c2.9-0.1,5.9-0.2,8.8-0.3c0.5,0,1.1,0.1,1.6,0.1
				c0.1,0,0.3,0,0.4,0.1c0.1,0.1,0.2,0.4,0.2,0.6c0,0.2-0.1,0.5-0.2,0.6c-0.1,0.1-0.2,0.1-0.4,0.1c-0.8,0-1.6-0.1-2.3-0.2
				c-0.1,0-0.2,0-0.4,0c-0.2,0-0.5,0-0.7,0.1c-2.3,0.1-4.7,0.3-7,0.4c-1.5,0.1-3,0-4.5,0.1c-2.5,0.3-4.9,0-7.3-0.2
				c-1.1-0.1-2.2,0.1-3.2,0.2c-1,0.1-2,0.1-3,0.2c-0.6,0-1.3,0.2-1.9,0.1c-2.4-0.1-4.8-0.2-7.2-0.3c-2.5-0.1-5.1-0.2-7.6-0.2
				c-1.4,0-2.9,0-4.3,0c-0.6,0-1.2-0.2-1.8-0.2c-0.5,0-1,0-1.4,0.1c-0.4,0-6.8,0-9.4,0c-3.5,0.1-7,0.1-10.5,0.1
				c-0.3,0-0.6,0-0.8-0.1c-0.2,0-0.4-0.3-0.4-0.6c0-0.3,0.2-0.6,0.3-0.7c0.2-0.1,0.4-0.1,0.6-0.1c1.9,0,3.8,0,5.6,0.1
				c3.3,0.1,6.6,0.2,9.8,0.2C123.4,120.3,125.8,120.2,128.2,120.1C128.2,120.1,128.2,120.1,128.2,120.1z"/>
		</g>
	</g>
</g>
<g>
	<g>
		<g>
			<path class="eui2" d="M117.4,92.6c-1.3,0-2.5-0.4-3.8-0.4c-1.1,0-2.2,0.5-3.3,0.1c-0.8-0.2-1.6-0.1-2.4-0.2c-0.6,0-2.6,0-3,0
				c-0.2,0-0.4,0.1-0.4-0.4c0-0.4,0.2-0.5,0.3-0.5c0.4,0,0.8-0.1,1.2-0.1c0.5,0,0.9,0.1,1.4,0.1c0.6,0.1,1.1,0.1,1.7,0.2
				c1,0,2.6-0.5,3.6-0.6c2.9-0.1,5.2,0.4,8.1,0.3c1.4-0.3,4.2,0.1,4.2,0.2c0,0.1,0,0.6-0.2,0.7C122.4,92.7,119.9,92.5,117.4,92.6z"
				/>
		</g>
	</g>
</g>
<g>
	<g>
		<g>
			<path class="eui2" d="M128.2,129.9c1.1,0,2.3,0,3.4,0c1.1,0,2.3-0.1,3.4-0.1c1.8,0,3.6,0.1,5.4,0.2c3.6,0.3,7.3,0.5,10.9,0
				c2.5-0.4,5-0.3,7.6,0c1.5,0.1,2.9,0.1,4.4,0.1c1.5,0,3.1,0,4.6,0c2.9-0.1,5.9-0.2,8.8-0.3c0.5,0,1.1,0.1,1.6,0.1
				c0.1,0,0.3,0,0.4,0.1c0.1,0.1,0.2,0.4,0.2,0.6c0,0.2-0.1,0.5-0.2,0.6c-0.1,0.1-0.2,0.1-0.4,0.1c-0.8,0-1.6-0.1-2.3-0.2
				c-0.1,0-0.2,0-0.4,0c-0.2,0-0.5,0-0.7,0.1c-2.3,0.1-4.7,0.3-7,0.4c-1.5,0.1-3,0-4.5,0.1c-2.5,0.3-4.9,0-7.3-0.2
				c-1.1-0.1-2.2,0.1-3.2,0.2c-1,0.1-2,0.1-3,0.2c-0.6,0-1.3,0.2-1.9,0.1c-2.4-0.1-4.8-0.2-7.2-0.3c-2.5-0.1-5.1-0.2-7.6-0.2
				c-1.4,0-2.9,0-4.3,0c-0.6,0-1.2-0.2-1.8-0.2c-0.5,0-1,0-1.4,0.1c-0.4,0-6.8,0-9.4,0c-3.5,0.1-7,0.1-10.5,0.1
				c-0.3,0-0.6,0-0.8-0.1c-0.2,0-0.4-0.3-0.4-0.6c0-0.3,0.2-0.6,0.3-0.7c0.2-0.1,0.4-0.1,0.6-0.1c1.9,0,3.8,0,5.6,0.1
				c3.3,0.1,6.6,0.2,9.8,0.2C123.4,130.2,125.8,130,128.2,129.9C128.2,129.9,128.2,129.9,128.2,129.9z"/>
		</g>
	</g>
</g>
<g>
	<g>
		<g>
			<path class="eui2" d="M128.2,139.6c1.1,0,2.3,0,3.4,0c1.1,0,2.3-0.1,3.4-0.1c1.8,0,3.6,0.1,5.4,0.2c3.6,0.3,7.3,0.5,10.9,0
				c2.5-0.4,5-0.3,7.6,0c1.5,0.1,2.9,0.1,4.4,0.1c1.5,0,3.1,0,4.6,0c2.9-0.1,5.9-0.2,8.8-0.3c0.5,0,1.1,0.1,1.6,0.1
				c0.1,0,0.3,0,0.4,0.1c0.1,0.1,0.2,0.4,0.2,0.6c0,0.2-0.1,0.5-0.2,0.6c-0.1,0.1-0.2,0.1-0.4,0.1c-0.8,0-1.6-0.1-2.3-0.2
				c-0.1,0-0.2,0-0.4,0c-0.2,0-0.5,0-0.7,0.1c-2.3,0.1-4.7,0.3-7,0.4c-1.5,0.1-3,0-4.5,0.1c-2.5,0.3-4.9,0-7.3-0.2
				c-1.1-0.1-2.2,0.1-3.2,0.2c-1,0.1-2,0.1-3,0.2c-0.6,0-1.3,0.2-1.9,0.1c-2.4-0.1-4.8-0.2-7.2-0.3c-2.5-0.1-5.1-0.2-7.6-0.2
				c-1.4,0-2.9,0-4.3,0c-0.6,0-1.2-0.2-1.8-0.2c-0.5,0-1,0-1.4,0.1c-0.4,0-6.8,0-9.4,0c-3.5,0.1-7,0.1-10.5,0.1
				c-0.3,0-0.6,0-0.8-0.1c-0.2,0-0.4-0.3-0.4-0.6c0-0.3,0.2-0.6,0.3-0.7c0.2-0.1,0.4-0.1,0.6-0.1c1.9,0,3.8,0,5.6,0.1
				c3.3,0.1,6.6,0.2,9.8,0.2C123.4,139.8,125.8,139.7,128.2,139.6C128.2,139.6,128.2,139.6,128.2,139.6z"/>
		</g>
	</g>
</g>
<g>
	<g>
		<g>
			<path class="eui2" d="M57.1,85.8c-0.9,0-1.6-0.1-2.5-0.1c-0.7,0-1.5,0.2-2.1,0c-0.5-0.1-1,0-1.6,0c-0.4,0-1.7,0-1.9,0
				c-0.1,0-0.3,0-0.3-0.1c0-0.1,0.1-0.2,0.2-0.2c0.3,0,0.5,0,0.8,0c0.3,0,0.6,0,0.9,0c0.4,0,0.7,0,1.1,0.1c0.7,0,1.7-0.2,2.4-0.2
				c1.9,0,3.4,0.1,5.2,0.1c0.9-0.1,2.7,0,2.7,0.1c0,0,0,0.2-0.1,0.2C60.4,85.9,58.7,85.8,57.1,85.8z"/>
		</g>
	</g>
</g>
<g>
	<g>
		<g>
			<path class="eui2" d="M51.1,78.5c-0.2,0-0.4,0-0.7,0c-0.2,0-0.4,0-0.6,0c-0.1,0-0.3,0-0.4,0c-0.1,0-0.5,0-0.5,0c0,0-0.1,0-0.1,0
				c0,0,0,0,0.1,0c0.1,0,0.1,0,0.2,0c0.1,0,0.2,0,0.3,0c0.1,0,0.2,0,0.3,0c0.2,0,0.5,0,0.6,0c0.5,0,0.9,0,1.4,0c0.3,0,0.7,0,0.8,0
				c0,0,0,0.1,0,0.1C51.9,78.6,51.5,78.5,51.1,78.5z"/>
		</g>
	</g>
</g>
<g>
	<g>
		<g>
			<path class="eui2" d="M57.1,90.5c-0.9,0-1.6-0.1-2.5-0.1c-0.7,0-1.5,0.2-2.1,0c-0.5-0.1-1,0-1.6,0c-0.4,0-1.7,0-1.9,0
				c-0.1,0-0.3,0-0.3-0.1c0-0.1,0.1-0.2,0.2-0.2c0.3,0,0.5,0,0.8,0c0.3,0,0.6,0,0.9,0c0.4,0,0.7,0,1.1,0.1c0.7,0,1.7-0.2,2.4-0.2
				c1.9,0,3.4,0.1,5.2,0.1c0.9-0.1,2.7,0,2.7,0.1c0,0,0,0.2-0.1,0.2C60.4,90.5,58.7,90.5,57.1,90.5z"/>
		</g>
	</g>
</g>
<g>
	<g>
		<g>
			<path class="eui2" d="M57.1,113.6c-0.9,0-1.6-0.1-2.5-0.1c-0.7,0-1.5,0.2-2.1,0c-0.5-0.1-1,0-1.6,0c-0.4,0-1.7,0-1.9,0
				c-0.1,0-0.3,0-0.3-0.1c0-0.1,0.1-0.2,0.2-0.2c0.3,0,0.5,0,0.8,0c0.3,0,0.6,0,0.9,0c0.4,0,0.7,0,1.1,0.1c0.7,0,1.7-0.2,2.4-0.2
				c1.9,0,3.4,0.1,5.2,0.1c0.9-0.1,2.7,0,2.7,0.1c0,0,0,0.2-0.1,0.2C60.4,113.6,58.7,113.6,57.1,113.6z"/>
		</g>
	</g>
</g>
<g>
	<g>
		<g>
			<path class="eui2" d="M57.1,118.3c-0.9,0-1.6-0.1-2.5-0.1c-0.7,0-1.5,0.2-2.1,0c-0.5-0.1-1,0-1.6,0c-0.4,0-1.7,0-1.9,0
				c-0.1,0-0.3,0-0.3-0.1c0-0.1,0.1-0.2,0.2-0.2c0.3,0,0.5,0,0.8,0c0.3,0,0.6,0,0.9,0c0.4,0,0.7,0,1.1,0.1c0.7,0,1.7-0.2,2.4-0.2
				c1.9,0,3.4,0.1,5.2,0.1c0.9-0.1,2.7,0,2.7,0.1c0,0,0,0.2-0.1,0.2C60.4,118.3,58.7,118.2,57.1,118.3z"/>
		</g>
	</g>
</g>
<g>
	<g>
		<g>
			<path class="eui2" d="M57.1,123.5c-0.9,0-1.6-0.1-2.5-0.1c-0.7,0-1.5,0.2-2.1,0c-0.5-0.1-1,0-1.6,0c-0.4,0-1.7,0-1.9,0
				c-0.1,0-0.3,0-0.3-0.1c0-0.1,0.1-0.2,0.2-0.2c0.3,0,0.5,0,0.8,0c0.3,0,0.6,0,0.9,0c0.4,0,0.7,0,1.1,0.1c0.7,0,1.7-0.2,2.4-0.2
				c1.9,0,3.4,0.1,5.2,0.1c0.9-0.1,2.7,0,2.7,0.1c0,0,0,0.2-0.1,0.2C60.4,123.6,58.7,123.5,57.1,123.5z"/>
		</g>
	</g>
</g>
<g>
	<g>
		<g>
			<path class="eui2" d="M57.1,128.2c-0.9,0-1.6-0.1-2.5-0.1c-0.7,0-1.5,0.2-2.1,0c-0.5-0.1-1,0-1.6,0c-0.4,0-1.7,0-1.9,0
				c-0.1,0-0.3,0-0.3-0.1c0-0.1,0.1-0.2,0.2-0.2c0.3,0,0.5,0,0.8,0c0.3,0,0.6,0,0.9,0c0.4,0,0.7,0,1.1,0.1c0.7,0,1.7-0.2,2.4-0.2
				c1.9,0,3.4,0.1,5.2,0.1c0.9-0.1,2.7,0,2.7,0.1c0,0,0,0.2-0.1,0.2C60.4,128.3,58.7,128.2,57.1,128.2z"/>
		</g>
	</g>
</g>
<g>
	<rect x="44.9" y="45.9" class="eui2" width="5.5" height="5.5"/>
	<g>
		<g>
			<path class="eui2" d="M44.7,49.9l0-1c0-0.3,0-0.7,0-1c0-0.5,0-1,0-1.6l0-0.4l0,0c0-0.1,0-0.1,0.1-0.1c1,0,1.9,0.1,2.9,0
				c0.7-0.1,1.5,0,2.2,0c0.2,0,0.3,0,0.4,0c0.1,0,0.1,0.1,0.1,0.1c0,0.3,0,0.6,0,0.9c0,0.5,0,0.9,0,1.4c0,0.9,0,1.7,0.1,2.6
				c0,0.2,0,0.3,0,0.5c0,0,0,0.1,0,0.1c0,0-0.1,0.1-0.1,0.1c0,0-0.1,0-0.1-0.1c0,0,0-0.1,0-0.1c0-0.2,0-0.5,0-0.7c0,0,0-0.1,0-0.1
				c0-0.1,0-0.1,0-0.2c0-0.7,0-1.4-0.1-2.1c0-0.4,0-0.9,0-1.3c0-0.3,0-0.6,0-0.9l0.1,0.1c-0.4,0-0.8,0-1.3,0c-0.3,0-0.6,0-1,0
				c-0.3,0-0.6,0-0.9,0c-0.2,0-0.4,0-0.6,0c-0.6,0-1.2,0-1.8,0l0.1-0.1l0,0.3c0,0.8,0,1.5,0,2.3c0,0.4,0,0.8,0,1.3
				c0,0.1,0,0.4,0,0.5c0,0.1,0,0.3,0,0.4c0,0,0,0.2,0,0.7l-0.1-0.1c0.3,0,1.5,0,2.1,0c1.1,0,2.1,0,3.1,0c0.1,0,0.2,0,0.3,0
				c0.1,0,0.1,0,0.1,0.1c0,0-0.1,0.1-0.1,0.1c-0.1,0-0.1,0-0.2,0c-0.6,0-1.1,0-1.7,0c-1,0-2,0-2.9,0c-0.2,0-0.4,0-0.7,0
				c-0.1,0-0.1-0.1-0.1-0.1C44.7,50.9,44.7,50.4,44.7,49.9L44.7,49.9z"/>
		</g>
	</g>
</g>
<g>
	<rect x="196.3" y="45.9" class="eui2" width="5.5" height="5.5"/>
	<g>
		<g>
			<path class="eui2" d="M196.2,49.9l0-1c0-0.3,0-0.7,0-1c0-0.5,0-1,0-1.6l0-0.4l0,0c0-0.1,0-0.1,0.1-0.1c1,0,1.9,0.1,2.9,0
				c0.7-0.1,1.5,0,2.2,0c0.2,0,0.3,0,0.4,0c0.1,0,0.1,0.1,0.1,0.1c0,0.3,0,0.6,0,0.9c0,0.5,0,0.9,0,1.4c0,0.9,0,1.7,0.1,2.6
				c0,0.2,0,0.3,0,0.5c0,0,0,0.1,0,0.1c0,0-0.1,0.1-0.1,0.1c0,0-0.1,0-0.1-0.1c0,0,0-0.1,0-0.1c0-0.2,0-0.5,0-0.7c0,0,0-0.1,0-0.1
				c0-0.1,0-0.1,0-0.2c0-0.7,0-1.4-0.1-2.1c0-0.4,0-0.9,0-1.3c0-0.3,0-0.6,0-0.9l0.1,0.1c-0.4,0-0.8,0-1.3,0c-0.3,0-0.6,0-1,0
				c-0.3,0-0.6,0-0.9,0c-0.2,0-0.4,0-0.6,0c-0.6,0-1.2,0-1.8,0l0.1-0.1l0,0.3c0,0.8,0,1.5,0,2.3c0,0.4,0,0.8,0,1.3
				c0,0.1,0,0.4,0,0.5c0,0.1,0,0.3,0,0.4c0,0,0,0.2,0,0.7l-0.1-0.1c0.3,0,1.5,0,2.1,0c1.1,0,2.1,0,3.1,0c0.1,0,0.2,0,0.3,0
				c0.1,0,0.1,0,0.1,0.1c0,0-0.1,0.1-0.1,0.1c-0.1,0-0.1,0-0.2,0c-0.6,0-1.1,0-1.7,0c-1,0-2,0-2.9,0c-0.2,0-0.4,0-0.7,0
				c-0.1,0-0.1-0.1-0.1-0.1C196.2,50.9,196.2,50.4,196.2,49.9L196.2,49.9z"/>
		</g>
	</g>
</g>
<g>
	<rect x="55.7" y="45.9" class="eui2" width="5.5" height="5.5"/>
	<g>
		<g>
			<path class="eui2" d="M55.5,49.9l0-1c0-0.3,0-0.7,0-1c0-0.5,0-1,0-1.6l0-0.4l0,0c0-0.1,0-0.1,0.1-0.1c1,0,1.9,0.1,2.9,0
				c0.7-0.1,1.5,0,2.2,0c0.2,0,0.3,0,0.4,0c0.1,0,0.1,0.1,0.1,0.1c0,0.3,0,0.6,0,0.9c0,0.5,0,0.9,0,1.4c0,0.9,0,1.7,0.1,2.6
				c0,0.2,0,0.3,0,0.5c0,0,0,0.1,0,0.1c0,0-0.1,0.1-0.1,0.1c0,0-0.1,0-0.1-0.1c0,0,0-0.1,0-0.1c0-0.2,0-0.5,0-0.7c0,0,0-0.1,0-0.1
				c0-0.1,0-0.1,0-0.2c0-0.7,0-1.4-0.1-2.1c0-0.4,0-0.9,0-1.3c0-0.3,0-0.6,0-0.9l0.1,0.1c-0.4,0-0.8,0-1.3,0c-0.3,0-0.6,0-1,0
				c-0.3,0-0.6,0-0.9,0c-0.2,0-0.4,0-0.6,0c-0.6,0-1.2,0-1.8,0l0.1-0.1l0,0.3c0,0.8,0,1.5,0,2.3c0,0.4,0,0.8,0,1.3
				c0,0.1,0,0.4,0,0.5c0,0.1,0,0.3,0,0.4c0,0,0,0.2,0,0.7l-0.1-0.1c0.3,0,1.5,0,2.1,0c1.1,0,2.1,0,3.1,0c0.1,0,0.2,0,0.3,0
				c0.1,0,0.1,0,0.1,0.1c0,0-0.1,0.1-0.1,0.1c-0.1,0-0.1,0-0.2,0c-0.6,0-1.1,0-1.7,0c-1,0-2,0-2.9,0c-0.2,0-0.4,0-0.7,0
				c-0.1,0-0.1-0.1-0.1-0.1C55.6,50.9,55.5,50.4,55.5,49.9L55.5,49.9z"/>
		</g>
	</g>
</g>
<g>
	<rect x="66.5" y="45.9" class="eui2" width="5.5" height="5.5"/>
	<g>
		<g>
			<path class="eui2" d="M66.4,49.9l0-1c0-0.3,0-0.7,0-1c0-0.5,0-1,0-1.6l0-0.4l0,0c0-0.1,0-0.1,0.1-0.1c1,0,1.9,0.1,2.9,0
				c0.7-0.1,1.5,0,2.2,0c0.2,0,0.3,0,0.4,0c0.1,0,0.1,0.1,0.1,0.1c0,0.3,0,0.6,0,0.9c0,0.5,0,0.9,0,1.4c0,0.9,0,1.7,0.1,2.6
				c0,0.2,0,0.3,0,0.5c0,0,0,0.1,0,0.1c0,0-0.1,0.1-0.1,0.1c0,0-0.1,0-0.1-0.1c0,0,0-0.1,0-0.1c0-0.2,0-0.5,0-0.7c0,0,0-0.1,0-0.1
				c0-0.1,0-0.1,0-0.2c0-0.7,0-1.4-0.1-2.1c0-0.4,0-0.9,0-1.3c0-0.3,0-0.6,0-0.9L72,46c-0.4,0-0.8,0-1.3,0c-0.3,0-0.6,0-1,0
				c-0.3,0-0.6,0-0.9,0c-0.2,0-0.4,0-0.6,0c-0.6,0-1.2,0-1.8,0l0.1-0.1l0,0.3c0,0.8,0,1.5,0,2.3c0,0.4,0,0.8,0,1.3
				c0,0.1,0,0.4,0,0.5c0,0.1,0,0.3,0,0.4c0,0,0,0.2,0,0.7l-0.1-0.1c0.3,0,1.5,0,2.1,0c1.1,0,2.1,0,3.1,0c0.1,0,0.2,0,0.3,0
				c0.1,0,0.1,0,0.1,0.1c0,0-0.1,0.1-0.1,0.1c-0.1,0-0.1,0-0.2,0c-0.6,0-1.1,0-1.7,0c-1,0-2,0-2.9,0c-0.2,0-0.4,0-0.7,0
				c-0.1,0-0.1-0.1-0.1-0.1C66.4,50.9,66.4,50.4,66.4,49.9L66.4,49.9z"/>
		</g>
	</g>
</g>
<g>
	<rect x="88.2" y="45.9" class="eui2" width="5.5" height="5.5"/>
	<g>
		<g>
			<path class="eui2" d="M88,49.9l0-1c0-0.3,0-0.7,0-1c0-0.5,0-1,0-1.6l0-0.4l0,0c0-0.1,0-0.1,0.1-0.1c1,0,1.9,0.1,2.9,0
				c0.7-0.1,1.5,0,2.2,0c0.2,0,0.3,0,0.4,0c0.1,0,0.1,0.1,0.1,0.1c0,0.3,0,0.6,0,0.9c0,0.5,0,0.9,0,1.4c0,0.9,0,1.7,0.1,2.6
				c0,0.2,0,0.3,0,0.5c0,0,0,0.1,0,0.1c0,0-0.1,0.1-0.1,0.1c0,0-0.1,0-0.1-0.1c0,0,0-0.1,0-0.1c0-0.2,0-0.5,0-0.7c0,0,0-0.1,0-0.1
				c0-0.1,0-0.1,0-0.2c0-0.7,0-1.4-0.1-2.1c0-0.4,0-0.9,0-1.3c0-0.3,0-0.6,0-0.9l0.1,0.1c-0.4,0-0.8,0-1.3,0c-0.3,0-0.6,0-1,0
				c-0.3,0-0.6,0-0.9,0c-0.2,0-0.4,0-0.6,0c-0.6,0-1.2,0-1.8,0l0.1-0.1l0,0.3c0,0.8,0,1.5,0,2.3c0,0.4,0,0.8,0,1.3
				c0,0.1,0,0.4,0,0.5c0,0.1,0,0.3,0,0.4c0,0,0,0.2,0,0.7l-0.1-0.1c0.3,0,1.5,0,2.1,0c1.1,0,2.1,0,3.1,0c0.1,0,0.2,0,0.3,0
				c0.1,0,0.1,0,0.1,0.1c0,0-0.1,0.1-0.1,0.1c-0.1,0-0.1,0-0.2,0c-0.6,0-1.1,0-1.7,0c-1,0-2,0-2.9,0c-0.2,0-0.4,0-0.7,0
				c-0.1,0-0.1-0.1-0.1-0.1C88,50.9,88,50.4,88,49.9L88,49.9z"/>
		</g>
	</g>
</g>
<g>
	<rect x="99" y="45.9" class="eui2" width="5.5" height="5.5"/>
	<g>
		<g>
			<path class="eui2" d="M98.8,49.9l0-1c0-0.3,0-0.7,0-1c0-0.5,0-1,0-1.6l0-0.4l0,0c0-0.1,0-0.1,0.1-0.1c1,0,1.9,0.1,2.9,0
				c0.7-0.1,1.5,0,2.2,0c0.2,0,0.3,0,0.4,0c0.1,0,0.1,0.1,0.1,0.1c0,0.3,0,0.6,0,0.9c0,0.5,0,0.9,0,1.4c0,0.9,0,1.7,0.1,2.6
				c0,0.2,0,0.3,0,0.5c0,0,0,0.1,0,0.1c0,0-0.1,0.1-0.1,0.1c0,0-0.1,0-0.1-0.1c0,0,0-0.1,0-0.1c0-0.2,0-0.5,0-0.7c0,0,0-0.1,0-0.1
				c0-0.1,0-0.1,0-0.2c0-0.7,0-1.4-0.1-2.1c0-0.4,0-0.9,0-1.3c0-0.3,0-0.6,0-0.9l0.1,0.1c-0.4,0-0.8,0-1.3,0c-0.3,0-0.6,0-1,0
				c-0.3,0-0.6,0-0.9,0c-0.2,0-0.4,0-0.6,0c-0.6,0-1.2,0-1.8,0l0.1-0.1l0,0.3c0,0.8,0,1.5,0,2.3c0,0.4,0,0.8,0,1.3
				c0,0.1,0,0.4,0,0.5c0,0.1,0,0.3,0,0.4c0,0,0,0.2,0,0.7L99,51.4c0.3,0,1.5,0,2.1,0c1.1,0,2.1,0,3.1,0c0.1,0,0.2,0,0.3,0
				c0.1,0,0.1,0,0.1,0.1c0,0-0.1,0.1-0.1,0.1c-0.1,0-0.1,0-0.2,0c-0.6,0-1.1,0-1.7,0c-1,0-2,0-2.9,0c-0.2,0-0.4,0-0.7,0
				c-0.1,0-0.1-0.1-0.1-0.1C98.9,50.9,98.9,50.4,98.8,49.9L98.8,49.9z"/>
		</g>
	</g>
</g>
<g>
	<rect x="109.8" y="45.9" class="eui2" width="5.5" height="5.5"/>
	<g>
		<g>
			<path class="eui2" d="M109.7,49.9l0-1c0-0.3,0-0.7,0-1c0-0.5,0-1,0-1.6l0-0.4l0,0c0-0.1,0-0.1,0.1-0.1c1,0,1.9,0.1,2.9,0
				c0.7-0.1,1.5,0,2.2,0c0.2,0,0.3,0,0.4,0c0.1,0,0.1,0.1,0.1,0.1c0,0.3,0,0.6,0,0.9c0,0.5,0,0.9,0,1.4c0,0.9,0,1.7,0.1,2.6
				c0,0.2,0,0.3,0,0.5c0,0,0,0.1,0,0.1c0,0-0.1,0.1-0.1,0.1c0,0-0.1,0-0.1-0.1c0,0,0-0.1,0-0.1c0-0.2,0-0.5,0-0.7c0,0,0-0.1,0-0.1
				c0-0.1,0-0.1,0-0.2c0-0.7,0-1.4-0.1-2.1c0-0.4,0-0.9,0-1.3c0-0.3,0-0.6,0-0.9l0.1,0.1c-0.4,0-0.8,0-1.3,0c-0.3,0-0.6,0-1,0
				c-0.3,0-0.6,0-0.9,0c-0.2,0-0.4,0-0.6,0c-0.6,0-1.2,0-1.8,0l0.1-0.1l0,0.3c0,0.8,0,1.5,0,2.3c0,0.4,0,0.8,0,1.3
				c0,0.1,0,0.4,0,0.5c0,0.1,0,0.3,0,0.4c0,0,0,0.2,0,0.7l-0.1-0.1c0.3,0,1.5,0,2.1,0c1.1,0,2.1,0,3.1,0c0.1,0,0.2,0,0.3,0
				c0.1,0,0.1,0,0.1,0.1c0,0-0.1,0.1-0.1,0.1c-0.1,0-0.1,0-0.2,0c-0.6,0-1.1,0-1.7,0c-1,0-2,0-2.9,0c-0.2,0-0.4,0-0.7,0
				c-0.1,0-0.1-0.1-0.1-0.1C109.7,50.9,109.7,50.4,109.7,49.9L109.7,49.9z"/>
		</g>
	</g>
</g>
<g>
	<rect x="120.6" y="45.9" class="eui2" width="5.5" height="5.5"/>
	<g>
		<g>
			<path class="eui2" d="M120.5,49.9l0-1c0-0.3,0-0.7,0-1c0-0.5,0-1,0-1.6l0-0.4l0,0c0-0.1,0-0.1,0.1-0.1c1,0,1.9,0.1,2.9,0
				c0.7-0.1,1.5,0,2.2,0c0.2,0,0.3,0,0.4,0c0.1,0,0.1,0.1,0.1,0.1c0,0.3,0,0.6,0,0.9c0,0.5,0,0.9,0,1.4c0,0.9,0,1.7,0.1,2.6
				c0,0.2,0,0.3,0,0.5c0,0,0,0.1,0,0.1c0,0-0.1,0.1-0.1,0.1c0,0-0.1,0-0.1-0.1c0,0,0-0.1,0-0.1c0-0.2,0-0.5,0-0.7c0,0,0-0.1,0-0.1
				c0-0.1,0-0.1,0-0.2c0-0.7,0-1.4-0.1-2.1c0-0.4,0-0.9,0-1.3c0-0.3,0-0.6,0-0.9l0.1,0.1c-0.4,0-0.8,0-1.3,0c-0.3,0-0.6,0-1,0
				c-0.3,0-0.6,0-0.9,0c-0.2,0-0.4,0-0.6,0c-0.6,0-1.2,0-1.8,0l0.1-0.1l0,0.3c0,0.8,0,1.5,0,2.3c0,0.4,0,0.8,0,1.3
				c0,0.1,0,0.4,0,0.5c0,0.1,0,0.3,0,0.4c0,0,0,0.2,0,0.7l-0.1-0.1c0.3,0,1.5,0,2.1,0c1.1,0,2.1,0,3.1,0c0.1,0,0.2,0,0.3,0
				c0.1,0,0.1,0,0.1,0.1c0,0-0.1,0.1-0.1,0.1c-0.1,0-0.1,0-0.2,0c-0.6,0-1.1,0-1.7,0c-1,0-2,0-2.9,0c-0.2,0-0.4,0-0.7,0
				c-0.1,0-0.1-0.1-0.1-0.1C120.5,50.9,120.5,50.4,120.5,49.9L120.5,49.9z"/>
		</g>
	</g>
</g>
<g>
	<rect x="142.3" y="45.9" class="eui2" width="5.5" height="5.5"/>
	<g>
		<g>
			<path class="eui2" d="M142.2,49.9l0-1c0-0.3,0-0.7,0-1c0-0.5,0-1,0-1.6l0-0.4l0,0c0-0.1,0-0.1,0.1-0.1c1,0,1.9,0.1,2.9,0
				c0.7-0.1,1.5,0,2.2,0c0.2,0,0.3,0,0.4,0c0.1,0,0.1,0.1,0.1,0.1c0,0.3,0,0.6,0,0.9c0,0.5,0,0.9,0,1.4c0,0.9,0,1.7,0.1,2.6
				c0,0.2,0,0.3,0,0.5c0,0,0,0.1,0,0.1c0,0-0.1,0.1-0.1,0.1c0,0-0.1,0-0.1-0.1c0,0,0-0.1,0-0.1c0-0.2,0-0.5,0-0.7c0,0,0-0.1,0-0.1
				c0-0.1,0-0.1,0-0.2c0-0.7,0-1.4-0.1-2.1c0-0.4,0-0.9,0-1.3c0-0.3,0-0.6,0-0.9l0.1,0.1c-0.4,0-0.8,0-1.3,0c-0.3,0-0.6,0-1,0
				c-0.3,0-0.6,0-0.9,0c-0.2,0-0.4,0-0.6,0c-0.6,0-1.2,0-1.8,0l0.1-0.1l0,0.3c0,0.8,0,1.5,0,2.3c0,0.4,0,0.8,0,1.3
				c0,0.1,0,0.4,0,0.5c0,0.1,0,0.3,0,0.4c0,0,0,0.2,0,0.7l-0.1-0.1c0.3,0,1.5,0,2.1,0c1.1,0,2.1,0,3.1,0c0.1,0,0.2,0,0.3,0
				c0.1,0,0.1,0,0.1,0.1c0,0-0.1,0.1-0.1,0.1c-0.1,0-0.1,0-0.2,0c-0.6,0-1.1,0-1.7,0c-1,0-2,0-2.9,0c-0.2,0-0.4,0-0.7,0
				c-0.1,0-0.1-0.1-0.1-0.1C142.2,50.9,142.2,50.4,142.2,49.9L142.2,49.9z"/>
		</g>
	</g>
</g>
<g>
	<rect x="153.1" y="45.9" class="eui2" width="5.5" height="5.5"/>
	<g>
		<g>
			<path class="eui2" d="M153,49.9l0-1c0-0.3,0-0.7,0-1c0-0.5,0-1,0-1.6l0-0.4l0,0c0-0.1,0-0.1,0.1-0.1c1,0,1.9,0.1,2.9,0
				c0.7-0.1,1.5,0,2.2,0c0.2,0,0.3,0,0.4,0c0.1,0,0.1,0.1,0.1,0.1c0,0.3,0,0.6,0,0.9c0,0.5,0,0.9,0,1.4c0,0.9,0,1.7,0.1,2.6
				c0,0.2,0,0.3,0,0.5c0,0,0,0.1,0,0.1c0,0-0.1,0.1-0.1,0.1c0,0-0.1,0-0.1-0.1c0,0,0-0.1,0-0.1c0-0.2,0-0.5,0-0.7c0,0,0-0.1,0-0.1
				c0-0.1,0-0.1,0-0.2c0-0.7,0-1.4-0.1-2.1c0-0.4,0-0.9,0-1.3c0-0.3,0-0.6,0-0.9l0.1,0.1c-0.4,0-0.8,0-1.3,0c-0.3,0-0.6,0-1,0
				c-0.3,0-0.6,0-0.9,0c-0.2,0-0.4,0-0.6,0c-0.6,0-1.2,0-1.8,0l0.1-0.1l0,0.3c0,0.8,0,1.5,0,2.3c0,0.4,0,0.8,0,1.3
				c0,0.1,0,0.4,0,0.5c0,0.1,0,0.3,0,0.4c0,0,0,0.2,0,0.7l-0.1-0.1c0.3,0,1.5,0,2.1,0c1.1,0,2.1,0,3.1,0c0.1,0,0.2,0,0.3,0
				c0.1,0,0.1,0,0.1,0.1c0,0-0.1,0.1-0.1,0.1c-0.1,0-0.1,0-0.2,0c-0.6,0-1.1,0-1.7,0c-1,0-2,0-2.9,0c-0.2,0-0.4,0-0.7,0
				c-0.1,0-0.1-0.1-0.1-0.1C153,50.9,153,50.4,153,49.9L153,49.9z"/>
		</g>
	</g>
</g>
<g>
	<g>
		<g>
			<path class="eui2" d="M126.2,158.9l-35-0.4c-6.2-0.1-12.4,0.1-18.6,0c-7.6-0.1-15.2-0.4-22.8-0.5c-2.4,0-4.7-0.1-7.1-0.2l-3.6-0.1
				l-0.9,0c-0.3,0-0.5,0-1.1-0.1c-0.8-0.2-1.5-0.8-1.7-1.6c-0.1-0.2-0.1-0.4-0.1-0.6c0-0.1,0-0.2,0-0.3l0-0.2l0-0.9l0-1.8l0.1-3.6
				c0-2.4,0-4.7-0.1-7.1c-0.1-3.6,0-7.2,0-10.9c0-2.2-0.2-4.3-0.2-6.5c0-4.5,0.4-28.5,0-36C35,83,34.9,75,34.9,68.3
				c0-6.7,0-12.2,0-12.3c-0.3-4.4-0.2-8.8-0.1-13.2l0.1-3.3l0.1-1.7c0-0.9,0.5-1.7,1.2-2.2c0.4-0.2,0.8-0.4,1.2-0.5
				c0.2,0,0.5,0,0.6,0l0.4,0l1.6,0l3.3,0c11.2,0,22.5,0.1,33.7-0.2c16.7-0.5,33.4-0.2,50-0.3l67-0.2l8.1-0.1l4.1,0l2,0l0.5,0l0.1,0
				l0.2,0l0.1,0l0.3,0c0.7,0.1,1.3,0.4,1.9,0.8c0.5,0.4,0.9,1,1.1,1.7c0.1,0.3,0.2,0.7,0.2,1l0,0.6l0,2l0.1,4.1l0.2,8.1
				c0.1,3.6-0.2,7.2-0.2,10.9l-0.1,29.1l-0.3,43.3c0,3.1,0.3,6.1,0.3,9.2l0.1,5l0,5.1l0,0.1l0,0.2c0,0.2-0.1,0.4-0.1,0.6
				c-0.1,0.3-0.2,0.7-0.4,0.9c-0.4,0.6-0.9,1-1.3,1.1c-0.5,0.2-1,0.2-1.4,0c-0.4-0.1-0.6-0.4-0.6-0.6c0-0.2,0.2-0.4,0.3-0.7
				c0.2-0.2,0.3-0.5,0.4-0.7c0.2-0.4,0.4-0.8,0.4-1.2c-0.1-4.3-0.3-8.6-0.3-12.9l-0.1-52.3c0-7,0.2-37.6,0.2-38.5
				c0-3.7-0.1-7.4-0.1-11.1l0-1.4l0-0.7l0-0.3c0-0.1,0-0.1,0-0.2c0-0.2-0.2-0.4-0.3-0.5c-0.1-0.1-0.2-0.1-0.3-0.1c0,0,0,0-0.2,0
				l-0.3,0c-1.8,0-3.7,0-5.5-0.1c-12.7-0.3-25.4,0.5-38.1,0.5l-28.5-0.1c-0.6,0-14.4-0.2-17.5-0.4c-10-0.5-19.9,0.3-29.9,0.2
				c-2.5,0-5,0.2-7.5,0.3c-1.7,0.1-3.5,0.2-5.2,0.2c-7.3,0-14.6,0.2-22,0.3c-3.7,0.1-7.3,0.1-11,0.1l-5.5,0c0,0-0.2,0-0.1,0
				c0,0,0,0,0,0c0,0,0,0,0.1,0c0,0,0.1,0,0.1-0.1c0.1-0.1,0.1-0.1,0.1-0.3c0-0.2,0,0.3,0,0.1l0,0.3l0,0.7l0,1.4
				c-0.1,5.7,0,11.4-0.1,17.2c-0.1,6.5-0.2,13-0.2,19.5c0,5.6,0.3,11.1,0.4,16.7c0.1,4.4,0.1,8.8,0.1,13.2
				c-0.1,4.7-0.4,9.5-0.4,14.2c0,2.6,0.2,5.3,0.4,7.9c0.1,2.4,0.3,4.7,0.3,7.1c0.1,5,0.1,9.9,0,14.9c0,1.2,0,2.3-0.1,3.5l0,0.4
				l0,0.1c0,0,0,0,0,0c0,0,0-0.1,0-0.1c0-0.1-0.1-0.2-0.2-0.3c-0.1-0.1-0.2-0.2-0.3-0.2c-0.1,0-0.1,0-0.2,0c0,0-0.1,0-0.1,0
				c0,0-0.1,0,0,0l0.1,0l0,0l0,0c-0.1,0,0.1,0-0.1,0l0,0l0,0l0.1,0c2.3,0.1,4.7,0.2,6.9,0.5c4.7,0.6,9.4,0.5,14.1,0.5
				c8.4,0,16.9-0.1,25.3,0.1c4.9,0.1,9.9,0.5,14.8,0.4c3.6,0,7.3,0,10.9,0c8.7,0.1,17.4-0.2,26.2-0.2c9.9,0,19.8,0.6,29.7,0.3
				c7-0.2,14,0.4,20.9,0.3l18-0.4c0.8,0,1.5,0,2.3,0.1c0.9,0.1,1.6,0.4,1.7,1.1c0.2,0.7-0.4,1.3-1.3,1.5c-1,0.2-2,0.4-3.1,0.4
				c-6.5,0.2-13,0.3-19.5,0.4c-7,0.1-14.1,0.1-21.1,0.1c-5.9,0-11.9-0.1-17.8-0.2l-19.9-0.3L126.2,158.9z"/>
		</g>
	</g>
</g>
<g>
	<g>
		<g>
			<path class="eui2" d="M156.6,8c-0.9-1-2.1-1.6-3.5-1.7l-0.1,0c-0.2,0-0.4-0.2-0.4-0.5c0-0.2,0.2-0.4,0.5-0.4c0.6,0,1.2,0,1.8-0.3
				c0.8-0.3,1.5-0.9,2-1.6c0.5-0.7,0.8-1.5,1.1-2.3c0.1-0.3,0.2-0.7,0.2-1h0.7c0,0.9,0.2,1.9,0.7,2.6c0.2,0.4,0.9,1.3,1.8,1.8
				c0.8,0.5,1.8,0.7,2,0.7c0.2,0,0.7-0.1,0.7,0.4c0,0.3-0.3,0.4-0.6,0.4c-0.8,0-1.5-0.2-2.1-0.6c-0.8-0.4-1.4-1-1.9-1.7
				c-0.6-0.8-1-1.8-1.1-2.9c0-0.2,0-0.5-0.1-0.8c0-0.1,0.1-0.2,0.2-0.2s0.2,0.1,0.2,0.2l0,0l0,0c0,0.9-0.1,1.9-0.5,2.9
				c-0.4,1-1.1,1.8-1.8,2.3c-1.1,0.8-2.3,1.1-3.6,1.1V5.1c3.3,0,6,2.9,6,6.2l0,0c0,0.2-0.2,0.4-0.4,0.4c-0.2,0-0.4-0.2-0.4-0.4l0,0
				c0-0.5,0.1-1.1,0.2-1.7c0.1-0.7,0.4-1.4,1-2.1c0.5-0.7,1.2-1.2,2-1.6c0.7-0.3,1.4-0.5,1.9-0.5c0.3,0,0.5,0,0.6,0
				c0.1,0,0.2,0,0.2,0c0.1,0.1,0,0.5-0.2,0.6c-2.7,0.4-4.7,2.7-4.6,5.2H158C158,10.1,157.5,8.9,156.6,8z"/>
		</g>
	</g>
</g>
<g>
	<g>
		<g>
			<path class="eui2" d="M70,175.7c-0.9-1-2.1-1.6-3.5-1.7l-0.1,0c-0.2,0-0.4-0.2-0.4-0.5c0-0.2,0.2-0.4,0.5-0.4c0.6,0,1.2,0,1.8-0.3
				c0.8-0.3,1.5-0.9,2-1.6c0.5-0.7,0.8-1.5,1.1-2.3c0.1-0.3,0.2-0.7,0.2-1h0.7c0,0.9,0.2,1.9,0.7,2.6c0.2,0.4,0.9,1.3,1.8,1.8
				c0.8,0.5,1.8,0.7,2,0.7c0.2,0,0.7-0.1,0.7,0.4c0,0.3-0.3,0.4-0.6,0.4c-0.8,0-1.5-0.2-2.1-0.6c-0.8-0.4-1.4-1-1.9-1.7
				c-0.6-0.8-1-1.8-1.1-2.9c0-0.2,0-0.5-0.1-0.8c0-0.1,0.1-0.2,0.2-0.2c0.1,0,0.2,0.1,0.2,0.2l0,0l0,0c0,0.9-0.1,1.9-0.5,2.9
				c-0.4,1-1.1,1.8-1.8,2.3c-1.1,0.8-2.3,1.1-3.6,1.1v-1.3c3.3,0,6,2.9,6,6.2l0,0c0,0.2-0.2,0.4-0.4,0.4c-0.2,0-0.4-0.2-0.4-0.4l0,0
				c0-0.5,0.1-1.1,0.2-1.7c0.1-0.7,0.4-1.4,1-2.1c0.5-0.7,1.2-1.2,2-1.6c0.7-0.3,1.4-0.5,1.9-0.5c0.3,0,0.5,0,0.6,0
				c0.1,0,0.2,0,0.2,0c0.1,0.1,0,0.5-0.2,0.6c-2.7,0.4-4.7,2.7-4.6,5.2h-1.3C71.4,177.8,70.9,176.6,70,175.7z"/>
		</g>
	</g>
</g>
<g>
	<g>
		<g>
			<path class="eui2" d="M131.7,184.5c-0.9-1-2.1-1.6-3.5-1.7l-0.1,0c-0.2,0-0.4-0.2-0.4-0.5c0-0.2,0.2-0.4,0.5-0.4
				c0.6,0,1.2,0,1.8-0.3c0.8-0.3,1.5-0.9,2-1.6c0.5-0.7,0.8-1.5,1.1-2.3c0.1-0.3,0.2-0.7,0.2-1h0.7c0,0.9,0.2,1.9,0.7,2.6
				c0.2,0.4,0.9,1.3,1.8,1.8c0.8,0.5,1.8,0.7,2,0.7c0.2,0,0.7-0.1,0.7,0.4c0,0.3-0.3,0.4-0.6,0.4c-0.8,0-1.5-0.2-2.1-0.6
				c-0.8-0.4-1.4-1-1.9-1.7c-0.6-0.8-1-1.8-1.1-2.9c0-0.2,0-0.5-0.1-0.8c0-0.1,0.1-0.2,0.2-0.2c0.1,0,0.2,0.1,0.2,0.2l0,0l0,0
				c0,0.9-0.1,1.9-0.5,2.9c-0.4,1-1.1,1.8-1.8,2.3c-1.1,0.8-2.3,1.1-3.6,1.1v-1.3c3.3,0,6,2.9,6,6.2l0,0c0,0.2-0.2,0.4-0.4,0.4
				c-0.2,0-0.4-0.2-0.4-0.4l0,0c0-0.5,0.1-1.1,0.2-1.7c0.1-0.7,0.4-1.4,1-2.1c0.5-0.7,1.2-1.2,2-1.6c0.7-0.3,1.4-0.5,1.9-0.5
				c0.3,0,0.5,0,0.6,0c0.1,0,0.2,0,0.2,0c0.1,0.1,0,0.5-0.2,0.6c-2.7,0.4-4.7,2.7-4.6,5.2h-1.3C133.1,186.6,132.6,185.4,131.7,184.5
				z"/>
		</g>
	</g>
</g>
<g>
	<g>
		<g>
			<path class="eui2" d="M19.2,127.5c-0.9-1-2.1-1.6-3.5-1.7l-0.1,0c-0.2,0-0.4-0.2-0.4-0.5c0-0.2,0.2-0.4,0.5-0.4
				c0.6,0,1.2,0,1.8-0.3c0.8-0.3,1.5-0.9,2-1.6c0.5-0.7,0.8-1.5,1.1-2.3c0.1-0.3,0.2-0.7,0.2-1h0.7c0,0.9,0.2,1.9,0.7,2.6
				c0.2,0.4,0.9,1.3,1.8,1.8c0.8,0.5,1.8,0.7,2,0.7c0.2,0,0.7-0.1,0.7,0.4c0,0.3-0.3,0.4-0.6,0.4c-0.8,0-1.5-0.2-2.1-0.6
				c-0.8-0.4-1.4-1-1.9-1.7c-0.6-0.8-1-1.8-1.1-2.9c0-0.2,0-0.5-0.1-0.8c0-0.1,0.1-0.2,0.2-0.2c0.1,0,0.2,0.1,0.2,0.2l0,0l0,0
				c0,0.9-0.1,1.9-0.5,2.9c-0.4,1-1.1,1.8-1.8,2.3c-1.1,0.8-2.3,1.1-3.6,1.1v-1.3c3.3,0,6,2.9,6,6.2l0,0c0,0.2-0.2,0.4-0.4,0.4
				c-0.2,0-0.4-0.2-0.4-0.4l0,0c0-0.5,0.1-1.1,0.2-1.7c0.1-0.7,0.4-1.4,1-2.1c0.5-0.7,1.2-1.2,2-1.6c0.7-0.3,1.4-0.5,1.9-0.5
				c0.3,0,0.5,0,0.6,0c0.1,0,0.2,0,0.2,0c0.1,0.1,0,0.5-0.2,0.6c-2.7,0.4-4.7,2.7-4.6,5.2h-1.3C20.6,129.6,20.1,128.4,19.2,127.5z"
				/>
		</g>
	</g>
</g>
<g>
	<g>
		<g>
			<path class="eui2" d="M235.4,75.8c-0.9-1-2.1-1.6-3.5-1.7l-0.1,0c-0.2,0-0.4-0.2-0.4-0.5c0-0.2,0.2-0.4,0.5-0.4
				c0.6,0,1.2,0,1.8-0.3c0.8-0.3,1.5-0.9,2-1.6c0.5-0.7,0.8-1.5,1.1-2.3c0.1-0.3,0.2-0.7,0.2-1h0.7c0,0.9,0.2,1.9,0.7,2.6
				c0.2,0.4,0.9,1.3,1.8,1.8c0.8,0.5,1.8,0.7,2,0.7c0.2,0,0.7-0.1,0.7,0.4c0,0.3-0.3,0.4-0.6,0.4c-0.8,0-1.5-0.2-2.1-0.6
				c-0.8-0.4-1.4-1-1.9-1.7c-0.6-0.8-1-1.8-1.1-2.9c0-0.2,0-0.5-0.1-0.8c0-0.1,0.1-0.2,0.2-0.2c0.1,0,0.2,0.1,0.2,0.2l0,0l0,0
				c0,0.9-0.1,1.9-0.5,2.9c-0.4,1-1.1,1.8-1.8,2.3c-1.1,0.8-2.3,1.1-3.6,1.1V73c3.3,0,6,2.9,6,6.2l0,0c0,0.2-0.2,0.4-0.4,0.4
				c-0.2,0-0.4-0.2-0.4-0.4l0,0c0-0.5,0.1-1.1,0.2-1.7c0.1-0.7,0.4-1.4,1-2.1c0.5-0.7,1.2-1.2,2-1.6c0.7-0.3,1.4-0.5,1.9-0.5
				c0.3,0,0.5,0,0.6,0c0.1,0,0.2,0,0.2,0c0.1,0.1,0,0.5-0.2,0.6c-2.7,0.4-4.7,2.7-4.6,5.2h-1.3C236.7,77.9,236.3,76.7,235.4,75.8z"
				/>
		</g>
	</g>
</g>
<g>
	<g>
		<g>
			<path class="eui2" d="M69.6,11.3c-0.9-1-2.1-1.6-3.5-1.7l-0.1,0c-0.2,0-0.4-0.2-0.4-0.5c0-0.2,0.2-0.4,0.5-0.4
				c0.6,0,1.2,0,1.8-0.3c0.8-0.3,1.5-0.9,2-1.6c0.5-0.7,0.8-1.5,1.1-2.3c0.1-0.3,0.2-0.7,0.2-1H72c0,0.9,0.2,1.9,0.7,2.6
				c0.2,0.4,0.9,1.3,1.8,1.8c0.8,0.5,1.8,0.7,2,0.7c0.2,0,0.7-0.1,0.7,0.4c0,0.3-0.3,0.4-0.6,0.4c-0.8,0-1.5-0.2-2.1-0.6
				c-0.8-0.4-1.4-1-1.9-1.7c-0.6-0.8-1-1.8-1.1-2.9c0-0.2,0-0.5-0.1-0.8c0-0.1,0.1-0.2,0.2-0.2s0.2,0.1,0.2,0.2l0,0l0,0
				c0,0.9-0.1,1.9-0.5,2.9c-0.4,1-1.1,1.8-1.8,2.3c-1.1,0.8-2.3,1.1-3.6,1.1V8.4c3.3,0,6,2.9,6,6.2l0,0c0,0.2-0.2,0.4-0.4,0.4
				s-0.4-0.2-0.4-0.4l0,0c0-0.5,0.1-1.1,0.2-1.7c0.1-0.7,0.4-1.4,1-2.1c0.5-0.7,1.2-1.2,2-1.6c0.7-0.3,1.4-0.5,1.9-0.5
				c0.3,0,0.5,0,0.6,0c0.1,0,0.2,0,0.2,0c0.1,0.1,0,0.5-0.2,0.6c-2.7,0.4-4.7,2.7-4.6,5.2h-1.3C70.9,13.4,70.4,12.1,69.6,11.3z"/>
		</g>
	</g>
</g>
<g>
	<g>
		<g>
			<path class="eui2" d="M4,53.7c-0.9-1-2.1-1.6-3.5-1.7l-0.1,0c-0.2,0-0.4-0.2-0.4-0.5c0-0.2,0.2-0.4,0.5-0.4c0.6,0,1.2,0,1.8-0.3
				c0.8-0.3,1.5-0.9,2-1.6c0.5-0.7,0.8-1.5,1.1-2.3c0.1-0.3,0.2-0.7,0.2-1h0.7c0,0.9,0.2,1.9,0.7,2.6c0.2,0.4,0.9,1.3,1.8,1.8
				c0.8,0.5,1.8,0.7,2,0.7c0.2,0,0.7-0.1,0.7,0.4c0,0.3-0.3,0.4-0.6,0.4c-0.8,0-1.5-0.2-2.1-0.6c-0.8-0.4-1.4-1-1.9-1.7
				c-0.6-0.8-1-1.8-1.1-2.9c0-0.2,0-0.5-0.1-0.8c0-0.1,0.1-0.2,0.2-0.2c0.1,0,0.2,0.1,0.2,0.2l0,0l0,0c0,0.9-0.1,1.9-0.5,2.9
				c-0.4,1-1.1,1.8-1.8,2.3c-1.1,0.8-2.3,1.1-3.6,1.1v-1.3c3.3,0,6,2.9,6,6.2l0,0c0,0.2-0.2,0.4-0.4,0.4c-0.2,0-0.4-0.2-0.4-0.4l0,0
				c0-0.5,0.1-1.1,0.2-1.7c0.1-0.7,0.4-1.4,1-2.1c0.5-0.7,1.2-1.2,2-1.6c0.7-0.3,1.4-0.5,1.9-0.5c0.3,0,0.5,0,0.6,0
				c0.1,0,0.2,0,0.2,0c0.1,0.1,0,0.5-0.2,0.6c-2.7,0.4-4.7,2.7-4.6,5.2H5.4C5.4,55.8,4.9,54.6,4,53.7z"/>
		</g>
	</g>
</g>
<g>
	<g>
		<g>
			<path class="eui2" d="M226.4,132.5c-0.8,0.8-1.3,2-0.9,3.3c0.2,0.5,0.5,0.9,1,1.2c0.4,0.3,0.9,0.5,1.4,0.7
				c0.7,0.3,1.6,0.1,2.2-0.3c0.3-0.1,0.8-0.5,1.1-1.1c0.3-0.5,0.4-1.1,0.4-1.2c0-0.2,0-0.4,0.2-0.4c0.2,0,0.2,0.2,0.2,0.4
				c0,0.5-0.1,0.9-0.3,1.3c-0.2,0.5-0.6,0.9-1,1.2c-0.5,0.4-1.1,0.6-1.7,0.6c-0.5,0.1-1.3,0.1-2-0.1c-0.7-0.2-1.3-0.7-1.7-1.2
				c-0.5-0.7-0.7-1.5-0.7-2.3c0-0.7,0.3-1.5,0.8-2.1c0.9-1.2,2.5-1.7,4-1.3c0.8,0.1,1.8,0.9,2.2,1.8c0.4,0.9,0.3,1.7,0.3,1.7
				c0,0-0.3,0-0.3-0.1c-0.2-1.2-1-2.2-2.1-2.6c-0.3-0.1-0.5-0.2-0.8-0.2l-0.2,0l-0.1,0c0,0,0,0,0,0l-0.1,0c-0.1,0-0.3,0-0.4,0
				C227.3,131.8,226.8,132.1,226.4,132.5z"/>
		</g>
	</g>
</g>
<g>
	<g>
		<g>
			<path class="eui2" d="M210.4,15.8c-0.8,0.8-1.3,2-0.9,3.3c0.2,0.5,0.5,0.9,1,1.2c0.4,0.3,0.9,0.5,1.4,0.7c0.7,0.3,1.6,0.1,2.2-0.3
				c0.3-0.1,0.8-0.5,1.1-1.1c0.3-0.5,0.4-1.1,0.4-1.2c0-0.2,0-0.4,0.2-0.4c0.2,0,0.2,0.2,0.2,0.4c0,0.5-0.1,0.9-0.3,1.3
				c-0.2,0.5-0.6,0.9-1,1.2c-0.5,0.4-1.1,0.6-1.7,0.6c-0.5,0.1-1.3,0.1-2-0.1c-0.7-0.2-1.3-0.7-1.7-1.2c-0.5-0.7-0.7-1.5-0.7-2.3
				c0-0.7,0.3-1.5,0.8-2.1c0.9-1.2,2.5-1.7,4-1.3c0.8,0.1,1.8,0.9,2.2,1.8c0.4,0.9,0.3,1.7,0.3,1.7c0,0-0.3,0-0.3-0.1
				c-0.2-1.2-1-2.2-2.1-2.6c-0.3-0.1-0.5-0.2-0.8-0.2l-0.2,0l-0.1,0c0,0,0,0,0,0l-0.1,0c-0.1,0-0.3,0-0.4,0
				C211.3,15.2,210.8,15.4,210.4,15.8z"/>
		</g>
	</g>
</g>
<g>
	<g>
		<g>
			<path class="eui2" d="M191.3,178c-0.8,0.8-1.3,2-0.9,3.3c0.2,0.5,0.5,0.9,1,1.2c0.4,0.3,0.9,0.5,1.4,0.7c0.7,0.3,1.6,0.1,2.2-0.3
				c0.3-0.1,0.8-0.5,1.1-1.1c0.3-0.5,0.4-1.1,0.4-1.2c0-0.2,0-0.4,0.2-0.4c0.2,0,0.2,0.2,0.2,0.4c0,0.5-0.1,0.9-0.3,1.3
				c-0.2,0.5-0.6,0.9-1,1.2c-0.5,0.4-1.1,0.6-1.7,0.6c-0.5,0.1-1.3,0.1-2-0.1c-0.7-0.2-1.3-0.7-1.7-1.2c-0.5-0.7-0.7-1.5-0.7-2.3
				c0-0.7,0.3-1.5,0.8-2.1c0.9-1.2,2.5-1.7,4-1.3c0.8,0.1,1.8,0.9,2.2,1.8c0.4,0.9,0.3,1.7,0.3,1.7c0,0-0.3,0-0.3-0.1
				c-0.2-1.2-1-2.2-2.1-2.6c-0.3-0.1-0.5-0.2-0.8-0.2l-0.2,0l-0.1,0c0,0,0,0,0,0l-0.1,0c-0.1,0-0.3,0-0.4,0
				C192.2,177.3,191.7,177.6,191.3,178z"/>
		</g>
	</g>
</g>
<g>
	<g>
		<g>
			<path class="eui2" d="M100.7,15.8c-0.8,0.8-1.3,2-0.9,3.3c0.2,0.5,0.5,0.9,1,1.2c0.4,0.3,0.9,0.5,1.4,0.7c0.7,0.3,1.6,0.1,2.2-0.3
				c0.3-0.1,0.8-0.5,1.1-1.1c0.3-0.5,0.4-1.1,0.4-1.2c0-0.2,0-0.4,0.2-0.4c0.2,0,0.2,0.2,0.2,0.4c0,0.5-0.1,0.9-0.3,1.3
				c-0.2,0.5-0.6,0.9-1,1.2c-0.5,0.4-1.1,0.6-1.7,0.6c-0.5,0.1-1.3,0.1-2-0.1c-0.7-0.2-1.3-0.7-1.7-1.2c-0.5-0.7-0.7-1.5-0.7-2.3
				c0-0.7,0.3-1.5,0.8-2.1c0.9-1.2,2.5-1.7,4-1.3c0.8,0.1,1.8,0.9,2.2,1.8c0.4,0.9,0.3,1.7,0.3,1.7c0,0-0.3,0-0.3-0.1
				c-0.2-1.2-1-2.2-2.1-2.6c-0.3-0.1-0.5-0.2-0.8-0.2l-0.2,0l-0.1,0c0,0,0,0,0,0l-0.1,0c-0.1,0-0.3,0-0.4,0
				C101.6,15.2,101.1,15.4,100.7,15.8z"/>
		</g>
	</g>
</g>
</svg>
